<?xml version="1.0" encoding="utf-8"?>
<!-- Generator: Adobe Illustrator 18.1.0, SVG Export Plug-In . SVG Version: 6.00 Build 0)  -->
<svg version="1.1" id="Layer_1" xmlns="http://www.w3.org/2000/svg" xmlns:xlink="http://www.w3.org/1999/xlink" x="0px" y="0px"
	 viewBox="0 0 160 104" enable-background="new 0 0 160 104" xml:space="preserve">
<g>
	<polygon fill="#CC291F" points="32,0.4 0.4,16.2 0.4,39.8 128,103.6 159.6,87.8 159.6,64.2 	"/>
	<path opacity="0.25" d="M24,21v3c0,2.2,3.6,4,8,4s8-1.8,8-4v-3H24z"/>
	<ellipse fill="#CC291F" cx="32" cy="21" rx="8" ry="4"/>
	<path opacity="0.25" d="M24,5v3c0,2.2,3.6,4,8,4s8-1.8,8-4V5H24z"/>
	<ellipse fill="#CC291F" cx="32" cy="5" rx="8" ry="4"/>
	<path opacity="0.25" d="M8,13v3c0,2.2,3.6,4,8,4s8-1.8,8-4v-3H8z"/>
	<ellipse fill="#CC291F" cx="16" cy="13" rx="8" ry="4"/>
	<path opacity="0.25" d="M40,13v3c0,2.2,3.6,4,8,4s8-1.8,8-4v-3H40z"/>
	<ellipse fill="#CC291F" cx="48" cy="13" rx="8" ry="4"/>
	<polygon opacity="0.11" points="0.4,39.8 128,103.6 128,80 0.4,16.2 	"/>
	<polygon opacity="0.29" points="159.6,87.8 128,103.6 128,80 159.6,64.2 	"/>
	<path opacity="0.25" d="M56,37v3c0,2.2,3.6,4,8,4s8-1.8,8-4v-3H56z"/>
	<ellipse fill="#CC291F" cx="64" cy="37" rx="8" ry="4"/>
	<path opacity="0.25" d="M56,21v3c0,2.2,3.6,4,8,4s8-1.8,8-4v-3H56z"/>
	<ellipse fill="#CC291F" cx="64" cy="21" rx="8" ry="4"/>
	<path opacity="0.25" d="M40,29v3c0,2.2,3.6,4,8,4s8-1.8,8-4v-3H40z"/>
	<ellipse fill="#CC291F" cx="48" cy="29" rx="8" ry="4"/>
	<path opacity="0.25" d="M72,29v3c0,2.2,3.6,4,8,4s8-1.8,8-4v-3H72z"/>
	<ellipse fill="#CC291F" cx="80" cy="29" rx="8" ry="4"/>
	<path opacity="0.25" d="M88,53v3c0,2.2,3.6,4,8,4s8-1.8,8-4v-3H88z"/>
	<ellipse fill="#CC291F" cx="96" cy="53" rx="8" ry="4"/>
	<path opacity="0.25" d="M88,37v3c0,2.2,3.6,4,8,4s8-1.8,8-4v-3H88z"/>
	<ellipse fill="#CC291F" cx="96" cy="37" rx="8" ry="4"/>
	<path opacity="0.25" d="M72,45v3c0,2.2,3.6,4,8,4s8-1.8,8-4v-3H72z"/>
	<ellipse fill="#CC291F" cx="80" cy="45" rx="8" ry="4"/>
	<path opacity="0.25" d="M104,45v3c0,2.2,3.6,4,8,4s8-1.8,8-4v-3H104z"/>
	<ellipse fill="#CC291F" cx="112" cy="45" rx="8" ry="4"/>
	<path opacity="0.25" d="M120,69v3c0,2.2,3.6,4,8,4s8-1.8,8-4v-3H120z"/>
	<ellipse fill="#CC291F" cx="128" cy="69" rx="8" ry="4"/>
	<path opacity="0.25" d="M120,53v3c0,2.2,3.6,4,8,4s8-1.8,8-4v-3H120z"/>
	<ellipse fill="#CC291F" cx="128" cy="53" rx="8" ry="4"/>
	<path opacity="0.25" d="M104,61v3c0,2.2,3.6,4,8,4s8-1.8,8-4v-3H104z"/>
	<ellipse fill="#CC291F" cx="112" cy="61" rx="8" ry="4"/>
	<path opacity="0.25" d="M136,61v3c0,2.2,3.6,4,8,4s8-1.8,8-4v-3H136z"/>
	<ellipse fill="#CC291F" cx="144" cy="61" rx="8" ry="4"/>
</g>
</svg>
