<?xml version="1.0" encoding="utf-8"?>
<!-- Generator: Adobe Illustrator 18.1.0, SVG Export Plug-In . SVG Version: 6.00 Build 0)  -->
<svg version="1.1" id="Layer_1" xmlns="http://www.w3.org/2000/svg" xmlns:xlink="http://www.w3.org/1999/xlink" x="0px" y="0px"
	 viewBox="0 0 160 104" enable-background="new 0 0 160 104" xml:space="preserve">
<g>
	<polygon fill="#CC291F" points="128,0.4 159.6,16.2 159.6,39.8 32,103.6 0.4,87.8 0.4,64.2 	"/>
	<path opacity="0.25" d="M136,21v3c0,2.2-3.6,4-8,4s-8-1.8-8-4v-3H136z"/>
	<ellipse fill="#CC291F" cx="128" cy="21" rx="8" ry="4"/>
	<path opacity="0.25" d="M136,5v3c0,2.2-3.6,4-8,4s-8-1.8-8-4V5H136z"/>
	<ellipse fill="#CC291F" cx="128" cy="5" rx="8" ry="4"/>
	<path opacity="0.25" d="M152,13v3c0,2.2-3.6,4-8,4s-8-1.8-8-4v-3H152z"/>
	<ellipse fill="#CC291F" cx="144" cy="13" rx="8" ry="4"/>
	<path opacity="0.25" d="M120,13v3c0,2.2-3.6,4-8,4s-8-1.8-8-4v-3H120z"/>
	<ellipse fill="#CC291F" cx="112" cy="13" rx="8" ry="4"/>
	<polygon opacity="0.29" points="159.6,39.8 32,103.6 32,80 159.6,16.2 	"/>
	<polygon opacity="0.11" points="0.4,87.8 32,103.6 32,80 0.4,64.2 	"/>
	<path opacity="0.25" d="M104,37v3c0,2.2-3.6,4-8,4s-8-1.8-8-4v-3H104z"/>
	<ellipse fill="#CC291F" cx="96" cy="37" rx="8" ry="4"/>
	<path opacity="0.25" d="M104,21v3c0,2.2-3.6,4-8,4s-8-1.8-8-4v-3H104z"/>
	<ellipse fill="#CC291F" cx="96" cy="21" rx="8" ry="4"/>
	<path opacity="0.25" d="M120,29v3c0,2.2-3.6,4-8,4s-8-1.8-8-4v-3H120z"/>
	<ellipse fill="#CC291F" cx="112" cy="29" rx="8" ry="4"/>
	<path opacity="0.25" d="M88,29v3c0,2.2-3.6,4-8,4s-8-1.8-8-4v-3H88z"/>
	<ellipse fill="#CC291F" cx="80" cy="29" rx="8" ry="4"/>
	<path opacity="0.25" d="M72,53v3c0,2.2-3.6,4-8,4s-8-1.8-8-4v-3H72z"/>
	<ellipse fill="#CC291F" cx="64" cy="53" rx="8" ry="4"/>
	<path opacity="0.25" d="M72,37v3c0,2.2-3.6,4-8,4s-8-1.8-8-4v-3H72z"/>
	<ellipse fill="#CC291F" cx="64" cy="37" rx="8" ry="4"/>
	<path opacity="0.25" d="M88,45v3c0,2.2-3.6,4-8,4s-8-1.8-8-4v-3H88z"/>
	<ellipse fill="#CC291F" cx="80" cy="45" rx="8" ry="4"/>
	<path opacity="0.25" d="M56,45v3c0,2.2-3.6,4-8,4s-8-1.8-8-4v-3H56z"/>
	<ellipse fill="#CC291F" cx="48" cy="45" rx="8" ry="4"/>
	<path opacity="0.25" d="M40,69v3c0,2.2-3.6,4-8,4s-8-1.8-8-4v-3H40z"/>
	<ellipse fill="#CC291F" cx="32" cy="69" rx="8" ry="4"/>
	<path opacity="0.25" d="M40,53v3c0,2.2-3.6,4-8,4s-8-1.8-8-4v-3H40z"/>
	<ellipse fill="#CC291F" cx="32" cy="53" rx="8" ry="4"/>
	<path opacity="0.25" d="M56,61v3c0,2.2-3.6,4-8,4s-8-1.8-8-4v-3H56z"/>
	<ellipse fill="#CC291F" cx="48" cy="61" rx="8" ry="4"/>
	<path opacity="0.25" d="M24,61v3c0,2.2-3.6,4-8,4s-8-1.8-8-4v-3H24z"/>
	<ellipse fill="#CC291F" cx="16" cy="61" rx="8" ry="4"/>
</g>
</svg>
