<?xml version="1.0" encoding="utf-8"?>
<!-- Generator: Adobe Illustrator 18.1.0, SVG Export Plug-In . SVG Version: 6.00 Build 0)  -->
<svg version="1.1" id="Layer_1" xmlns="http://www.w3.org/2000/svg" xmlns:xlink="http://www.w3.org/1999/xlink" x="0px" y="0px"
	 viewBox="0 0 80 64" enable-background="new 0 0 80 64" xml:space="preserve">
<g>
	<polygon fill="#CC291F" points="48,0.4 32.4,8.2 0.4,46.2 0.4,47.8 32,63.6 79.6,39.8 79.6,16.2 	"/>
	<polygon opacity="9.000000e-002" points="0.4,47.8 32,63.6 32,62 64,24 32.4,8.2 0.4,46.2 	"/>
	<polygon opacity="9.000000e-002" points="0.4,47.8 32,63.6 32,62 0.4,46.2 	"/>
	<polygon opacity="0.29" points="79.6,39.8 32,63.6 32,62 64,24 79.6,16.2 	"/>
	<path opacity="0.25" d="M40,5v3c0,2.2,3.6,4,8,4s8-1.8,8-4V5H40z"/>
	<ellipse fill="#CC291F" cx="48" cy="5" rx="8" ry="4"/>
	<path opacity="0.25" d="M56,13v3c0,2.2,3.6,4,8,4s8-1.8,8-4v-3H56z"/>
	<ellipse fill="#CC291F" cx="64" cy="13" rx="8" ry="4"/>
</g>
</svg>
