<?xml version="1.0" encoding="utf-8"?>
<!-- Generator: Adobe Illustrator 18.1.0, SVG Export Plug-In . SVG Version: 6.00 Build 0)  -->
<svg version="1.1" id="Layer_1" xmlns="http://www.w3.org/2000/svg" xmlns:xlink="http://www.w3.org/1999/xlink" x="0px" y="0px"
	 viewBox="0 0 64 48" enable-background="new 0 0 64 48" xml:space="preserve">
<g>
	<polygon fill="#CC291F" points="32,0.4 63.6,16.2 63.6,18.2 47.6,31.8 16,47.6 0.4,39.8 0.4,16.2 	"/>
	<polygon opacity="0.19" points="47.6,31.8 16,47.6 32,34 32,32 63.6,16.2 63.6,18.2 	"/>
	<polygon opacity="0.19" points="32,34 63.6,18.2 47.6,31.8 16,47.6 	"/>
	<polygon opacity="0.11" points="0.4,39.8 16,47.6 32,34 32,32 0.4,16.2 	"/>
	<polygon opacity="0.29" points="46,23 32,30 18,23 46,9 	"/>
	<polygon opacity="0.11" points="60,16 46,23 46,9 	"/>
	<polygon fill="#CC291F" points="32,30 24,26 24,21 40,21 40,26 	"/>
	<polygon opacity="0.25" points="32,30 24,26 24,21 40,21 40,26 	"/>
	<ellipse fill="#CC291F" cx="32" cy="21" rx="8" ry="4"/>
	<ellipse opacity="0.25" cx="32" cy="21" rx="6" ry="3"/>
	<path opacity="0.25" d="M40,5v3c0,2.2-3.6,4-8,4s-8-1.8-8-4V5L40,5z"/>
	<ellipse fill="#CC291F" cx="32" cy="5" rx="8" ry="4"/>
	<polygon fill="#CC291F" points="56,18 40,26 40,13 56,13 	"/>
	<polygon opacity="0.25" points="56,18 40,26 40,13 56,13 	"/>
	<ellipse fill="#CC291F" cx="48" cy="13" rx="8" ry="4"/>
	<path opacity="0.25" d="M24,13v3c0,2.2-3.6,4-8,4s-8-1.8-8-4v-3H24z"/>
	<ellipse fill="#CC291F" cx="16" cy="13" rx="8" ry="4"/>
	<ellipse opacity="0.25" cx="48" cy="13" rx="6" ry="3"/>
</g>
</svg>
