<?xml version="1.0" encoding="utf-8"?>
<!-- Generator: Adobe Illustrator 18.1.0, SVG Export Plug-In . SVG Version: 6.00 Build 0)  -->
<svg version="1.1" id="Layer_1" xmlns="http://www.w3.org/2000/svg" xmlns:xlink="http://www.w3.org/1999/xlink" x="0px" y="0px"
	 viewBox="0 0 64 56" enable-background="new 0 0 64 56" xml:space="preserve">
<g>
	<polygon fill="#CC291F" points="47.6,8.2 32,0.4 16.4,8.2 0.4,38.2 0.4,39.8 32,55.6 63.6,39.8 63.6,38.2 	"/>
	<polygon opacity="9.000000e-002" points="0.4,39.8 32,55.6 32,16 16.4,8.2 0.4,38.2 	"/>
	<polygon opacity="9.000000e-002" points="0.4,39.8 32,55.6 32,54 0.4,38.2 	"/>
	<path opacity="0.25" d="M24,5v3c0,2.2,3.6,4,8,4s8-1.8,8-4V5H24z"/>
	<ellipse fill="#CC291F" cx="32" cy="5" rx="8" ry="4"/>
	<polygon opacity="0.19" points="63.6,39.8 32,55.6 32,16 47.6,8.2 63.6,38.2 	"/>
	<polygon opacity="0.19" points="63.6,39.8 32,55.6 32,54 63.6,38.2 	"/>
</g>
</svg>
