<?xml version="1.0" encoding="utf-8"?>
<!-- Generator: Adobe Illustrator 18.1.0, SVG Export Plug-In . SVG Version: 6.00 Build 0)  -->
<svg version="1.1" id="Layer_1" xmlns="http://www.w3.org/2000/svg" xmlns:xlink="http://www.w3.org/1999/xlink" x="0px" y="0px"
	 viewBox="0 0 48 48" enable-background="new 0 0 48 48" xml:space="preserve">
<g>
	<polygon fill="#CC291F" points="16,0.4 31.6,8.2 47.6,38.2 47.6,39.8 32,47.6 0.4,31.8 0.4,8.2 	"/>
	<polygon opacity="0.19" points="47.6,39.8 32,47.6 32,46 16,16 31.6,8.2 47.6,38.2 	"/>
	<polygon opacity="0.19" points="47.6,39.8 32,47.6 32,46 47.6,38.2 	"/>
	<polygon opacity="0.11" points="0.4,31.8 32,47.6 32,46 16,16 0.4,8.2 	"/>
	<path opacity="0.25" d="M24,5v3c0,2.2-3.6,4-8,4s-8-1.8-8-4V5H24z"/>
	<ellipse fill="#CC291F" cx="16" cy="5" rx="8" ry="4"/>
</g>
</svg>
