<?xml version="1.0" encoding="utf-8"?>
<!-- Generator: Adobe Illustrator 18.1.0, SVG Export Plug-In . SVG Version: 6.00 Build 0)  -->
<svg version="1.1" id="Layer_1" xmlns="http://www.w3.org/2000/svg" xmlns:xlink="http://www.w3.org/1999/xlink" x="0px" y="0px"
	 viewBox="0 0 64 56" enable-background="new 0 0 64 56" xml:space="preserve">
<g>
	<polygon fill="#CC291F" points="32,0.4 63.6,16.2 63.6,39.8 32,55.6 16.4,47.8 0.4,17.8 0.4,16.2 	"/>
	<polygon opacity="0.29" points="63.6,39.8 32,55.6 32,32 63.6,16.2 	"/>
	<polygon opacity="0.11" points="16.4,47.8 32,55.6 32,32 0.4,16.2 0.4,17.8 	"/>
	<polygon opacity="0.29" points="32,16 18,23 4,16 32,2 	"/>
	<polygon opacity="0.11" points="46,9 32,16 32,2 	"/>
	<polygon fill="#CC291F" points="18,23 10,19 10,14 26,14 26,19 	"/>
	<polygon opacity="0.25" points="18,23 10,19 10,14 26,14 26,19 	"/>
	<ellipse fill="#CC291F" cx="18" cy="14" rx="8" ry="4"/>
	<ellipse opacity="0.25" cx="18" cy="14" rx="6" ry="3"/>
	<polygon fill="#CC291F" points="42,11 26,19 26,6 42,6 	"/>
	<polygon opacity="0.25" points="42,11 26,19 26,6 42,6 	"/>
	<ellipse fill="#CC291F" cx="34" cy="6" rx="8" ry="4"/>
	<ellipse opacity="0.25" cx="34" cy="6" rx="6" ry="3"/>
	<path opacity="0.25" d="M40,21v3c0,2.2-3.6,4-8,4s-8-1.8-8-4v-3H40z"/>
	<ellipse fill="#CC291F" cx="32" cy="21" rx="8" ry="4"/>
	<path opacity="0.25" d="M56,13v3c0,2.2-3.6,4-8,4s-8-1.8-8-4v-3H56z"/>
	<ellipse fill="#CC291F" cx="48" cy="13" rx="8" ry="4"/>
</g>
</svg>
