<?xml version="1.0" encoding="utf-8"?>
<!-- Generator: Adobe Illustrator 18.1.0, SVG Export Plug-In . SVG Version: 6.00 Build 0)  -->
<svg version="1.1" id="Layer_1" xmlns="http://www.w3.org/2000/svg" xmlns:xlink="http://www.w3.org/1999/xlink" x="0px" y="0px"
	 viewBox="0 0 512 264" enable-background="new 0 0 512 264" xml:space="preserve">
<g>
	<polygon fill="#CC291F" points="256,0 0,128 0,136 256,264 512,136 512,128 	"/>
	<path opacity="0.25" d="M248,21v3c0,2.2,3.6,4,8,4s8-1.8,8-4v-3H248z"/>
	<ellipse fill="#CC291F" cx="256" cy="21" rx="8" ry="4"/>
	<path opacity="0.25" d="M248,5v3c0,2.2,3.6,4,8,4s8-1.8,8-4V5H248z"/>
	<ellipse fill="#CC291F" cx="256" cy="5" rx="8" ry="4"/>
	<path opacity="0.25" d="M232,13v3c0,2.2,3.6,4,8,4s8-1.8,8-4v-3H232z"/>
	<ellipse fill="#CC291F" cx="240" cy="13" rx="8" ry="4"/>
	<path opacity="0.25" d="M264,13v3c0,2.2,3.6,4,8,4s8-1.8,8-4v-3H264z"/>
	<ellipse fill="#CC291F" cx="272" cy="13" rx="8" ry="4"/>
	<polygon opacity="0.11" points="0,136 256,264 256,256 0,128 	"/>
	<polygon opacity="0.29" points="512,136 256,264 256,256 512,128 	"/>
	<path opacity="0.25" d="M280,37v3c0,2.2,3.6,4,8,4s8-1.8,8-4v-3H280z"/>
	<ellipse fill="#CC291F" cx="288" cy="37" rx="8" ry="4"/>
	<path opacity="0.25" d="M280,21v3c0,2.2,3.6,4,8,4s8-1.8,8-4v-3H280z"/>
	<ellipse fill="#CC291F" cx="288" cy="21" rx="8" ry="4"/>
	<path opacity="0.25" d="M264,29v3c0,2.2,3.6,4,8,4s8-1.8,8-4v-3H264z"/>
	<ellipse fill="#CC291F" cx="272" cy="29" rx="8" ry="4"/>
	<path opacity="0.25" d="M296,29v3c0,2.2,3.6,4,8,4s8-1.8,8-4v-3H296z"/>
	<ellipse fill="#CC291F" cx="304" cy="29" rx="8" ry="4"/>
	<path opacity="0.25" d="M312,53v3c0,2.2,3.6,4,8,4s8-1.8,8-4v-3H312z"/>
	<ellipse fill="#CC291F" cx="320" cy="53" rx="8" ry="4"/>
	<path opacity="0.25" d="M312,37v3c0,2.2,3.6,4,8,4s8-1.8,8-4v-3H312z"/>
	<ellipse fill="#CC291F" cx="320" cy="37" rx="8" ry="4"/>
	<path opacity="0.25" d="M296,45v3c0,2.2,3.6,4,8,4s8-1.8,8-4v-3H296z"/>
	<ellipse fill="#CC291F" cx="304" cy="45" rx="8" ry="4"/>
	<path opacity="0.25" d="M328,45v3c0,2.2,3.6,4,8,4s8-1.8,8-4v-3H328z"/>
	<ellipse fill="#CC291F" cx="336" cy="45" rx="8" ry="4"/>
	<path opacity="0.25" d="M344,69v3c0,2.2,3.6,4,8,4s8-1.8,8-4v-3H344z"/>
	<ellipse fill="#CC291F" cx="352" cy="69" rx="8" ry="4"/>
	<path opacity="0.25" d="M344,53v3c0,2.2,3.6,4,8,4s8-1.8,8-4v-3H344z"/>
	<ellipse fill="#CC291F" cx="352" cy="53" rx="8" ry="4"/>
	<path opacity="0.25" d="M328,61v3c0,2.2,3.6,4,8,4s8-1.8,8-4v-3H328z"/>
	<ellipse fill="#CC291F" cx="336" cy="61" rx="8" ry="4"/>
	<path opacity="0.25" d="M360,61v3c0,2.2,3.6,4,8,4s8-1.8,8-4v-3H360z"/>
	<ellipse fill="#CC291F" cx="368" cy="61" rx="8" ry="4"/>
	<path opacity="0.25" d="M376,85v3c0,2.2,3.6,4,8,4s8-1.8,8-4v-3H376z"/>
	<ellipse fill="#CC291F" cx="384" cy="85" rx="8" ry="4"/>
	<path opacity="0.25" d="M376,69v3c0,2.2,3.6,4,8,4s8-1.8,8-4v-3H376z"/>
	<ellipse fill="#CC291F" cx="384" cy="69" rx="8" ry="4"/>
	<path opacity="0.25" d="M360,77v3c0,2.2,3.6,4,8,4s8-1.8,8-4v-3H360z"/>
	<ellipse fill="#CC291F" cx="368" cy="77" rx="8" ry="4"/>
	<path opacity="0.25" d="M392,77v3c0,2.2,3.6,4,8,4s8-1.8,8-4v-3H392z"/>
	<ellipse fill="#CC291F" cx="400" cy="77" rx="8" ry="4"/>
	<path opacity="0.25" d="M216,37v3c0,2.2,3.6,4,8,4s8-1.8,8-4v-3H216z"/>
	<ellipse fill="#CC291F" cx="224" cy="37" rx="8" ry="4"/>
	<path opacity="0.25" d="M216,21v3c0,2.2,3.6,4,8,4s8-1.8,8-4v-3H216z"/>
	<ellipse fill="#CC291F" cx="224" cy="21" rx="8" ry="4"/>
	<path opacity="0.25" d="M200,29v3c0,2.2,3.6,4,8,4s8-1.8,8-4v-3H200z"/>
	<ellipse fill="#CC291F" cx="208" cy="29" rx="8" ry="4"/>
	<path opacity="0.25" d="M232,29v3c0,2.2,3.6,4,8,4s8-1.8,8-4v-3H232z"/>
	<ellipse fill="#CC291F" cx="240" cy="29" rx="8" ry="4"/>
	<path opacity="0.25" d="M248,53v3c0,2.2,3.6,4,8,4s8-1.8,8-4v-3H248z"/>
	<ellipse fill="#CC291F" cx="256" cy="53" rx="8" ry="4"/>
	<path opacity="0.25" d="M248,37v3c0,2.2,3.6,4,8,4s8-1.8,8-4v-3H248z"/>
	<ellipse fill="#CC291F" cx="256" cy="37" rx="8" ry="4"/>
	<path opacity="0.25" d="M232,45v3c0,2.2,3.6,4,8,4s8-1.8,8-4v-3H232z"/>
	<ellipse fill="#CC291F" cx="240" cy="45" rx="8" ry="4"/>
	<path opacity="0.25" d="M264,45v3c0,2.2,3.6,4,8,4s8-1.8,8-4v-3H264z"/>
	<ellipse fill="#CC291F" cx="272" cy="45" rx="8" ry="4"/>
	<path opacity="0.25" d="M280,69v3c0,2.2,3.6,4,8,4s8-1.8,8-4v-3H280z"/>
	<ellipse fill="#CC291F" cx="288" cy="69" rx="8" ry="4"/>
	<path opacity="0.25" d="M280,53v3c0,2.2,3.6,4,8,4s8-1.8,8-4v-3H280z"/>
	<ellipse fill="#CC291F" cx="288" cy="53" rx="8" ry="4"/>
	<path opacity="0.25" d="M264,61v3c0,2.2,3.6,4,8,4s8-1.8,8-4v-3H264z"/>
	<ellipse fill="#CC291F" cx="272" cy="61" rx="8" ry="4"/>
	<path opacity="0.25" d="M296,61v3c0,2.2,3.6,4,8,4s8-1.8,8-4v-3H296z"/>
	<ellipse fill="#CC291F" cx="304" cy="61" rx="8" ry="4"/>
	<path opacity="0.25" d="M312,85v3c0,2.2,3.6,4,8,4s8-1.8,8-4v-3H312z"/>
	<ellipse fill="#CC291F" cx="320" cy="85" rx="8" ry="4"/>
	<path opacity="0.25" d="M312,69v3c0,2.2,3.6,4,8,4s8-1.8,8-4v-3H312z"/>
	<ellipse fill="#CC291F" cx="320" cy="69" rx="8" ry="4"/>
	<path opacity="0.25" d="M296,77v3c0,2.2,3.6,4,8,4s8-1.8,8-4v-3H296z"/>
	<ellipse fill="#CC291F" cx="304" cy="77" rx="8" ry="4"/>
	<path opacity="0.25" d="M328,77v3c0,2.2,3.6,4,8,4s8-1.8,8-4v-3H328z"/>
	<ellipse fill="#CC291F" cx="336" cy="77" rx="8" ry="4"/>
	<path opacity="0.25" d="M344,101v3c0,2.2,3.6,4,8,4s8-1.8,8-4v-3H344z"/>
	<ellipse fill="#CC291F" cx="352" cy="101" rx="8" ry="4"/>
	<path opacity="0.25" d="M344,85v3c0,2.2,3.6,4,8,4s8-1.8,8-4v-3H344z"/>
	<ellipse fill="#CC291F" cx="352" cy="85" rx="8" ry="4"/>
	<path opacity="0.25" d="M328,93v3c0,2.2,3.6,4,8,4s8-1.8,8-4v-3H328z"/>
	<ellipse fill="#CC291F" cx="336" cy="93" rx="8" ry="4"/>
	<path opacity="0.25" d="M360,93v3c0,2.2,3.6,4,8,4s8-1.8,8-4v-3H360z"/>
	<ellipse fill="#CC291F" cx="368" cy="93" rx="8" ry="4"/>
	<path opacity="0.25" d="M184,53v3c0,2.2,3.6,4,8,4s8-1.8,8-4v-3H184z"/>
	<ellipse fill="#CC291F" cx="192" cy="53" rx="8" ry="4"/>
	<path opacity="0.25" d="M184,37v3c0,2.2,3.6,4,8,4s8-1.8,8-4v-3H184z"/>
	<ellipse fill="#CC291F" cx="192" cy="37" rx="8" ry="4"/>
	<path opacity="0.25" d="M168,45v3c0,2.2,3.6,4,8,4s8-1.8,8-4v-3H168z"/>
	<ellipse fill="#CC291F" cx="176" cy="45" rx="8" ry="4"/>
	<path opacity="0.25" d="M200,45v3c0,2.2,3.6,4,8,4s8-1.8,8-4v-3H200z"/>
	<ellipse fill="#CC291F" cx="208" cy="45" rx="8" ry="4"/>
	<path opacity="0.25" d="M216,69v3c0,2.2,3.6,4,8,4s8-1.8,8-4v-3H216z"/>
	<ellipse fill="#CC291F" cx="224" cy="69" rx="8" ry="4"/>
	<path opacity="0.25" d="M216,53v3c0,2.2,3.6,4,8,4s8-1.8,8-4v-3H216z"/>
	<ellipse fill="#CC291F" cx="224" cy="53" rx="8" ry="4"/>
	<path opacity="0.25" d="M200,61v3c0,2.2,3.6,4,8,4s8-1.8,8-4v-3H200z"/>
	<ellipse fill="#CC291F" cx="208" cy="61" rx="8" ry="4"/>
	<path opacity="0.25" d="M232,61v3c0,2.2,3.6,4,8,4s8-1.8,8-4v-3H232z"/>
	<ellipse fill="#CC291F" cx="240" cy="61" rx="8" ry="4"/>
	<path opacity="0.25" d="M248,85v3c0,2.2,3.6,4,8,4s8-1.8,8-4v-3H248z"/>
	<ellipse fill="#CC291F" cx="256" cy="85" rx="8" ry="4"/>
	<path opacity="0.25" d="M248,69v3c0,2.2,3.6,4,8,4s8-1.8,8-4v-3H248z"/>
	<ellipse fill="#CC291F" cx="256" cy="69" rx="8" ry="4"/>
	<path opacity="0.25" d="M232,77v3c0,2.2,3.6,4,8,4s8-1.8,8-4v-3H232z"/>
	<ellipse fill="#CC291F" cx="240" cy="77" rx="8" ry="4"/>
	<path opacity="0.25" d="M264,77v3c0,2.2,3.6,4,8,4s8-1.8,8-4v-3H264z"/>
	<ellipse fill="#CC291F" cx="272" cy="77" rx="8" ry="4"/>
	<path opacity="0.25" d="M280,101v3c0,2.2,3.6,4,8,4s8-1.8,8-4v-3H280z"/>
	<ellipse fill="#CC291F" cx="288" cy="101" rx="8" ry="4"/>
	<path opacity="0.25" d="M280,85v3c0,2.2,3.6,4,8,4s8-1.8,8-4v-3H280z"/>
	<ellipse fill="#CC291F" cx="288" cy="85" rx="8" ry="4"/>
	<path opacity="0.25" d="M264,93v3c0,2.2,3.6,4,8,4s8-1.8,8-4v-3H264z"/>
	<ellipse fill="#CC291F" cx="272" cy="93" rx="8" ry="4"/>
	<path opacity="0.25" d="M296,93v3c0,2.2,3.6,4,8,4s8-1.8,8-4v-3H296z"/>
	<ellipse fill="#CC291F" cx="304" cy="93" rx="8" ry="4"/>
	<path opacity="0.25" d="M312,117v3c0,2.2,3.6,4,8,4s8-1.8,8-4v-3H312z"/>
	<ellipse fill="#CC291F" cx="320" cy="117" rx="8" ry="4"/>
	<path opacity="0.25" d="M312,101v3c0,2.2,3.6,4,8,4s8-1.8,8-4v-3H312z"/>
	<ellipse fill="#CC291F" cx="320" cy="101" rx="8" ry="4"/>
	<path opacity="0.25" d="M296,109v3c0,2.2,3.6,4,8,4s8-1.8,8-4v-3H296z"/>
	<ellipse fill="#CC291F" cx="304" cy="109" rx="8" ry="4"/>
	<path opacity="0.25" d="M328,109v3c0,2.2,3.6,4,8,4s8-1.8,8-4v-3H328z"/>
	<ellipse fill="#CC291F" cx="336" cy="109" rx="8" ry="4"/>
	<path opacity="0.25" d="M152,69v3c0,2.2,3.6,4,8,4s8-1.8,8-4v-3H152z"/>
	<ellipse fill="#CC291F" cx="160" cy="69" rx="8" ry="4"/>
	<path opacity="0.25" d="M152,53v3c0,2.2,3.6,4,8,4s8-1.8,8-4v-3H152z"/>
	<ellipse fill="#CC291F" cx="160" cy="53" rx="8" ry="4"/>
	<path opacity="0.25" d="M136,61v3c0,2.2,3.6,4,8,4s8-1.8,8-4v-3H136z"/>
	<ellipse fill="#CC291F" cx="144" cy="61" rx="8" ry="4"/>
	<path opacity="0.25" d="M168,61v3c0,2.2,3.6,4,8,4s8-1.8,8-4v-3H168z"/>
	<ellipse fill="#CC291F" cx="176" cy="61" rx="8" ry="4"/>
	<path opacity="0.25" d="M184,85v3c0,2.2,3.6,4,8,4s8-1.8,8-4v-3H184z"/>
	<ellipse fill="#CC291F" cx="192" cy="85" rx="8" ry="4"/>
	<path opacity="0.25" d="M184,69v3c0,2.2,3.6,4,8,4s8-1.8,8-4v-3H184z"/>
	<ellipse fill="#CC291F" cx="192" cy="69" rx="8" ry="4"/>
	<path opacity="0.25" d="M168,77v3c0,2.2,3.6,4,8,4s8-1.8,8-4v-3H168z"/>
	<ellipse fill="#CC291F" cx="176" cy="77" rx="8" ry="4"/>
	<path opacity="0.25" d="M200,77v3c0,2.2,3.6,4,8,4s8-1.8,8-4v-3H200z"/>
	<ellipse fill="#CC291F" cx="208" cy="77" rx="8" ry="4"/>
	<path opacity="0.25" d="M216,101v3c0,2.2,3.6,4,8,4s8-1.8,8-4v-3H216z"/>
	<ellipse fill="#CC291F" cx="224" cy="101" rx="8" ry="4"/>
	<path opacity="0.25" d="M216,85v3c0,2.2,3.6,4,8,4s8-1.8,8-4v-3H216z"/>
	<ellipse fill="#CC291F" cx="224" cy="85" rx="8" ry="4"/>
	<path opacity="0.25" d="M200,93v3c0,2.2,3.6,4,8,4s8-1.8,8-4v-3H200z"/>
	<ellipse fill="#CC291F" cx="208" cy="93" rx="8" ry="4"/>
	<path opacity="0.25" d="M232,93v3c0,2.2,3.6,4,8,4s8-1.8,8-4v-3H232z"/>
	<ellipse fill="#CC291F" cx="240" cy="93" rx="8" ry="4"/>
	<path opacity="0.25" d="M248,117v3c0,2.2,3.6,4,8,4s8-1.8,8-4v-3H248z"/>
	<ellipse fill="#CC291F" cx="256" cy="117" rx="8" ry="4"/>
	<path opacity="0.25" d="M248,101v3c0,2.2,3.6,4,8,4s8-1.8,8-4v-3H248z"/>
	<ellipse fill="#CC291F" cx="256" cy="101" rx="8" ry="4"/>
	<path opacity="0.25" d="M232,109v3c0,2.2,3.6,4,8,4s8-1.8,8-4v-3H232z"/>
	<ellipse fill="#CC291F" cx="240" cy="109" rx="8" ry="4"/>
	<path opacity="0.25" d="M264,109v3c0,2.2,3.6,4,8,4s8-1.8,8-4v-3H264z"/>
	<ellipse fill="#CC291F" cx="272" cy="109" rx="8" ry="4"/>
	<path opacity="0.25" d="M280,133v3c0,2.2,3.6,4,8,4s8-1.8,8-4v-3H280z"/>
	<ellipse fill="#CC291F" cx="288" cy="133" rx="8" ry="4"/>
	<path opacity="0.25" d="M280,117v3c0,2.2,3.6,4,8,4s8-1.8,8-4v-3H280z"/>
	<ellipse fill="#CC291F" cx="288" cy="117" rx="8" ry="4"/>
	<path opacity="0.25" d="M264,125v3c0,2.2,3.6,4,8,4s8-1.8,8-4v-3H264z"/>
	<ellipse fill="#CC291F" cx="272" cy="125" rx="8" ry="4"/>
	<path opacity="0.25" d="M296,125v3c0,2.2,3.6,4,8,4s8-1.8,8-4v-3H296z"/>
	<ellipse fill="#CC291F" cx="304" cy="125" rx="8" ry="4"/>
	<path opacity="0.25" d="M120,85v3c0,2.2,3.6,4,8,4s8-1.8,8-4v-3H120z"/>
	<ellipse fill="#CC291F" cx="128" cy="85" rx="8" ry="4"/>
	<path opacity="0.25" d="M120,69v3c0,2.2,3.6,4,8,4s8-1.8,8-4v-3H120z"/>
	<ellipse fill="#CC291F" cx="128" cy="69" rx="8" ry="4"/>
	<path opacity="0.25" d="M104,77v3c0,2.2,3.6,4,8,4s8-1.8,8-4v-3H104z"/>
	<ellipse fill="#CC291F" cx="112" cy="77" rx="8" ry="4"/>
	<path opacity="0.25" d="M136,77v3c0,2.2,3.6,4,8,4s8-1.8,8-4v-3H136z"/>
	<ellipse fill="#CC291F" cx="144" cy="77" rx="8" ry="4"/>
	<path opacity="0.25" d="M152,101v3c0,2.2,3.6,4,8,4s8-1.8,8-4v-3H152z"/>
	<ellipse fill="#CC291F" cx="160" cy="101" rx="8" ry="4"/>
	<path opacity="0.25" d="M152,85v3c0,2.2,3.6,4,8,4s8-1.8,8-4v-3H152z"/>
	<ellipse fill="#CC291F" cx="160" cy="85" rx="8" ry="4"/>
	<path opacity="0.25" d="M136,93v3c0,2.2,3.6,4,8,4s8-1.8,8-4v-3H136z"/>
	<ellipse fill="#CC291F" cx="144" cy="93" rx="8" ry="4"/>
	<path opacity="0.25" d="M168,93v3c0,2.2,3.6,4,8,4s8-1.8,8-4v-3H168z"/>
	<ellipse fill="#CC291F" cx="176" cy="93" rx="8" ry="4"/>
	<path opacity="0.25" d="M184,117v3c0,2.2,3.6,4,8,4s8-1.8,8-4v-3H184z"/>
	<ellipse fill="#CC291F" cx="192" cy="117" rx="8" ry="4"/>
	<path opacity="0.25" d="M184,101v3c0,2.2,3.6,4,8,4s8-1.8,8-4v-3H184z"/>
	<ellipse fill="#CC291F" cx="192" cy="101" rx="8" ry="4"/>
	<path opacity="0.25" d="M168,109v3c0,2.2,3.6,4,8,4s8-1.8,8-4v-3H168z"/>
	<ellipse fill="#CC291F" cx="176" cy="109" rx="8" ry="4"/>
	<path opacity="0.25" d="M200,109v3c0,2.2,3.6,4,8,4s8-1.8,8-4v-3H200z"/>
	<ellipse fill="#CC291F" cx="208" cy="109" rx="8" ry="4"/>
	<path opacity="0.25" d="M216,133v3c0,2.2,3.6,4,8,4s8-1.8,8-4v-3H216z"/>
	<ellipse fill="#CC291F" cx="224" cy="133" rx="8" ry="4"/>
	<path opacity="0.25" d="M216,117v3c0,2.2,3.6,4,8,4s8-1.8,8-4v-3H216z"/>
	<ellipse fill="#CC291F" cx="224" cy="117" rx="8" ry="4"/>
	<path opacity="0.25" d="M200,125v3c0,2.2,3.6,4,8,4s8-1.8,8-4v-3H200z"/>
	<ellipse fill="#CC291F" cx="208" cy="125" rx="8" ry="4"/>
	<path opacity="0.25" d="M232,125v3c0,2.2,3.6,4,8,4s8-1.8,8-4v-3H232z"/>
	<ellipse fill="#CC291F" cx="240" cy="125" rx="8" ry="4"/>
	<path opacity="0.25" d="M248,149v3c0,2.2,3.6,4,8,4s8-1.8,8-4v-3H248z"/>
	<ellipse fill="#CC291F" cx="256" cy="149" rx="8" ry="4"/>
	<path opacity="0.25" d="M248,133v3c0,2.2,3.6,4,8,4s8-1.8,8-4v-3H248z"/>
	<ellipse fill="#CC291F" cx="256" cy="133" rx="8" ry="4"/>
	<path opacity="0.25" d="M232,141v3c0,2.2,3.6,4,8,4s8-1.8,8-4v-3H232z"/>
	<ellipse fill="#CC291F" cx="240" cy="141" rx="8" ry="4"/>
	<path opacity="0.25" d="M264,141v3c0,2.2,3.6,4,8,4s8-1.8,8-4v-3H264z"/>
	<ellipse fill="#CC291F" cx="272" cy="141" rx="8" ry="4"/>
	<path opacity="0.25" d="M88,101v3c0,2.2,3.6,4,8,4s8-1.8,8-4v-3H88z"/>
	<ellipse fill="#CC291F" cx="96" cy="101" rx="8" ry="4"/>
	<path opacity="0.25" d="M88,85v3c0,2.2,3.6,4,8,4s8-1.8,8-4v-3H88z"/>
	<ellipse fill="#CC291F" cx="96" cy="85" rx="8" ry="4"/>
	<path opacity="0.25" d="M72,93v3c0,2.2,3.6,4,8,4s8-1.8,8-4v-3H72z"/>
	<ellipse fill="#CC291F" cx="80" cy="93" rx="8" ry="4"/>
	<path opacity="0.25" d="M104,93v3c0,2.2,3.6,4,8,4s8-1.8,8-4v-3H104z"/>
	<ellipse fill="#CC291F" cx="112" cy="93" rx="8" ry="4"/>
	<path opacity="0.25" d="M120,117v3c0,2.2,3.6,4,8,4s8-1.8,8-4v-3H120z"/>
	<ellipse fill="#CC291F" cx="128" cy="117" rx="8" ry="4"/>
	<path opacity="0.25" d="M120,101v3c0,2.2,3.6,4,8,4s8-1.8,8-4v-3H120z"/>
	<ellipse fill="#CC291F" cx="128" cy="101" rx="8" ry="4"/>
	<path opacity="0.25" d="M104,109v3c0,2.2,3.6,4,8,4s8-1.8,8-4v-3H104z"/>
	<ellipse fill="#CC291F" cx="112" cy="109" rx="8" ry="4"/>
	<path opacity="0.25" d="M136,109v3c0,2.2,3.6,4,8,4s8-1.8,8-4v-3H136z"/>
	<ellipse fill="#CC291F" cx="144" cy="109" rx="8" ry="4"/>
	<path opacity="0.25" d="M152,133v3c0,2.2,3.6,4,8,4s8-1.8,8-4v-3H152z"/>
	<ellipse fill="#CC291F" cx="160" cy="133" rx="8" ry="4"/>
	<path opacity="0.25" d="M152,117v3c0,2.2,3.6,4,8,4s8-1.8,8-4v-3H152z"/>
	<ellipse fill="#CC291F" cx="160" cy="117" rx="8" ry="4"/>
	<path opacity="0.25" d="M136,125v3c0,2.2,3.6,4,8,4s8-1.8,8-4v-3H136z"/>
	<ellipse fill="#CC291F" cx="144" cy="125" rx="8" ry="4"/>
	<path opacity="0.25" d="M168,125v3c0,2.2,3.6,4,8,4s8-1.8,8-4v-3H168z"/>
	<ellipse fill="#CC291F" cx="176" cy="125" rx="8" ry="4"/>
	<path opacity="0.25" d="M184,149v3c0,2.2,3.6,4,8,4s8-1.8,8-4v-3H184z"/>
	<ellipse fill="#CC291F" cx="192" cy="149" rx="8" ry="4"/>
	<path opacity="0.25" d="M184,133v3c0,2.2,3.6,4,8,4s8-1.8,8-4v-3H184z"/>
	<ellipse fill="#CC291F" cx="192" cy="133" rx="8" ry="4"/>
	<path opacity="0.25" d="M168,141v3c0,2.2,3.6,4,8,4s8-1.8,8-4v-3H168z"/>
	<ellipse fill="#CC291F" cx="176" cy="141" rx="8" ry="4"/>
	<path opacity="0.25" d="M200,141v3c0,2.2,3.6,4,8,4s8-1.8,8-4v-3H200z"/>
	<ellipse fill="#CC291F" cx="208" cy="141" rx="8" ry="4"/>
	<path opacity="0.25" d="M216,165v3c0,2.2,3.6,4,8,4s8-1.8,8-4v-3H216z"/>
	<ellipse fill="#CC291F" cx="224" cy="165" rx="8" ry="4"/>
	<path opacity="0.25" d="M216,149v3c0,2.2,3.6,4,8,4s8-1.8,8-4v-3H216z"/>
	<ellipse fill="#CC291F" cx="224" cy="149" rx="8" ry="4"/>
	<path opacity="0.25" d="M200,157v3c0,2.2,3.6,4,8,4s8-1.8,8-4v-3H200z"/>
	<ellipse fill="#CC291F" cx="208" cy="157" rx="8" ry="4"/>
	<path opacity="0.25" d="M232,157v3c0,2.2,3.6,4,8,4s8-1.8,8-4v-3H232z"/>
	<ellipse fill="#CC291F" cx="240" cy="157" rx="8" ry="4"/>
	<path opacity="0.25" d="M56,117v3c0,2.2,3.6,4,8,4s8-1.8,8-4v-3H56z"/>
	<ellipse fill="#CC291F" cx="64" cy="117" rx="8" ry="4"/>
	<path opacity="0.25" d="M56,101v3c0,2.2,3.6,4,8,4s8-1.8,8-4v-3H56z"/>
	<ellipse fill="#CC291F" cx="64" cy="101" rx="8" ry="4"/>
	<path opacity="0.25" d="M40,109v3c0,2.2,3.6,4,8,4s8-1.8,8-4v-3H40z"/>
	<ellipse fill="#CC291F" cx="48" cy="109" rx="8" ry="4"/>
	<path opacity="0.25" d="M72,109v3c0,2.2,3.6,4,8,4s8-1.8,8-4v-3H72z"/>
	<ellipse fill="#CC291F" cx="80" cy="109" rx="8" ry="4"/>
	<path opacity="0.25" d="M88,133v3c0,2.2,3.6,4,8,4s8-1.8,8-4v-3H88z"/>
	<ellipse fill="#CC291F" cx="96" cy="133" rx="8" ry="4"/>
	<path opacity="0.25" d="M88,117v3c0,2.2,3.6,4,8,4s8-1.8,8-4v-3H88z"/>
	<ellipse fill="#CC291F" cx="96" cy="117" rx="8" ry="4"/>
	<path opacity="0.25" d="M72,125v3c0,2.2,3.6,4,8,4s8-1.8,8-4v-3H72z"/>
	<ellipse fill="#CC291F" cx="80" cy="125" rx="8" ry="4"/>
	<path opacity="0.25" d="M104,125v3c0,2.2,3.6,4,8,4s8-1.8,8-4v-3H104z"/>
	<ellipse fill="#CC291F" cx="112" cy="125" rx="8" ry="4"/>
	<path opacity="0.25" d="M120,149v3c0,2.2,3.6,4,8,4s8-1.8,8-4v-3H120z"/>
	<ellipse fill="#CC291F" cx="128" cy="149" rx="8" ry="4"/>
	<path opacity="0.25" d="M120,133v3c0,2.2,3.6,4,8,4s8-1.8,8-4v-3H120z"/>
	<ellipse fill="#CC291F" cx="128" cy="133" rx="8" ry="4"/>
	<path opacity="0.25" d="M104,141v3c0,2.2,3.6,4,8,4s8-1.8,8-4v-3H104z"/>
	<ellipse fill="#CC291F" cx="112" cy="141" rx="8" ry="4"/>
	<path opacity="0.25" d="M136,141v3c0,2.2,3.6,4,8,4s8-1.8,8-4v-3H136z"/>
	<ellipse fill="#CC291F" cx="144" cy="141" rx="8" ry="4"/>
	<path opacity="0.25" d="M152,165v3c0,2.2,3.6,4,8,4s8-1.8,8-4v-3H152z"/>
	<ellipse fill="#CC291F" cx="160" cy="165" rx="8" ry="4"/>
	<path opacity="0.25" d="M152,149v3c0,2.2,3.6,4,8,4s8-1.8,8-4v-3H152z"/>
	<ellipse fill="#CC291F" cx="160" cy="149" rx="8" ry="4"/>
	<path opacity="0.25" d="M136,157v3c0,2.2,3.6,4,8,4s8-1.8,8-4v-3H136z"/>
	<ellipse fill="#CC291F" cx="144" cy="157" rx="8" ry="4"/>
	<path opacity="0.25" d="M168,157v3c0,2.2,3.6,4,8,4s8-1.8,8-4v-3H168z"/>
	<ellipse fill="#CC291F" cx="176" cy="157" rx="8" ry="4"/>
	<path opacity="0.25" d="M184,181v3c0,2.2,3.6,4,8,4s8-1.8,8-4v-3H184z"/>
	<ellipse fill="#CC291F" cx="192" cy="181" rx="8" ry="4"/>
	<path opacity="0.25" d="M184,165v3c0,2.2,3.6,4,8,4s8-1.8,8-4v-3H184z"/>
	<ellipse fill="#CC291F" cx="192" cy="165" rx="8" ry="4"/>
	<path opacity="0.25" d="M168,173v3c0,2.2,3.6,4,8,4s8-1.8,8-4v-3H168z"/>
	<ellipse fill="#CC291F" cx="176" cy="173" rx="8" ry="4"/>
	<path opacity="0.25" d="M200,173v3c0,2.2,3.6,4,8,4s8-1.8,8-4v-3H200z"/>
	<ellipse fill="#CC291F" cx="208" cy="173" rx="8" ry="4"/>
	<path opacity="0.25" d="M408,101v3c0,2.2,3.6,4,8,4s8-1.8,8-4v-3H408z"/>
	<ellipse fill="#CC291F" cx="416" cy="101" rx="8" ry="4"/>
	<path opacity="0.25" d="M408,85v3c0,2.2,3.6,4,8,4s8-1.8,8-4v-3H408z"/>
	<ellipse fill="#CC291F" cx="416" cy="85" rx="8" ry="4"/>
	<path opacity="0.25" d="M392,93v3c0,2.2,3.6,4,8,4s8-1.8,8-4v-3H392z"/>
	<ellipse fill="#CC291F" cx="400" cy="93" rx="8" ry="4"/>
	<path opacity="0.25" d="M424,93v3c0,2.2,3.6,4,8,4s8-1.8,8-4v-3H424z"/>
	<ellipse fill="#CC291F" cx="432" cy="93" rx="8" ry="4"/>
	<path opacity="0.25" d="M440,117v3c0,2.2,3.6,4,8,4s8-1.8,8-4v-3H440z"/>
	<ellipse fill="#CC291F" cx="448" cy="117" rx="8" ry="4"/>
	<path opacity="0.25" d="M440,101v3c0,2.2,3.6,4,8,4s8-1.8,8-4v-3H440z"/>
	<ellipse fill="#CC291F" cx="448" cy="101" rx="8" ry="4"/>
	<path opacity="0.25" d="M424,109v3c0,2.2,3.6,4,8,4s8-1.8,8-4v-3H424z"/>
	<ellipse fill="#CC291F" cx="432" cy="109" rx="8" ry="4"/>
	<path opacity="0.25" d="M456,109v3c0,2.2,3.6,4,8,4s8-1.8,8-4v-3H456z"/>
	<ellipse fill="#CC291F" cx="464" cy="109" rx="8" ry="4"/>
	<path opacity="0.25" d="M472,133v3c0,2.2,3.6,4,8,4s8-1.8,8-4v-3H472z"/>
	<ellipse fill="#CC291F" cx="480" cy="133" rx="8" ry="4"/>
	<path opacity="0.25" d="M472,117v3c0,2.2,3.6,4,8,4s8-1.8,8-4v-3H472z"/>
	<ellipse fill="#CC291F" cx="480" cy="117" rx="8" ry="4"/>
	<path opacity="0.25" d="M456,125v3c0,2.2,3.6,4,8,4s8-1.8,8-4v-3H456z"/>
	<ellipse fill="#CC291F" cx="464" cy="125" rx="8" ry="4"/>
	<path opacity="0.25" d="M488,125v3c0,2.2,3.6,4,8,4s8-1.8,8-4v-3H488z"/>
	<ellipse fill="#CC291F" cx="496" cy="125" rx="8" ry="4"/>
	<path opacity="0.25" d="M376,117v3c0,2.2,3.6,4,8,4s8-1.8,8-4v-3H376z"/>
	<ellipse fill="#CC291F" cx="384" cy="117" rx="8" ry="4"/>
	<path opacity="0.25" d="M376,101v3c0,2.2,3.6,4,8,4s8-1.8,8-4v-3H376z"/>
	<ellipse fill="#CC291F" cx="384" cy="101" rx="8" ry="4"/>
	<path opacity="0.25" d="M360,109v3c0,2.2,3.6,4,8,4s8-1.8,8-4v-3H360z"/>
	<ellipse fill="#CC291F" cx="368" cy="109" rx="8" ry="4"/>
	<path opacity="0.25" d="M392,109v3c0,2.2,3.6,4,8,4s8-1.8,8-4v-3H392z"/>
	<ellipse fill="#CC291F" cx="400" cy="109" rx="8" ry="4"/>
	<path opacity="0.25" d="M408,133v3c0,2.2,3.6,4,8,4s8-1.8,8-4v-3H408z"/>
	<ellipse fill="#CC291F" cx="416" cy="133" rx="8" ry="4"/>
	<path opacity="0.25" d="M408,117v3c0,2.2,3.6,4,8,4s8-1.8,8-4v-3H408z"/>
	<ellipse fill="#CC291F" cx="416" cy="117" rx="8" ry="4"/>
	<path opacity="0.25" d="M392,125v3c0,2.2,3.6,4,8,4s8-1.8,8-4v-3H392z"/>
	<ellipse fill="#CC291F" cx="400" cy="125" rx="8" ry="4"/>
	<path opacity="0.25" d="M424,125v3c0,2.2,3.6,4,8,4s8-1.8,8-4v-3H424z"/>
	<ellipse fill="#CC291F" cx="432" cy="125" rx="8" ry="4"/>
	<path opacity="0.25" d="M440,149v3c0,2.2,3.6,4,8,4s8-1.8,8-4v-3H440z"/>
	<ellipse fill="#CC291F" cx="448" cy="149" rx="8" ry="4"/>
	<path opacity="0.25" d="M440,133v3c0,2.2,3.6,4,8,4s8-1.8,8-4v-3H440z"/>
	<ellipse fill="#CC291F" cx="448" cy="133" rx="8" ry="4"/>
	<path opacity="0.25" d="M424,141v3c0,2.2,3.6,4,8,4s8-1.8,8-4v-3H424z"/>
	<ellipse fill="#CC291F" cx="432" cy="141" rx="8" ry="4"/>
	<path opacity="0.25" d="M456,141v3c0,2.2,3.6,4,8,4s8-1.8,8-4v-3H456z"/>
	<ellipse fill="#CC291F" cx="464" cy="141" rx="8" ry="4"/>
	<path opacity="0.25" d="M344,133v3c0,2.2,3.6,4,8,4s8-1.8,8-4v-3H344z"/>
	<ellipse fill="#CC291F" cx="352" cy="133" rx="8" ry="4"/>
	<path opacity="0.25" d="M344,117v3c0,2.2,3.6,4,8,4s8-1.8,8-4v-3H344z"/>
	<ellipse fill="#CC291F" cx="352" cy="117" rx="8" ry="4"/>
	<path opacity="0.25" d="M328,125v3c0,2.2,3.6,4,8,4s8-1.8,8-4v-3H328z"/>
	<ellipse fill="#CC291F" cx="336" cy="125" rx="8" ry="4"/>
	<path opacity="0.25" d="M360,125v3c0,2.2,3.6,4,8,4s8-1.8,8-4v-3H360z"/>
	<ellipse fill="#CC291F" cx="368" cy="125" rx="8" ry="4"/>
	<path opacity="0.25" d="M376,149v3c0,2.2,3.6,4,8,4s8-1.8,8-4v-3H376z"/>
	<ellipse fill="#CC291F" cx="384" cy="149" rx="8" ry="4"/>
	<path opacity="0.25" d="M376,133v3c0,2.2,3.6,4,8,4s8-1.8,8-4v-3H376z"/>
	<ellipse fill="#CC291F" cx="384" cy="133" rx="8" ry="4"/>
	<path opacity="0.25" d="M360,141v3c0,2.2,3.6,4,8,4s8-1.8,8-4v-3H360z"/>
	<ellipse fill="#CC291F" cx="368" cy="141" rx="8" ry="4"/>
	<path opacity="0.25" d="M392,141v3c0,2.2,3.6,4,8,4s8-1.8,8-4v-3H392z"/>
	<ellipse fill="#CC291F" cx="400" cy="141" rx="8" ry="4"/>
	<path opacity="0.25" d="M408,165v3c0,2.2,3.6,4,8,4s8-1.8,8-4v-3H408z"/>
	<ellipse fill="#CC291F" cx="416" cy="165" rx="8" ry="4"/>
	<path opacity="0.25" d="M408,149v3c0,2.2,3.6,4,8,4s8-1.8,8-4v-3H408z"/>
	<ellipse fill="#CC291F" cx="416" cy="149" rx="8" ry="4"/>
	<path opacity="0.25" d="M392,157v3c0,2.2,3.6,4,8,4s8-1.8,8-4v-3H392z"/>
	<ellipse fill="#CC291F" cx="400" cy="157" rx="8" ry="4"/>
	<path opacity="0.25" d="M424,157v3c0,2.2,3.6,4,8,4s8-1.8,8-4v-3H424z"/>
	<ellipse fill="#CC291F" cx="432" cy="157" rx="8" ry="4"/>
	<path opacity="0.25" d="M312,149v3c0,2.2,3.6,4,8,4s8-1.8,8-4v-3H312z"/>
	<ellipse fill="#CC291F" cx="320" cy="149" rx="8" ry="4"/>
	<path opacity="0.25" d="M312,133v3c0,2.2,3.6,4,8,4s8-1.8,8-4v-3H312z"/>
	<ellipse fill="#CC291F" cx="320" cy="133" rx="8" ry="4"/>
	<path opacity="0.25" d="M296,141v3c0,2.2,3.6,4,8,4s8-1.8,8-4v-3H296z"/>
	<ellipse fill="#CC291F" cx="304" cy="141" rx="8" ry="4"/>
	<path opacity="0.25" d="M328,141v3c0,2.2,3.6,4,8,4s8-1.8,8-4v-3H328z"/>
	<ellipse fill="#CC291F" cx="336" cy="141" rx="8" ry="4"/>
	<path opacity="0.25" d="M344,165v3c0,2.2,3.6,4,8,4s8-1.8,8-4v-3H344z"/>
	<ellipse fill="#CC291F" cx="352" cy="165" rx="8" ry="4"/>
	<path opacity="0.25" d="M344,149v3c0,2.2,3.6,4,8,4s8-1.8,8-4v-3H344z"/>
	<ellipse fill="#CC291F" cx="352" cy="149" rx="8" ry="4"/>
	<path opacity="0.25" d="M328,157v3c0,2.2,3.6,4,8,4s8-1.8,8-4v-3H328z"/>
	<ellipse fill="#CC291F" cx="336" cy="157" rx="8" ry="4"/>
	<path opacity="0.25" d="M360,157v3c0,2.2,3.6,4,8,4s8-1.8,8-4v-3H360z"/>
	<ellipse fill="#CC291F" cx="368" cy="157" rx="8" ry="4"/>
	<path opacity="0.25" d="M376,181v3c0,2.2,3.6,4,8,4s8-1.8,8-4v-3H376z"/>
	<ellipse fill="#CC291F" cx="384" cy="181" rx="8" ry="4"/>
	<path opacity="0.25" d="M376,165v3c0,2.2,3.6,4,8,4s8-1.8,8-4v-3H376z"/>
	<ellipse fill="#CC291F" cx="384" cy="165" rx="8" ry="4"/>
	<path opacity="0.25" d="M360,173v3c0,2.2,3.6,4,8,4s8-1.8,8-4v-3H360z"/>
	<ellipse fill="#CC291F" cx="368" cy="173" rx="8" ry="4"/>
	<path opacity="0.25" d="M392,173v3c0,2.2,3.6,4,8,4s8-1.8,8-4v-3H392z"/>
	<ellipse fill="#CC291F" cx="400" cy="173" rx="8" ry="4"/>
	<path opacity="0.25" d="M280,165v3c0,2.2,3.6,4,8,4s8-1.8,8-4v-3H280z"/>
	<ellipse fill="#CC291F" cx="288" cy="165" rx="8" ry="4"/>
	<path opacity="0.25" d="M280,149v3c0,2.2,3.6,4,8,4s8-1.8,8-4v-3H280z"/>
	<ellipse fill="#CC291F" cx="288" cy="149" rx="8" ry="4"/>
	<path opacity="0.25" d="M264,157v3c0,2.2,3.6,4,8,4s8-1.8,8-4v-3H264z"/>
	<ellipse fill="#CC291F" cx="272" cy="157" rx="8" ry="4"/>
	<path opacity="0.25" d="M296,157v3c0,2.2,3.6,4,8,4s8-1.8,8-4v-3H296z"/>
	<ellipse fill="#CC291F" cx="304" cy="157" rx="8" ry="4"/>
	<path opacity="0.25" d="M312,181v3c0,2.2,3.6,4,8,4s8-1.8,8-4v-3H312z"/>
	<ellipse fill="#CC291F" cx="320" cy="181" rx="8" ry="4"/>
	<path opacity="0.25" d="M312,165v3c0,2.2,3.6,4,8,4s8-1.8,8-4v-3H312z"/>
	<ellipse fill="#CC291F" cx="320" cy="165" rx="8" ry="4"/>
	<path opacity="0.25" d="M296,173v3c0,2.2,3.6,4,8,4s8-1.8,8-4v-3H296z"/>
	<ellipse fill="#CC291F" cx="304" cy="173" rx="8" ry="4"/>
	<path opacity="0.25" d="M328,173v3c0,2.2,3.6,4,8,4s8-1.8,8-4v-3H328z"/>
	<ellipse fill="#CC291F" cx="336" cy="173" rx="8" ry="4"/>
	<path opacity="0.25" d="M344,197v3c0,2.2,3.6,4,8,4s8-1.8,8-4v-3H344z"/>
	<ellipse fill="#CC291F" cx="352" cy="197" rx="8" ry="4"/>
	<path opacity="0.25" d="M344,181v3c0,2.2,3.6,4,8,4s8-1.8,8-4v-3H344z"/>
	<ellipse fill="#CC291F" cx="352" cy="181" rx="8" ry="4"/>
	<path opacity="0.25" d="M328,189v3c0,2.2,3.6,4,8,4s8-1.8,8-4v-3H328z"/>
	<ellipse fill="#CC291F" cx="336" cy="189" rx="8" ry="4"/>
	<path opacity="0.25" d="M360,189v3c0,2.2,3.6,4,8,4s8-1.8,8-4v-3H360z"/>
	<ellipse fill="#CC291F" cx="368" cy="189" rx="8" ry="4"/>
	<path opacity="0.25" d="M248,181v3c0,2.2,3.6,4,8,4s8-1.8,8-4v-3H248z"/>
	<ellipse fill="#CC291F" cx="256" cy="181" rx="8" ry="4"/>
	<path opacity="0.25" d="M248,165v3c0,2.2,3.6,4,8,4s8-1.8,8-4v-3H248z"/>
	<ellipse fill="#CC291F" cx="256" cy="165" rx="8" ry="4"/>
	<path opacity="0.25" d="M232,173v3c0,2.2,3.6,4,8,4s8-1.8,8-4v-3H232z"/>
	<ellipse fill="#CC291F" cx="240" cy="173" rx="8" ry="4"/>
	<path opacity="0.25" d="M264,173v3c0,2.2,3.6,4,8,4s8-1.8,8-4v-3H264z"/>
	<ellipse fill="#CC291F" cx="272" cy="173" rx="8" ry="4"/>
	<path opacity="0.25" d="M280,197v3c0,2.2,3.6,4,8,4s8-1.8,8-4v-3H280z"/>
	<ellipse fill="#CC291F" cx="288" cy="197" rx="8" ry="4"/>
	<path opacity="0.25" d="M280,181v3c0,2.2,3.6,4,8,4s8-1.8,8-4v-3H280z"/>
	<ellipse fill="#CC291F" cx="288" cy="181" rx="8" ry="4"/>
	<path opacity="0.25" d="M264,189v3c0,2.2,3.6,4,8,4s8-1.8,8-4v-3H264z"/>
	<ellipse fill="#CC291F" cx="272" cy="189" rx="8" ry="4"/>
	<path opacity="0.25" d="M296,189v3c0,2.2,3.6,4,8,4s8-1.8,8-4v-3H296z"/>
	<ellipse fill="#CC291F" cx="304" cy="189" rx="8" ry="4"/>
	<path opacity="0.25" d="M312,213v3c0,2.2,3.6,4,8,4s8-1.8,8-4v-3H312z"/>
	<ellipse fill="#CC291F" cx="320" cy="213" rx="8" ry="4"/>
	<path opacity="0.25" d="M312,197v3c0,2.2,3.6,4,8,4s8-1.8,8-4v-3H312z"/>
	<ellipse fill="#CC291F" cx="320" cy="197" rx="8" ry="4"/>
	<path opacity="0.25" d="M296,205v3c0,2.2,3.6,4,8,4s8-1.8,8-4v-3H296z"/>
	<ellipse fill="#CC291F" cx="304" cy="205" rx="8" ry="4"/>
	<path opacity="0.25" d="M328,205v3c0,2.2,3.6,4,8,4s8-1.8,8-4v-3H328z"/>
	<ellipse fill="#CC291F" cx="336" cy="205" rx="8" ry="4"/>
	<path opacity="0.25" d="M216,197v3c0,2.2,3.6,4,8,4s8-1.8,8-4v-3H216z"/>
	<ellipse fill="#CC291F" cx="224" cy="197" rx="8" ry="4"/>
	<path opacity="0.25" d="M216,181v3c0,2.2,3.6,4,8,4s8-1.8,8-4v-3H216z"/>
	<ellipse fill="#CC291F" cx="224" cy="181" rx="8" ry="4"/>
	<path opacity="0.25" d="M200,189v3c0,2.2,3.6,4,8,4s8-1.8,8-4v-3H200z"/>
	<ellipse fill="#CC291F" cx="208" cy="189" rx="8" ry="4"/>
	<path opacity="0.25" d="M232,189v3c0,2.2,3.6,4,8,4s8-1.8,8-4v-3H232z"/>
	<ellipse fill="#CC291F" cx="240" cy="189" rx="8" ry="4"/>
	<path opacity="0.25" d="M248,213v3c0,2.2,3.6,4,8,4s8-1.8,8-4v-3H248z"/>
	<ellipse fill="#CC291F" cx="256" cy="213" rx="8" ry="4"/>
	<path opacity="0.25" d="M248,197v3c0,2.2,3.6,4,8,4s8-1.8,8-4v-3H248z"/>
	<ellipse fill="#CC291F" cx="256" cy="197" rx="8" ry="4"/>
	<path opacity="0.25" d="M232,205v3c0,2.2,3.6,4,8,4s8-1.8,8-4v-3H232z"/>
	<ellipse fill="#CC291F" cx="240" cy="205" rx="8" ry="4"/>
	<path opacity="0.25" d="M264,205v3c0,2.2,3.6,4,8,4s8-1.8,8-4v-3H264z"/>
	<ellipse fill="#CC291F" cx="272" cy="205" rx="8" ry="4"/>
	<path opacity="0.25" d="M280,229v3c0,2.2,3.6,4,8,4s8-1.8,8-4v-3H280z"/>
	<ellipse fill="#CC291F" cx="288" cy="229" rx="8" ry="4"/>
	<path opacity="0.25" d="M280,213v3c0,2.2,3.6,4,8,4s8-1.8,8-4v-3H280z"/>
	<ellipse fill="#CC291F" cx="288" cy="213" rx="8" ry="4"/>
	<path opacity="0.25" d="M264,221v3c0,2.2,3.6,4,8,4s8-1.8,8-4v-3H264z"/>
	<ellipse fill="#CC291F" cx="272" cy="221" rx="8" ry="4"/>
	<path opacity="0.25" d="M296,221v3c0,2.2,3.6,4,8,4s8-1.8,8-4v-3H296z"/>
	<ellipse fill="#CC291F" cx="304" cy="221" rx="8" ry="4"/>
	<path opacity="0.25" d="M24,133v3c0,2.2,3.6,4,8,4s8-1.8,8-4v-3H24z"/>
	<ellipse fill="#CC291F" cx="32" cy="133" rx="8" ry="4"/>
	<path opacity="0.25" d="M24,117v3c0,2.2,3.6,4,8,4s8-1.8,8-4v-3H24z"/>
	<ellipse fill="#CC291F" cx="32" cy="117" rx="8" ry="4"/>
	<path opacity="0.25" d="M8,125v3c0,2.2,3.6,4,8,4s8-1.8,8-4v-3H8z"/>
	<ellipse fill="#CC291F" cx="16" cy="125" rx="8" ry="4"/>
	<path opacity="0.25" d="M40,125v3c0,2.2,3.6,4,8,4s8-1.8,8-4v-3H40z"/>
	<ellipse fill="#CC291F" cx="48" cy="125" rx="8" ry="4"/>
	<path opacity="0.25" d="M56,149v3c0,2.2,3.6,4,8,4s8-1.8,8-4v-3H56z"/>
	<ellipse fill="#CC291F" cx="64" cy="149" rx="8" ry="4"/>
	<path opacity="0.25" d="M56,133v3c0,2.2,3.6,4,8,4s8-1.8,8-4v-3H56z"/>
	<ellipse fill="#CC291F" cx="64" cy="133" rx="8" ry="4"/>
	<path opacity="0.25" d="M40,141v3c0,2.2,3.6,4,8,4s8-1.8,8-4v-3H40z"/>
	<ellipse fill="#CC291F" cx="48" cy="141" rx="8" ry="4"/>
	<path opacity="0.25" d="M72,141v3c0,2.2,3.6,4,8,4s8-1.8,8-4v-3H72z"/>
	<ellipse fill="#CC291F" cx="80" cy="141" rx="8" ry="4"/>
	<path opacity="0.25" d="M88,165v3c0,2.2,3.6,4,8,4s8-1.8,8-4v-3H88z"/>
	<ellipse fill="#CC291F" cx="96" cy="165" rx="8" ry="4"/>
	<path opacity="0.25" d="M88,149v3c0,2.2,3.6,4,8,4s8-1.8,8-4v-3H88z"/>
	<ellipse fill="#CC291F" cx="96" cy="149" rx="8" ry="4"/>
	<path opacity="0.25" d="M72,157v3c0,2.2,3.6,4,8,4s8-1.8,8-4v-3H72z"/>
	<ellipse fill="#CC291F" cx="80" cy="157" rx="8" ry="4"/>
	<path opacity="0.25" d="M104,157v3c0,2.2,3.6,4,8,4s8-1.8,8-4v-3H104z"/>
	<ellipse fill="#CC291F" cx="112" cy="157" rx="8" ry="4"/>
	<path opacity="0.25" d="M120,181v3c0,2.2,3.6,4,8,4s8-1.8,8-4v-3H120z"/>
	<ellipse fill="#CC291F" cx="128" cy="181" rx="8" ry="4"/>
	<path opacity="0.25" d="M120,165v3c0,2.2,3.6,4,8,4s8-1.8,8-4v-3H120z"/>
	<ellipse fill="#CC291F" cx="128" cy="165" rx="8" ry="4"/>
	<path opacity="0.25" d="M104,173v3c0,2.2,3.6,4,8,4s8-1.8,8-4v-3H104z"/>
	<ellipse fill="#CC291F" cx="112" cy="173" rx="8" ry="4"/>
	<path opacity="0.25" d="M136,173v3c0,2.2,3.6,4,8,4s8-1.8,8-4v-3H136z"/>
	<ellipse fill="#CC291F" cx="144" cy="173" rx="8" ry="4"/>
	<path opacity="0.25" d="M152,197v3c0,2.2,3.6,4,8,4s8-1.8,8-4v-3H152z"/>
	<ellipse fill="#CC291F" cx="160" cy="197" rx="8" ry="4"/>
	<path opacity="0.25" d="M152,181v3c0,2.2,3.6,4,8,4s8-1.8,8-4v-3H152z"/>
	<ellipse fill="#CC291F" cx="160" cy="181" rx="8" ry="4"/>
	<path opacity="0.25" d="M136,189v3c0,2.2,3.6,4,8,4s8-1.8,8-4v-3H136z"/>
	<ellipse fill="#CC291F" cx="144" cy="189" rx="8" ry="4"/>
	<path opacity="0.25" d="M168,189v3c0,2.2,3.6,4,8,4s8-1.8,8-4v-3H168z"/>
	<ellipse fill="#CC291F" cx="176" cy="189" rx="8" ry="4"/>
	<path opacity="0.25" d="M184,213v3c0,2.2,3.6,4,8,4s8-1.8,8-4v-3H184z"/>
	<ellipse fill="#CC291F" cx="192" cy="213" rx="8" ry="4"/>
	<path opacity="0.25" d="M184,197v3c0,2.2,3.6,4,8,4s8-1.8,8-4v-3H184z"/>
	<ellipse fill="#CC291F" cx="192" cy="197" rx="8" ry="4"/>
	<path opacity="0.25" d="M168,205v3c0,2.2,3.6,4,8,4s8-1.8,8-4v-3H168z"/>
	<ellipse fill="#CC291F" cx="176" cy="205" rx="8" ry="4"/>
	<path opacity="0.25" d="M200,205v3c0,2.2,3.6,4,8,4s8-1.8,8-4v-3H200z"/>
	<ellipse fill="#CC291F" cx="208" cy="205" rx="8" ry="4"/>
	<path opacity="0.25" d="M216,229v3c0,2.2,3.6,4,8,4s8-1.8,8-4v-3H216z"/>
	<ellipse fill="#CC291F" cx="224" cy="229" rx="8" ry="4"/>
	<path opacity="0.25" d="M216,213v3c0,2.2,3.6,4,8,4s8-1.8,8-4v-3H216z"/>
	<ellipse fill="#CC291F" cx="224" cy="213" rx="8" ry="4"/>
	<path opacity="0.25" d="M200,221v3c0,2.2,3.6,4,8,4s8-1.8,8-4v-3H200z"/>
	<ellipse fill="#CC291F" cx="208" cy="221" rx="8" ry="4"/>
	<path opacity="0.25" d="M232,221v3c0,2.2,3.6,4,8,4s8-1.8,8-4v-3H232z"/>
	<ellipse fill="#CC291F" cx="240" cy="221" rx="8" ry="4"/>
	<path opacity="0.25" d="M248,245v3c0,2.2,3.6,4,8,4s8-1.8,8-4v-3H248z"/>
	<ellipse fill="#CC291F" cx="256" cy="245" rx="8" ry="4"/>
	<path opacity="0.25" d="M248,229v3c0,2.2,3.6,4,8,4s8-1.8,8-4v-3H248z"/>
	<ellipse fill="#CC291F" cx="256" cy="229" rx="8" ry="4"/>
	<path opacity="0.25" d="M232,237v3c0,2.2,3.6,4,8,4s8-1.8,8-4v-3H232z"/>
	<ellipse fill="#CC291F" cx="240" cy="237" rx="8" ry="4"/>
	<path opacity="0.25" d="M264,237v3c0,2.2,3.6,4,8,4s8-1.8,8-4v-3H264z"/>
	<ellipse fill="#CC291F" cx="272" cy="237" rx="8" ry="4"/>
</g>
</svg>
