<?xml version="1.0" encoding="utf-8"?>
<!-- Generator: Adobe Illustrator 18.1.0, SVG Export Plug-In . SVG Version: 6.00 Build 0)  -->
<svg version="1.1" id="Layer_1" xmlns="http://www.w3.org/2000/svg" xmlns:xlink="http://www.w3.org/1999/xlink" x="0px" y="0px"
	 viewBox="0 0 64 56" enable-background="new 0 0 64 56" xml:space="preserve">
<g>
	<polygon fill="#CC291F" points="32,0.4 0.4,16.2 0.4,39.8 32,55.6 63.6,39.8 63.6,16.2 	"/>
	<path opacity="0.25" d="M24,21v3c0,2.2,3.6,4,8,4s8-1.8,8-4v-3H24z"/>
	<ellipse fill="#CC291F" cx="32" cy="21" rx="8" ry="4"/>
	<path opacity="0.25" d="M24,5v3c0,2.2,3.6,4,8,4s8-1.8,8-4V5H24z"/>
	<ellipse fill="#CC291F" cx="32" cy="5" rx="8" ry="4"/>
	<path opacity="0.25" d="M8,13v3c0,2.2,3.6,4,8,4s8-1.8,8-4v-3H8z"/>
	<ellipse fill="#CC291F" cx="16" cy="13" rx="8" ry="4"/>
	<path opacity="0.25" d="M40,13v3c0,2.2,3.6,4,8,4s8-1.8,8-4v-3H40z"/>
	<ellipse fill="#CC291F" cx="48" cy="13" rx="8" ry="4"/>
	<polygon opacity="0.11" points="0.4,39.8 32,55.6 32,32 0.4,16.2 	"/>
	<polygon opacity="0.29" points="63.6,39.8 32,55.6 32,32 63.6,16.2 	"/>
</g>
</svg>
