<?xml version="1.0" encoding="utf-8"?>
<!-- Generator: Adobe Illustrator 18.1.0, SVG Export Plug-In . SVG Version: 6.00 Build 0)  -->
<svg version="1.1" id="Layer_1" xmlns="http://www.w3.org/2000/svg" xmlns:xlink="http://www.w3.org/1999/xlink" x="0px" y="0px"
	 viewBox="0 0 560 480" enable-background="new 0 0 560 480" xml:space="preserve">
<g>
	<polygon opacity="0.3" points="141.8,209.8 14.6,273.4 367.8,449.3 495,385.7 	"/>
	<line fill="none" stroke="#2D3134" stroke-width="1.0536" stroke-miterlimit="10" x1="461.5" y1="264.3" x2="449.8" y2="272.7"/>
	<polygon points="68.4,273.5 174.2,244.1 101.2,202.1 57.9,239.3 	"/>
	<polygon points="317.3,400.2 423.1,370.8 350.1,328.8 306.8,366 	"/>
	<g>
		<path fill="#2D3134" d="M104.9,257.7c-6.2-3.1-11.9-3.5-16.1-1.6l0,0l-11.7,5.8l0,0c-4.5,2-7.3,6.6-7.3,13.3
			c0,12.9,10.5,28.6,23.4,35c6.4,3.2,12.2,3.5,16.4,1.5c0,0,11.6-5.8,12.6-6.4c3.8-2.3,6.1-6.6,6.1-12.6
			C128.3,279.8,117.8,264.1,104.9,257.7z"/>
		<path opacity="0.39" d="M109.9,311.6c1.7-0.8,11.4-5.7,12.3-6.2c3.8-2.3,6.1-6.6,6.1-12.6c0-5.2-1.7-10.8-4.6-16.1l-11.7,5.8
			c2.9,5.3,4.6,10.9,4.6,16.1C116.6,305,114.1,309.5,109.9,311.6z"/>
		<path fill="#A9ABB0" d="M110.8,295.5c0,9.7-7.8,13.6-17.5,8.8S75.7,287.7,75.7,278c0-9.7,7.8-13.6,17.5-8.8
			S110.8,285.8,110.8,295.5z"/>
		<path fill="#808285" d="M94.7,303.6c-9.7-4.8-17.5-16.6-17.5-26.3c0-4.8,1.9-8.1,5-9.7c-3.9,1.2-6.4,4.9-6.4,10.3
			c0,9.7,7.8,21.4,17.5,26.3c4.9,2.5,9.4,2.6,12.5,1C102.8,306.2,98.9,305.7,94.7,303.6z"/>
		<path fill="#2D3134" d="M102,289.8c0,4-3.3,5.7-7.3,3.6c-4-2-7.3-6.9-7.3-11c0-4,3.3-5.7,7.3-3.6C98.8,280.9,102,285.8,102,289.8z
			"/>
		<path opacity="0.39" d="M102,289.8c0,4-3.3,5.7-7.3,3.6c-4-2-7.3-6.9-7.3-11c0-4,3.3-5.7,7.3-3.6C98.8,280.9,102,285.8,102,289.8z
			"/>
		<path fill="#2D3134" d="M100.6,290.5c0,4-3.3,5.7-7.3,3.6c-4-2-7.3-6.9-7.3-11s3.3-5.7,7.3-3.6
			C97.3,281.5,100.6,286.4,100.6,290.5z"/>
		<path opacity="0.06" d="M116.6,298.6c0,12.9-10.5,18.1-23.4,11.7s-23.4-22.1-23.4-35c0-12.9,10.5-18.1,23.4-11.7
			C106.2,270,116.6,285.7,116.6,298.6z"/>
	</g>
	<g>
		<path fill="#2D3134" d="M353.5,381.1c-6.2-3.1-11.9-3.5-16.1-1.6l0,0l-11.7,5.8l0,0c-4.5,2-7.3,6.6-7.3,13.3
			c0,12.9,10.5,28.6,23.4,35c6.4,3.2,12.2,3.5,16.4,1.5c0,0,11.6-5.8,12.6-6.4c3.8-2.3,6.1-6.6,6.1-12.6
			C376.9,403.2,366.4,387.5,353.5,381.1z"/>
		<path opacity="0.39" d="M358.5,435c1.7-0.8,11.4-5.7,12.3-6.2c3.8-2.3,6.1-6.6,6.1-12.6c0-5.2-1.7-10.8-4.6-16.1l-11.7,5.8
			c2.9,5.3,4.6,10.9,4.6,16.1C365.2,428.3,362.6,432.8,358.5,435z"/>
		<path fill="#A9ABB0" d="M359.4,418.9c0,9.7-7.8,13.6-17.5,8.8c-9.7-4.8-17.5-16.6-17.5-26.3c0-9.7,7.8-13.6,17.5-8.8
			C351.5,397.4,359.4,409.2,359.4,418.9z"/>
		<path fill="#808285" d="M343.3,427c-9.7-4.8-17.5-16.6-17.5-26.3c0-4.8,1.9-8.1,5-9.7c-3.9,1.2-6.4,4.9-6.4,10.3
			c0,9.7,7.8,21.4,17.5,26.3c4.9,2.5,9.4,2.6,12.5,1C351.4,429.6,347.5,429.1,343.3,427z"/>
		<path fill="#2D3134" d="M350.6,413.2c0,4-3.3,5.7-7.3,3.6c-4-2-7.3-6.9-7.3-11c0-4,3.3-5.7,7.3-3.6
			C347.3,404.2,350.6,409.1,350.6,413.2z"/>
		<path opacity="0.39" d="M350.6,413.2c0,4-3.3,5.7-7.3,3.6c-4-2-7.3-6.9-7.3-11c0-4,3.3-5.7,7.3-3.6
			C347.3,404.2,350.6,409.1,350.6,413.2z"/>
		<path fill="#2D3134" d="M349.1,413.9c0,4-3.3,5.7-7.3,3.6c-4-2-7.3-6.9-7.3-11c0-4,3.3-5.7,7.3-3.6
			C345.9,404.9,349.1,409.8,349.1,413.9z"/>
		<path opacity="0.06" d="M365.2,422c0,12.9-10.5,18.1-23.4,11.7c-12.9-6.5-23.4-22.1-23.4-35c0-12.9,10.5-18.1,23.4-11.7
			C354.7,393.4,365.2,409.1,365.2,422z"/>
	</g>
	<path fill="#E5E5E5" d="M457.4,277.7l-40.6-64.8l-28.3-37.4c-3.2-4.2-7.2-7.6-11.9-9.9L133.8,42.7c-4.6-2.3-9.9-2.3-14.5-0.1
		L44.5,79.9c-3.8,1.9-6.7,5.1-8.1,9.1l-7.3,20.7l-11.6,75.9v62.1l50.9,25.9c0-0.5,0-1,0-1.5c0-15.5,12.6-21.8,28-14
		c15.5,7.7,28,26.6,28,42.1c0,0.7,0,1.3-0.1,1.9l193,98.2c-0.2-1.6-0.4-3.2-0.4-4.7c0-15.5,12.6-21.8,28-14
		c15.1,7.5,27.3,25.5,28,40.8l4.9,0.9l113.8-54.8c0,0,0-30.6,0-37.4C491.7,324.1,457.4,277.7,457.4,277.7z"/>
	<path fill="#2D3134" d="M323.6,265.1c0,0,23.4-9.7,50.6-22.7c27.1-13.1,45.8-25.2,45.8-25.2l37.4,60.6c0,0-25,18.4-49.8,30.8
		c-24.8,12.4-55.1,21.6-55.1,21.6L323.6,265.1z"/>
	<path fill="#656565" d="M326.4,266.2c6.3-2.6,26.3-11.2,48.7-22c22.1-10.7,38.9-20.8,44.2-24.2l33,53.3
		c-5.9,4.2-27.1,19.1-47.9,29.5c-20.9,10.5-46.1,18.7-52.9,20.9L326.4,266.2z"/>
	<path fill="#2D3134" d="M287.5,261.2l-4.3,38.5c-0.2,2,0.8,3.9,2.5,4.8l55,29.4l1.6-5.8l-24.5-59l-23.3-11.6
		C291.5,255.9,287.9,257.8,287.5,261.2z"/>
	<path fill="#656565" d="M286.7,302.6c-1-0.5-1.6-1.6-1.4-2.7l4.3-38.5c0.2-1.6,1.5-2.4,2.7-2.4c0.4,0,0.8,0.1,1.2,0.3l22.6,11.3
		l23.9,57.6l-0.7,2.6L286.7,302.6z"/>
	<path fill="#2D3134" d="M275.1,254.9l-4.7,33.7c-0.2,1.7-2.1,2.7-3.6,1.9l-45-21.9c-3.2-1.6-5-5-4.5-8.6l5-34.1
		c0.2-1.7,2.1-2.7,3.6-1.9l44.8,22.4C273.8,247.9,275.6,251.4,275.1,254.9z"/>
	<path fill="#656565" d="M267.9,288.6c-0.1,0-0.1,0-0.2,0l-45-21.9c-2.4-1.2-3.7-3.7-3.4-6.4l5-34.1c0-0.3,0.3-0.4,0.4-0.4
		c0.1,0,0.1,0,0.2,0l44.8,22.4c2.3,1.2,3.7,3.7,3.3,6.3l-4.7,33.7C268.2,288.5,268,288.6,267.9,288.6z"/>
	<path opacity="0.3" fill="none" stroke="#000000" stroke-width="1.0536" stroke-miterlimit="10" d="M125,217.8l75.3,36.7
		c2.3,1.1,5-0.3,5.4-2.8l4.6-31.3c0.3-2.3-0.8-4.6-2.9-5.6l-73.6-36.5c-2.3-1.1-5,0.3-5.4,2.7l-6.3,31
		C121.7,214.4,122.9,216.8,125,217.8z"/>
	<path opacity="0.3" fill="none" stroke="#000000" stroke-width="1.0536" stroke-miterlimit="10" d="M33.2,172.5l73.6,35.9
		c2.3,1.1,5-0.3,5.4-2.8l5.4-30.9c0.3-2.3-0.8-4.6-2.9-5.6l-73.6-36.5c-2.3-1.1-5,0.3-5.4,2.7l-5.4,31.4
		C29.8,169.1,31,171.5,33.2,172.5z"/>
	<polygon opacity="0.3" fill="#FFFFFF" points="25.2,209.2 23.9,214.5 369.4,387.8 369.4,382.8 	"/>
	<polygon opacity="0.3" points="310.6,253.7 310.9,253 30.4,111.4 30,112.1 218.4,207.2 208.4,278.3 208.4,341.7 209.2,341.7 
		209.2,278.4 219.1,207.6 219.1,207.5 283.2,239.9 273.3,311.2 273.3,374.6 274,374.6 274,311.2 284,240.3 	"/>
	<path fill="#2D3134" d="M457.4,259.5v10.9c0,1.9,2.1,3,3.6,1.9l0.5-0.4c2.5-1.8,4-4.7,4-7.7v-10.9c0-1.9-2.2-3-3.7-1.8l-0.8,0.6
		C458.8,253.8,457.4,256.5,457.4,259.5z"/>
	<path fill="#2D3134" d="M405.5,382.6c0,0,21-8.9,36.9-16.9c21.1-10.5,34.8-19.9,34.8-19.9l-1.8,18.7c0,0-17.2,11.3-30.6,18
		c-15.9,8-35.6,15.3-35.6,15.3L405.5,382.6z"/>
	<path fill="#2D3134" d="M359.7,402c0,0,17.1,6.8,24.2,6.6c7.1-0.3,35.8-8.7,61.9-22.1c26.1-13.4,42.1-26.1,45.8-34.2v25.6
		c0,0-13.2,18.2-46.9,33.7c-33.7,15.5-51.1,21.1-57.9,20.3c-6.8-0.8-22.1-8.7-22.1-8.7L359.7,402z"/>
	<polygon fill="#E5E5E5" points="431.3,403.1 431.3,412.8 463.5,395.7 463.5,386.8 	"/>
	<path fill="#2D3134" d="M379.2,328l3.2,6.3c0,0,19.5-9,35.8-16.9c16.3-7.9,31.6-17.4,31.6-17.4l-4.5-4.2c0,0-16.9,9.2-29.2,15.5
		S379.2,328,379.2,328z"/>
	<path fill="#FFFFFF" d="M371.3,383.1v23c0,0,8.1,3.7,14.4,2.7c6.3-1,17.4-4.8,17.4-4.8l-3.9-20.9c0,0-9,3.4-16.3,3.4
		S371.3,383.1,371.3,383.1z"/>
	<path opacity="0.3" d="M393.2,394.1c5.6,5.1,9.9,9.9,9.9,9.9l-3.9-20.9c0,0-7.6,2.9-14.6,3.4C384,386.5,388.4,389.8,393.2,394.1z"
		/>
	<path fill="#FFFFFF" d="M481.4,341.9l-0.7,22.7c0,0,6.7-5.9,8.2-8.1c1.5-2.1,2.7-4.2,2.7-4.2v-21.3L481.4,341.9z"/>
	<path opacity="0.3" d="M481.4,341.9l-0.7,22.7c0,0,2.1-6.3,5.4-15.3c2.4-6.6,5.6-18.3,5.6-18.3L481.4,341.9z"/>
	<path fill="#FF9900" d="M382.9,386.5L382.9,386.5c-7.4,0-11.6-3.4-11.6-3.4v23c0,0,6.1,2.8,11.9,2.9L382.9,386.5z"/>
	<path fill="#FF9900" d="M346.2,363.7v0.6c0,1.4,0.8,2.7,2,3.3l2.9,1.5c1.2,0.6,2.6-0.3,2.6-1.6v-0.6c0-1.4-0.8-2.7-2-3.3l-2.9-1.5
		C347.6,361.5,346.2,362.4,346.2,363.7z"/>
	<path fill="#2D3134" d="M325.6,318.4l0.7-0.3c2.4-0.8,4.9,1,4.9,3.5v11.4c0,3.1-1.9,6-4.9,7.1l-0.9,0.3c-2.4,0.9-5.1-0.9-5.1-3.5
		v-11.5C320.4,322.3,322.5,319.4,325.6,318.4z"/>
	<path opacity="0.2" d="M327.3,265.8c21.3,5,45.7,7.8,71.7,7.8c18,0,35.2-1.4,51.2-3.9l-30.8-49.7c-5.4,3.3-22.1,13.5-44.2,24.2
		C353.7,254.6,334.3,262.9,327.3,265.8z"/>
	<polygon fill="#2D3134" points="16.7,223.6 20.4,225.4 23.1,250.7 18.3,249.1 12,242.8 12,234.9 14.6,232.3 	"/>
	<path opacity="0.3" d="M390.4,388.9c0,1.8-1.4,3.9-3.2,4.8c-1.8,0.9-3.2,0.2-3.2-1.6s1.4-3.9,3.2-4.8
		C389,386.4,390.4,387.1,390.4,388.9z"/>
	<path opacity="0.3" d="M491.1,338.6c0.2,1.4-0.8,3.4-2.1,4.3c-1.4,0.9-2.6,0.5-2.8-1c-0.2-1.4,0.8-3.4,2.1-4.3
		C489.7,336.7,491,337.2,491.1,338.6z"/>
	<path opacity="0.3" d="M400,394.7c0,4.1-3.3,9-7.3,11c-4.1,2-7.3,0.4-7.3-3.7s3.3-9,7.3-11C396.7,389,400,390.7,400,394.7z"/>
	<path opacity="0.4" fill="#FFFFFF" d="M395.6,399.1c0,2.1-1.7,4.6-3.8,5.6s-3.8,0.2-3.8-1.9s1.7-4.6,3.8-5.6S395.6,397,395.6,399.1
		z"/>
	<path opacity="0.3" d="M490.7,348.1c0.5,2.7-1,6.5-3.5,8.4s-4.9,1.2-5.4-1.5s1-6.5,3.5-8.4C487.7,344.7,490.2,345.4,490.7,348.1z"
		/>
	<path opacity="0.4" fill="#FFFFFF" d="M488.4,351.6c0.3,1.4-0.5,3.3-1.8,4.3s-2.5,0.6-2.8-0.8s0.5-3.3,1.8-4.3
		C486.9,349.9,488.1,350.2,488.4,351.6z"/>
	<g>
		<path opacity="0.2" d="M290.7,321.8c0,2.4-1.9,3.4-4.3,2.2c-2.4-1.2-4.3-4.1-4.3-6.5c0-2.4,1.9-3.4,4.3-2.2
			C288.8,316.5,290.7,319.4,290.7,321.8z"/>
		<path fill="#E5E5E5" d="M279.5,314.4l-1.8,2.1c0,0,13.6,8.8,14.8,7.1C293.7,321.9,279.5,314.4,279.5,314.4z"/>
	</g>
	<g>
		<path opacity="0.2" d="M265.5,308.3c0,2.4-1.9,3.4-4.3,2.2c-2.4-1.2-4.3-4.1-4.3-6.5s1.9-3.4,4.3-2.2
			C263.6,303,265.5,306,265.5,308.3z"/>
		<path fill="#E5E5E5" d="M254.3,301l-1.8,2.1c0,0,13.6,8.8,14.8,7.1C268.5,308.5,254.3,301,254.3,301z"/>
	</g>
	<path opacity="0.3" fill="#FFFFFF" d="M302.7,229.3l93-44.2l-7.3-9.6c-1.5-2-3.3-3.8-5.2-5.5l-90,43.7
		C295.5,215.6,299.1,222,302.7,229.3z"/>
	<path opacity="0.11" d="M382.9,386.5c0,0-10.7-18.6-17.7-28.9c-7.6-11.2-14.5-19.7-18.7-27.9c-4.2-8.3-30.8-72-30.8-72
		s-16.3-38.7-22.4-44C288,209.1,86,107,39.6,83.6c-1.4,1.6-2.5,3.4-3.2,5.4l-7.3,20.7l-11.6,75.9v62.1l50.9,25.9c0-0.5,0-1,0-1.5
		c0-15.5,12.6-21.8,28-14c15.5,7.7,28,26.6,28,42.1c0,0.7,0,1.3-0.1,1.9l193,98.2c-0.2-1.6-0.4-3.2-0.4-4.7c0-15.5,12.6-21.8,28-14
		c15.1,7.5,27.3,25.5,28,40.8l4.9,0.9l5.4-2.6L382.9,386.5z"/>
</g>
</svg>
