<?xml version="1.0" encoding="utf-8"?>
<!-- Generator: Adobe Illustrator 18.1.0, SVG Export Plug-In . SVG Version: 6.00 Build 0)  -->
<svg version="1.1" id="Layer_1" xmlns="http://www.w3.org/2000/svg" xmlns:xlink="http://www.w3.org/1999/xlink" x="0px" y="0px"
	 viewBox="0 0 560 480" enable-background="new 0 0 560 480" xml:space="preserve">
<g>
	<polygon opacity="0.3" points="141.2,209.8 14,273.4 367.1,449.3 494.4,385.7 	"/>
	<polygon points="31.3,252.1 137.1,222.7 64.1,180.8 29.3,217.9 	"/>
	<polygon points="277,373.8 382.9,344.4 309.8,302.5 275,339.6 	"/>
	<g>
		<path fill="#2D3134" d="M64.8,238.2c-6.2-3.1-11.9-3.5-16.1-1.6l0,0l-11.7,5.8l0,0c-4.5,2-7.3,6.6-7.3,13.3
			c0,12.9,10.5,28.6,23.4,35c6.4,3.2,12.2,3.5,16.4,1.5c0,0,11.6-5.8,12.6-6.4c3.8-2.3,6.1-6.6,6.1-12.6
			C88.2,260.3,77.7,244.6,64.8,238.2z"/>
		<path opacity="0.39" d="M69.8,292.1c1.7-0.8,11.4-5.7,12.3-6.2c3.8-2.3,6.1-6.6,6.1-12.6c0-5.2-1.7-10.8-4.6-16.1l-11.7,5.8
			c2.9,5.3,4.6,10.9,4.6,16.1C76.5,285.4,73.9,289.9,69.8,292.1z"/>
		<path fill="#A9ABB0" d="M70.6,276c0,9.7-7.8,13.6-17.5,8.8s-17.5-16.6-17.5-26.3c0-9.7,7.8-13.6,17.5-8.8S70.6,266.3,70.6,276z"/>
		<path fill="#808285" d="M54.6,284.1c-9.7-4.8-17.5-16.6-17.5-26.3c0-4.8,1.9-8.1,5-9.7c-3.9,1.2-6.4,4.9-6.4,10.3
			c0,9.7,7.8,21.4,17.5,26.3c4.9,2.5,9.4,2.6,12.5,1C62.6,286.7,58.8,286.2,54.6,284.1z"/>
		<path fill="#2D3134" d="M61.9,270.3c0,4-3.3,5.7-7.3,3.6s-7.3-6.9-7.3-11c0-4,3.3-5.7,7.3-3.6S61.9,266.2,61.9,270.3z"/>
		<path opacity="0.39" d="M61.9,270.3c0,4-3.3,5.7-7.3,3.6s-7.3-6.9-7.3-11c0-4,3.3-5.7,7.3-3.6S61.9,266.2,61.9,270.3z"/>
		<path fill="#2D3134" d="M60.4,270.9c0,4-3.3,5.7-7.3,3.6s-7.3-6.9-7.3-11c0-4,3.3-5.7,7.3-3.6S60.4,266.9,60.4,270.9z"/>
		<path opacity="0.06" d="M76.5,279c0,12.9-10.5,18.1-23.4,11.7s-23.4-22.1-23.4-35c0-12.9,10.5-18.1,23.4-11.7
			S76.5,266.1,76.5,279z"/>
	</g>
	<g>
		<path fill="#2D3134" d="M313.4,361.5c-6.2-3.1-11.9-3.5-16.1-1.6l0,0l-11.7,5.8l0,0c-4.5,2-7.3,6.6-7.3,13.3
			c0,12.9,10.5,28.6,23.4,35c6.4,3.2,12.2,3.5,16.4,1.5c0,0,11.6-5.8,12.6-6.4c3.8-2.3,6.1-6.6,6.1-12.6
			C336.7,383.7,326.3,368,313.4,361.5z"/>
		<path opacity="0.39" d="M318.3,415.5c1.7-0.8,11.4-5.7,12.3-6.2c3.8-2.3,6.1-6.6,6.1-12.6c0-5.2-1.7-10.8-4.6-16.1l-11.7,5.8
			c2.9,5.3,4.6,10.9,4.6,16.1C325.1,408.8,322.5,413.3,318.3,415.5z"/>
		<path fill="#A9ABB0" d="M319.2,399.4c0,9.7-7.8,13.6-17.5,8.8c-9.7-4.8-17.5-16.6-17.5-26.3c0-9.7,7.8-13.6,17.5-8.8
			C311.4,377.9,319.2,389.7,319.2,399.4z"/>
		<path fill="#808285" d="M303.2,407.5c-9.7-4.8-17.5-16.6-17.5-26.3c0-4.8,1.9-8.1,5-9.7c-3.9,1.2-6.4,4.9-6.4,10.3
			c0,9.7,7.8,21.4,17.5,26.3c4.9,2.5,9.4,2.6,12.5,1C311.2,410,307.4,409.6,303.2,407.5z"/>
		<path fill="#2D3134" d="M310.5,393.6c0,4-3.3,5.7-7.3,3.6c-4-2-7.3-6.9-7.3-11c0-4,3.3-5.7,7.3-3.6
			C307.2,384.7,310.5,389.6,310.5,393.6z"/>
		<path opacity="0.39" d="M310.5,393.6c0,4-3.3,5.7-7.3,3.6c-4-2-7.3-6.9-7.3-11c0-4,3.3-5.7,7.3-3.6
			C307.2,384.7,310.5,389.6,310.5,393.6z"/>
		<path fill="#2D3134" d="M309,394.3c0,4-3.3,5.7-7.3,3.6c-4-2-7.3-6.9-7.3-11c0-4,3.3-5.7,7.3-3.6C305.7,385.4,309,390.3,309,394.3
			z"/>
		<path opacity="0.06" d="M325.1,402.4c0,12.9-10.5,18.1-23.4,11.7c-12.9-6.5-23.4-22.1-23.4-35
			c0-12.9,10.5-18.1,23.4-11.7C314.6,373.8,325.1,389.5,325.1,402.4z"/>
	</g>
	<path fill="#E5E5E5" d="M488.8,237.9l-7.9-21.2c-2.9-7.7-8.6-13.9-16.1-17.3L229.1,91.5c-4.6-2.1-9.8-2.3-14.5-0.5
		c-11.1,4.2-31.9,12.3-43.2,17.8c-15.8,7.6-52.4,31.3-69.8,42.1S71,174.4,63.4,178.1S28.1,200,28.1,204.7c0,4.2,0,31.9,0,31.9
		l3.3,5.5c4.7-6.7,14.1-8.2,24.9-2.7c15.5,7.7,28,26.6,28,42.1c0,0.4,0,0.7,0,1.1L277,373.7c1.5-13.3,13.4-18.3,27.9-11
		c13.9,7,25.5,22.9,27.7,37.3l52,24.6l115.6-56.4v-65.6L488.8,237.9z"/>
	<polygon fill="#2D3134" points="26.4,229.4 31.3,233.8 31.3,252.5 24.9,248.4 24.9,241.8 26.4,241.3 	"/>
	<polygon fill="#CC291F" points="384.8,363.3 391.1,360.1 391.1,378 384.8,381.2 	"/>
	<polygon fill="#CC291F" points="384.8,387.5 384.8,394.9 391.1,391.7 391.1,384.6 	"/>
	<polygon fill="#CC291F" points="494.4,308.5 500.7,305.3 500.7,323.3 494.4,326.4 	"/>
	<polygon fill="#CC291F" points="494.4,332.7 494.4,340.1 500.7,336.9 500.7,329.8 	"/>
	<path opacity="0.3" d="M493.7,307.1l-10.6-66.7l-9.9-23.3l-80.4,39l-0.2,0.1v153.5l100.9-50.1l0.2-0.1L493.7,307.1z M393.3,256.7
		l39.8-19.3l5,30.6l3.4,48.7v67.9l-48.2,23.9V256.7z M492.9,359.1l-50.6,25.1l0-67.5l-3.4-48.8l-5-30.8l0,0l38.9-18.9l9.6,22.4
		l10.5,66.6V359.1z"/>
	<path opacity="0.3" fill="none" stroke="#000000" stroke-width="0.7902" stroke-miterlimit="10" d="M442.2,275.7l3.1,35.7
		c0.1,1.7,2,2.7,3.5,1.9l35.5-18c2.1-1,3.2-3.3,2.8-5.6l-5.7-33.6c-0.3-1.6-2-2.5-3.4-1.8l-32.9,16.2
		C443.2,271.5,442,273.6,442.2,275.7z"/>
	<path opacity="0.3" fill="none" stroke="#000000" stroke-width="0.7902" stroke-miterlimit="10" d="M435.6,279.1l2.4,35.4
		c0.1,2.1-1,4.1-2.9,5.1l-35,17.3c-1.6,0.8-3.5-0.4-3.5-2.2l0.3-36.6c0-2,1.1-3.8,2.9-4.7l32.4-16.3
		C433.7,276.3,435.5,277.4,435.6,279.1z"/>
	<polygon fill="#FFFFFF" points="399.5,381.2 399.5,392.8 433.3,375.9 433.3,364.3 	"/>
	<polygon opacity="0.3" fill="#FFFFFF" points="34.6,214.2 374.2,376.8 374.2,383.8 31.3,217.6 	"/>
	<line fill="none" x1="84.5" y1="260.6" x2="272.7" y2="351.5"/>
	<line fill="none" x1="342.2" y1="383.8" x2="375.6" y2="398.2"/>
	<polygon fill="#FF9900" points="27.4,207.9 27.4,230.4 31.3,233.8 31.3,212.1 	"/>
	<path fill="#2D3134" d="M63.9,196.5l53.3,25.6c1.5,0.7,3.2-0.3,3.4-1.9l5-45.2c0.1-1-0.4-1.9-1.3-2.4l-26.5-13.1l-33.9,29.1V196.5z
		"/>
	<path fill="#656565" d="M118.3,220.2c0,0-0.1,0-0.1,0l-52.1-25v-5.6l32.1-27.6l25.3,12.5c0.1,0.1,0.2,0.2,0.1,0.3l-5,45.2
		C118.5,220.2,118.4,220.2,118.3,220.2L118.3,220.2z"/>
	<path fill="#2D3134" d="M139.1,181.9l-3.9,38.1c-0.1,1.1,0.5,2.1,1.4,2.6l48.2,24.1c1.7,0.8,3.6-0.3,3.8-2.1l4.4-38.3
		c0.1-1.1-0.5-2.1-1.5-2.6l-48.7-23.9C141.3,179,139.3,180,139.1,181.9z"/>
	<path fill="#656565" d="M186,244.8c-0.1,0-0.2,0-0.2-0.1l-48.2-24.1c-0.2-0.1-0.3-0.3-0.3-0.5l3.9-38.1c0-0.3,0.3-0.5,0.5-0.5
		c0.1,0,0.2,0,0.2,0.1l48.7,23.9c0.2,0.1,0.3,0.3,0.3,0.5l-4.4,38.3C186.5,244.7,186.2,244.8,186,244.8z"/>
	<path opacity="0.3" fill="none" stroke="#000000" stroke-width="1.0536" stroke-miterlimit="10" d="M202.3,212.9l-4,36.8
		c-0.2,1.9,0.8,3.8,2.5,4.6l76.8,38.1c1.5,0.8,3.4-0.3,3.5-2l4.2-36.6c0.2-1.9-0.8-3.7-2.5-4.6l-77-38.4
		C204.3,210.3,202.5,211.2,202.3,212.9z"/>
	<path opacity="0.3" fill="none" stroke="#000000" stroke-width="1.0536" stroke-miterlimit="10" d="M293.3,258.1l-4,36.8
		c-0.2,1.9,0.8,3.8,2.5,4.6l77.7,38.6c1.5,0.8,3.4-0.3,3.5-2l3.3-37c0.2-1.9-0.8-3.7-2.5-4.6l-77-38.4
		C295.3,255.4,293.4,256.4,293.3,258.1z"/>
	<polygon opacity="0.3" points="384,287.3 384.4,286.5 103.9,152 103.6,152.7 133.6,167.1 125.4,238.5 125.4,301.8 126.2,301.8 
		126.2,238.5 134.3,167.5 198.7,198.3 190.5,269.9 190.5,333.2 191.3,333.2 191.3,269.9 199.4,198.7 	"/>
	<path fill="#FF9900" d="M46.9,214.6v0.6c0,1.4,0.8,2.7,2,3.3l2.9,1.5c1.2,0.6,2.6-0.3,2.6-1.6v-0.6c0-1.4-0.8-2.7-2-3.3l-2.9-1.5
		C48.3,212.4,46.9,213.2,46.9,214.6z"/>
	<g>
		<path opacity="0.2" d="M144.6,249.4c0,2.4-1.9,3.4-4.3,2.2c-2.4-1.2-4.3-4.1-4.3-6.5s1.9-3.4,4.3-2.2
			C142.7,244.1,144.6,247,144.6,249.4z"/>
		<path fill="#E5E5E5" d="M133.4,242.1l-1.8,2.1c0,0,13.6,8.8,14.8,7.1C147.6,249.5,133.4,242.1,133.4,242.1z"/>
	</g>
	<g>
		<path opacity="0.2" d="M448.5,328.7c0,2.4,1.9,3.4,4.3,2.2c2.4-1.2,4.3-4.1,4.3-6.5c0-2.4-1.9-3.4-4.3-2.2
			C450.4,323.4,448.5,326.3,448.5,328.7z"/>
		<path fill="#E5E5E5" d="M459.7,321.3l1.8,2.1c0,0-13.6,8.8-14.8,7.1C445.5,328.8,459.7,321.3,459.7,321.3z"/>
	</g>
	<g>
		<path opacity="0.2" d="M423.9,340.9c0,2.4,1.9,3.4,4.3,2.2c2.4-1.2,4.3-4.1,4.3-6.5c0-2.4-1.9-3.4-4.3-2.2
			C425.8,335.6,423.9,338.5,423.9,340.9z"/>
		<path fill="#E5E5E5" d="M435.1,333.5l1.8,2.1c0,0-13.6,8.8-14.8,7.1C420.9,341,435.1,333.5,435.1,333.5z"/>
	</g>
	<g>
		<path opacity="0.2" d="M119.5,236c0,2.4-1.9,3.4-4.3,2.2c-2.4-1.2-4.3-4.1-4.3-6.5s1.9-3.4,4.3-2.2
			C117.5,230.7,119.5,233.6,119.5,236z"/>
		<path fill="#E5E5E5" d="M108.3,228.6l-1.8,2.1c0,0,13.6,8.8,14.8,7.1C122.5,236.1,108.3,228.6,108.3,228.6z"/>
	</g>
	<polygon fill="#2D3134" points="498.2,358.8 498.2,345.4 502.6,343.4 502.6,356.4 504.4,357.5 504.4,366.3 499.1,374 391.1,427.7 
		384.2,427.7 376.3,423.5 376.3,398.8 382.3,402.1 389.7,399.8 389.7,413.2 	"/>
	<path opacity="0.11" d="M388,254.4L142.3,137.3c-6.7-3.2-14.7-2.8-21,1.2c-1.8,1.1-3.8,2.4-5.8,3.6c-5.3,3.3-10.1,6.4-14,8.8l0,0
		c-14.2,9-43.8,39.9-54.7,43.4c-8,2.6-15.4,7.9-18.8,10.5v31.7l3.3,5.5c4.7-6.7,14.1-8.2,24.9-2.7c15.5,7.7,28,26.6,28,42.1
		c0,0.4,0,0.7,0,1.1L277,373.7c1.5-13.3,13.4-18.3,27.9-11c13.9,7,25.5,22.9,27.7,37.3l43.8,20.8l0,2.7l7.9,4.2v-84.3l2.3-54.6
		L388,254.4z"/>
	<path opacity="0.29" d="M502.6,356.4v-13l-2.5,1.1v-5.6l0.6-0.3v-7.1l-0.6,0.3v-6.6l0.6-0.3V307l-0.6,0.3v-4.6l-11.3-64.8
		l-7.9-21.2c-0.8-2.1-1.8-4-2.9-5.9l-90,43.6l-3.7,89v84.3h6.9l108-53.7l5.3-7.7v-8.8L502.6,356.4z"/>
	<path fill="#2D3134" d="M52.7,188.3v12.4c0,2.2,2.3,3.5,4.2,2.5l0.7-0.4c2.5-1.4,4.1-4,4.1-6.9v-12.3c0-2.1-2.2-3.5-4.1-2.6
		l-0.4,0.2C54.4,182.5,52.7,185.3,52.7,188.3z"/>
</g>
</svg>
