<?xml version="1.0" encoding="utf-8"?>
<!-- Generator: Adobe Illustrator 18.1.0, SVG Export Plug-In . SVG Version: 6.00 Build 0)  -->
<svg version="1.0" id="Layer_1" xmlns="http://www.w3.org/2000/svg" xmlns:xlink="http://www.w3.org/1999/xlink" x="0px" y="0px"
	 viewBox="0 0 160 240" enable-background="new 0 0 160 240" xml:space="preserve">
<g>
	<path opacity="0.2" d="M91.8,223.9c-12.3-8.2,0.2-17,17.1-21.3c7.4-1.9,20.2-11.6,39.8-1.1c15.8,8.5-7.5,12.3-16.4,16.8
		C121.7,223.7,113.3,238.1,91.8,223.9z"/>
	<path fill="#2D3134" d="M126.2,192.4l10.4,1.2c0,0,0.2,1.8,2.1,3.8c1.9,2,10.1,6.4,11.7,7.6c2.8,2.1,0.9,5-1.5,5.3
		c-2.6,0.4-6.1-0.4-10.5-2c-3.4-1.2-7.4-2.3-11.3-3.6c-3.3-1.1-2.5-5.9-2-8C125.7,194.7,126.2,192.4,126.2,192.4z"/>
	<path opacity="0.4" d="M148.9,208.8c-2.7,0.4-6.5-0.5-11.2-2.2c-3.7-1.3-7.9-2.5-12-3.9c-0.3-0.1-0.5-0.2-0.7-0.3
		c0.3,1,1,1.9,2.2,2.3c3.8,1.3,7.8,2.4,11.3,3.6c4.4,1.6,7.9,2.4,10.5,2c1.8-0.3,3.2-1.9,2.8-3.5
		C151.2,207.8,150.1,208.6,148.9,208.8z"/>
	<path fill="#06547A" d="M136.4,93.5c0,0,6.1,23.2,5.7,34.4s-2.4,23.6-2.9,33s-0.4,30.7,0.1,34.9c0.6,4.8-1.8,5.1-4.8,5.2
		c-3.1,0.1-9.1-0.9-10.1-1.9s-0.9-8.7-0.9-14.3s-0.5-14-0.1-21.9c0.3-6.8-2.2-16.2-3.6-21.4c-1.4-5.2-7.4-22.6-7.8-27.4
		S112,98.9,112,98.9L136.4,93.5z"/>
	<path opacity="0.2" d="M136.4,93.5c0,0,6.1,23.2,5.7,34.4s-2.4,23.6-2.9,33s-0.4,30.7,0.1,34.9c0.6,4.8-1.8,5.1-4.8,5.2
		c-3.1,0.1-9.1-0.9-10.1-1.9s-0.9-8.7-0.9-14.3s-0.5-14-0.1-21.9c0.3-6.8-2.2-16.2-3.6-21.4c-1.4-5.2-7.4-22.6-7.8-27.4
		S112,98.9,112,98.9L136.4,93.5z"/>
	<path fill="#FBD7C7" d="M140.7,113.6l3.6-3.5c0,0,1.9,4.8,2.2,7.2c0.3,2.3-0.3,14.4-2.1,14.4c-1.8,0-1-3-1-4c0-1,0.7-4.1,0.7-4.1
		s-0.5,1.9-1.4,1.7s-1.5-1.9-0.9-3.5c0.6-1.6-0.9-4.3-0.9-4.3L140.7,113.6z"/>
	<path fill="#3399CC" d="M139.7,114c0,0,4.9-2.5,5-3.6c0.1-1.1-7-18.9-7-18.9L139.7,114z"/>
	<path fill="#2D3134" d="M90.1,208.2c0.2,0.1,10.6,2.2,10.6,2.2s2.7,6,5.3,8.1c2.1,1.8,8,5.7,7.7,7.9c-0.3,2.2-6.3,4-11.9,1.1
		c-2.6-1.3-12.9-6.6-13.4-10.1C87.8,213.5,90.1,208.2,90.1,208.2z"/>
	<path opacity="0.4" d="M101.8,225.8c-2.6-1.3-12.9-6.6-13.4-10.1c0-0.2,0-0.3-0.1-0.5c-0.1,0.8-0.1,1.6,0.1,2.3
		c0.5,3.5,10.8,8.8,13.4,10.1c5.6,2.9,11.6,1.1,11.9-1.1c0-0.3-0.1-0.7-0.3-1.2C112.2,227.2,106.8,228.4,101.8,225.8z"/>
	<path fill="#06547A" d="M129.2,98.8c-0.3,6.5-5.2,33.2-8.9,45.3c-3.7,12.1-6.5,19.8-8.3,26.8c-1.8,7-5.9,23.7-7,32
		c-0.4,3.2-1,12-1.7,12.9c-3.3,4.1-11.3,2-12.9,0.6c-1.7-1.6-2.6-2.4-2.2-5.5c0.4-3.1,1.7-21.3,2.7-27.8c1.7-10.7,5-15,6.1-20.1
		c1.1-5.1-1.1-24.1,2.3-42c3.4-17.9,7.5-21.7,7.5-21.7L129.2,98.8z"/>
	<polygon fill="#3399CC" points="109.5,46.4 119.8,43.5 126.9,45.2 130,107.1 	"/>
	<path fill="#99CC33" d="M109.5,46.4c0,0-9.9,3.1-13.7,6.6c-6.1,5.7-0.4,20.2,3.4,31.8c3.8,11.6-1.7,33.4-1.3,34.3
		c0.8,1.6,24.1,5.1,29.2,1.7c2.4-1.6,2.7-21.1,1.7-29.8c-1-8.7-4.6-17.1-6.7-22.2C120.1,64.3,109.5,46.4,109.5,46.4z"/>
	<path fill="#99CC33" d="M125.5,46.2c0.6,0.4,9,2.2,10.8,4.8c3.7,5.3,3,18.2,3,22.7c0,4.5,0.4,24.9,1.6,34.6
		c0.5,3.9,1.9,9.2,1.2,9.9c-1,1.1-8.5,3.6-10,0.5c-1.2-2.5-5-27.2-5.2-33C126.8,80,125.5,46.2,125.5,46.2z"/>
	<path fill="#FBD7C7" d="M110.1,46.2c0,0,2.6-1.1,2.7-2.9c0.2-1.9-5.6-9.2-0.8-16c4.9-6.8,16.9-5.5,19,1.2c2.1,6.8,2.3,19.6,0.7,21
		c-2,1.7-5.6,1-5.6,1s-1.2,3.1-0.9,4.9c0.4,2.5-1.9,2.7-3.2,2.7C120.3,58,112.6,53.2,110.1,46.2z"/>
	<path fill="#762C07" d="M112.1,41.6l1.5,0.9c0,0-3.9-5.4-1.3-6.5c2.6-1.1,3.9,2.2,3.9,2.2s1.9-3.4,5-3.7c3.1-0.3,11.4-2.2,11.1-4.8
		c-0.1-1-3.4-10-13.2-8.3s-10.2,9.9-9.6,13.2S112.1,41.6,112.1,41.6z"/>
	<g>
		<path fill="#FFCC00" d="M135.8,32.5c0,0,2.8,1.2,2.8,2.1c0,0.9-8.3,4.5-14,3.9s-16.1-3.5-16.7-5c-0.6-1.5,0.7-16.2,12.7-16.2
			C134.6,17.2,135.8,32.5,135.8,32.5z"/>
		<path opacity="0.2" d="M138.6,34.5c0,0.9-8.3,4.5-14,3.9c-4.6-0.5-12.1-2.4-15.2-4c3.1,1.1,7.3,2.2,10.4,2.1
			c5.4-0.2,14.2-2.8,16.1-4.1C135.8,32.5,138.6,33.7,138.6,34.5z"/>
		<path opacity="0.2" d="M134.3,30.7l-1.2,0.4c-0.6-3.6-3.3-13.3-13.8-13.3c-0.6,0-1.2,0.1-1.8,0.1c0.9-0.3,1.9-0.4,3-0.4
			C130.9,17.5,133.6,27,134.3,30.7z"/>
		<path opacity="0.2" d="M129.9,32.2c-0.3-2.6-2-13.8-11.2-13.8c-0.5,0-1,0.1-1.4,0.1c0.7-0.3,1.5-0.4,2.4-0.4
			c9.1,0,11.2,10.9,11.5,13.6L129.9,32.2z"/>
	</g>
	<path fill="#FBD7C7" d="M51.7,80.3c0,0-0.9,1.2-2.2,1.6c-1.2,0.4-6.9,2.7-8.6,4.1c-1.7,1.4-6.2,7.4-5.9,8.9
		c0.3,1.5,3.6,1.3,5.1,0.8c1.4-0.5,3.1-2,4.3-3.4c1.3-1.4,6.2-4.6,7-4.3c0.9,0.3-3.7,3.2-4.5,4.1c-0.8,0.9,0.7,1.4,2.3,0.9
		c2-0.6,5.1-3.2,5.7-4.3c0.6-1,1.7-3.8,1.7-3.8l0.7-0.3L51.7,80.3z"/>
	<path fill="#3399CC" d="M51.1,80.5c0,0.5,5.1,5,6.3,4.8s7.4-3.2,10.6-4.6c2.2-0.9,7.7-4.2,11.1-5.4s17-4.9,20.8-6
		c5.7-1.6,6.8-8.5,4.4-12.2c-2.5-3.7-5.6-5.5-10.7-2.7c-5.1,2.8-21.4,10.3-24.6,12.2C64.9,69.2,51.3,78.3,51.1,80.5z"/>
	<path fill="#3399CC" d="M96.9,53.1c4.1-0.8,7.8,0.5,9.7,10.3c1.5,8-0.6,15-4,15.8c-3.7,0.9-8.5-11.7-8.8-18.1
		C93.6,54.7,94.8,53.4,96.9,53.1z"/>
</g>
</svg>
