<?xml version="1.0" encoding="utf-8"?>
<!-- Generator: Adobe Illustrator 18.1.0, SVG Export Plug-In . SVG Version: 6.00 Build 0)  -->
<svg version="1.1" id="Layer_1" xmlns="http://www.w3.org/2000/svg" xmlns:xlink="http://www.w3.org/1999/xlink" x="0px" y="0px"
	 viewBox="0 0 80 240" enable-background="new 0 0 80 240" xml:space="preserve">
<g>
	<path opacity="0.2" d="M54.3,224.7c-8.2,5.8-18.7,6.7-28.2,3c-17.5-6.8-16-12.6-8.1-18.3s9-5.6,19.9-2.3S63.8,217.9,54.3,224.7z"/>
	<path fill="#2D3134" d="M22.6,208c1-1,5.1-3.9,7.7-2.5c2.6,1.4,2.7,3,1.6,5.4c-0.9,1.9-3.9,5.1-5.5,6.9c-1.6,1.8-5.3,4.1-8.1,3.7
		c-3.6-0.4-3.9-2-2.9-5C16.3,213.6,22.6,208,22.6,208z"/>
	<path opacity="0.5" d="M32.2,207.1c0,0.7-0.3,1.4-0.7,2.3c-0.9,1.9-3.9,5.1-5.5,6.9c-1.6,1.8-5.3,4.1-8.1,3.7
		c-1.6-0.2-2.6-0.6-3-1.3c-0.1,1.6,0.8,2.5,3.4,2.8c2.8,0.3,6.5-1.9,8.1-3.7s4.6-5,5.5-6.9C32.6,209.4,32.8,208.2,32.2,207.1z"/>
	<path fill="#06547A" d="M16.7,112.2c0,0-6.7,4.1-6.7,15.3s5.9,27,5.1,36c-0.8,9-2.3,14.9-2.3,30.9c0.1,15.9,0.6,22.1,1.5,23.5
		c1.4,2.2,7.8,1.3,10.7-1c1.7-1.4,3.4-3.7,3.3-5.7c-0.2-2-1.9-9.9-1.1-20.1c0.9-10.2,4.5-19.3,5.2-28.5c0.7-9.2,3-41.5,3-41.5
		L16.7,112.2z"/>
	<path opacity="0.2" d="M16.7,112.2c0,0-6.7,4.1-6.7,15.3s5.9,27,5.1,36c-0.8,9-2.3,14.9-2.3,30.9c0.1,15.9,0.6,22.1,1.5,23.5
		c1.4,2.2,7.8,1.3,10.7-1c1.7-1.4,3.4-3.7,3.3-5.7c-0.2-2-1.9-9.9-1.1-20.1c0.9-10.2,4.5-19.3,5.2-28.5c0.7-9.2,3-41.5,3-41.5
		L16.7,112.2z"/>
	<path fill="#2D3134" d="M43.6,216.9c1.8-0.1,9.7-1.2,11.5,1.2c1.2,1.7,1.3,4.1-1.1,5.7c-2.4,1.6-7.6,2.7-12.5,3.6
		c-5.1,0.9-8.4,1.2-9.8,0.6c-2-0.9-1.4-3.5-0.7-6.2C31.8,219.1,43.6,216.9,43.6,216.9z"/>
	<path opacity="0.5" d="M55.1,218.1c-0.2-0.2-0.4-0.4-0.7-0.6c0.7,1.6,0.5,3.6-1.5,4.9c-2.4,1.6-7.6,2.7-12.5,3.6
		c-5.1,0.9-8.4,1.2-9.8,0.6c0,0-0.1,0-0.1-0.1c0.2,0.7,0.6,1.2,1.2,1.5c1.3,0.6,4.7,0.3,9.8-0.6c4.9-0.9,10.1-2,12.5-3.6
		S56.2,219.8,55.1,218.1z"/>
	<path fill="#06547A" d="M21.9,115.4c0,0-6.6,5.9-5.8,16.6c0.8,10.9,19.8,29.1,20.9,33.9s-3.1,14.8-6.2,41.5c-0.9,7.3-1.9,17,0.3,18
		c2.2,1,9.7-0.1,11.8-1.9c2.2-1.8,3-2.5,2.4-7s1.5-16.9,4.2-27.3c2.5-9.6,5.4-17.7,4.9-22.4c-0.5-4.7-1.5-15-4.2-24
		c-1.9-6.7-7.4-20.6-7.4-20.6L21.9,115.4z"/>
	<path fill="#3399CC" d="M8.9,72.8c0,2.7-2,18.7-1.7,21.6s4,6.7,7.9,8.9c3.9,2.2,9.1,3.2,9.1,3.2L8.9,72.8z"/>
	<path fill="#FBD7C7" d="M18.4,63.6c0.9-1.5,3-7.9,3.1-11.9c0.1-4.1-2.4-18.5,11.1-18.6s11.5,14.4,10.6,18.1
		c-0.9,3.8-2.1,10-4.4,10.6c-2.7,0.7-3.8-1-4.7,0.2c-0.9,1.2-1.5,2.8-1,4.2s1.3,2.7,1.3,2.7s-7.2,0.1-11.5-1.3S18.4,63.6,18.4,63.6z
		"/>
	<path fill="#99CC33" d="M19.9,63.7c-1.9-0.6-8.3-1.8-10.2,3.1s-0.4,12.8,0.9,18s4.3,14.5,3.1,20.7s-5.4,18.9-4.1,21.8
		s11.2,3.8,17.9,4.6c7,0.9,18.5,1.1,19.2-0.3c0.8-1.4,0.2-24.9,0.2-29.3c0-4.4,2.8-10.3,1.7-17.4c-0.9-5.4-10.3-14-12.9-15.7
		C33,67.6,22.6,64.6,19.9,63.7z"/>
	<path fill="#762C07" d="M38.3,51.7c0.7,0,5.4-6.8,5.8-8.9c0.3-2.1-2.4-9.9-11.1-10.1c-8.6-0.2-11.4,4.6-12.8,9.8s0,16.9,1.5,18
		s9.4,0.1,10.6-3.5c1.2-3.6,1.8-6.2,3.5-7C37.7,49.3,37.7,51.7,38.3,51.7z"/>
	<path fill="#762C07" d="M24,54.7c-0.6,0.4-7.5,4.8-7.6,11.4c-0.1,6.7-3.1,16.3-6.7,20.9c6.2-2.3,15.7-5.7,17.1-16.2
		C28.3,60.4,24,54.7,24,54.7z"/>
	<path fill="#FBD7C7" d="M55,117.6c0,0,6-1.1,7.2,0.4c1.2,1.4,1.5,6.6,0.4,8c-1.1,1.3-5.3,0.8-6.2,0s-3.8-3.3-3.8-3.3L55,117.6z"/>
	<path fill="#3399CC" d="M32.6,73.7c4.3-1.8,8.7,2,9.6,9.8c0.9,7.9,2,23.1,2.3,24.2s3.6,2.7,6.2,4.9c2.9,2.4,4.9,4.4,4.9,4.4
		s0.2,2-0.4,3.5c-0.7,1.5-1.8,2.7-1.8,2.7s-5-2.3-7.9-3.6c-2.9-1.3-8.3-3.3-9.3-5.3s-6.6-25.2-7.1-31C28.6,77.7,29.4,75.1,32.6,73.7
		z"/>
	<g>
		<path fill="#FFCC00" d="M42.5,45.8c2.9-1,6.8-5.6,5.8-8.6c-1-3.1-5.6-4.7-8.6-4.6C36.6,32.7,42.5,45.8,42.5,45.8z"/>
		<path opacity="0.2" d="M42.5,45.8c2.9-1,6.8-5.6,5.8-8.6c-1-3.1-5.6-4.7-8.6-4.6C36.6,32.7,42.5,45.8,42.5,45.8z"/>
		<path fill="#FFCC00" d="M18.7,48.4c2.2,2.4,11.8,4.6,19,0.8s9.4-9.2,7.4-13.9C42.4,29,29.9,25.8,23,31.7S17.2,46.8,18.7,48.4z"/>
		<path fill="#FFCC00" d="M19.9,48.9c-1.5-1.7-2.5-10.8,4.3-16.7c4-3.5,10-3.8,14.8-2.2c-5-2.1-11.7-2-16,1.8
			c-6.8,5.9-5.8,15.1-4.3,16.7c0.6,0.7,1.8,1.3,3.3,1.8C21.1,49.8,20.4,49.4,19.9,48.9z"/>
		<path opacity="0.2" d="M39.8,30.7c-5-2.1-11.5-2.3-15.9,1.5c-3,2.6-4.6,6.1-5.3,9c0.4,0.2,0.8,0.3,1.2,0.4c0.6-2.9,2.3-6.4,5.3-9
			C29.2,29.1,35,29.1,39.8,30.7z"/>
		<path opacity="0.2" d="M26.1,33.1c-2.7,2.7-4,6-4.6,8.9c0.4,0.1,0.7,0.1,1.1,0.2c0.5-2.9,1.9-6.1,4.5-8.7
			c3.6-3.5,8.9-3.8,13.2-2.2C35.9,29.2,30,29.3,26.1,33.1z"/>
	</g>
</g>
</svg>
