<?xml version="1.0" encoding="utf-8"?>
<!-- Generator: Adobe Illustrator 18.1.0, SVG Export Plug-In . SVG Version: 6.00 Build 0)  -->
<svg version="1.1" id="Layer_1" xmlns="http://www.w3.org/2000/svg" xmlns:xlink="http://www.w3.org/1999/xlink" x="0px" y="0px"
	 viewBox="0 0 160 240" enable-background="new 0 0 160 240" xml:space="preserve">
<g>
	<path opacity="0.2" d="M75.8,221.1c-15.9-8.4-10.2-11-4.1-14.4c6.1-3.5,14.9-1.9,23.3,2.2s17.2,8,4.8,13.1
		C87.3,227.1,83.2,225,75.8,221.1z"/>
	<path fill="#2D3134" d="M72.9,205.3c-1,3.5,0,7,0.8,9.2c0.9,2.4,3,6.6,7.8,6.5c4.8-0.2,6.6-3.4,5.5-10.3
		C86,203.8,73.9,201.8,72.9,205.3z"/>
	<path opacity="0.5" d="M72.9,205.3c0.6-2.1,5-2.2,8.8-0.6c-3.1-0.1-7.9,0.3-8.2,2c-0.5,2.4,0.2,8.9,4.8,11.8
		c3.8,2.5,7.2,0.6,7.6-1.1c0.3-1.3-0.5-7.7-1.1-10.6c1.1,1.1,1.9,2.4,2.2,3.9c1.1,6.9-0.7,10.1-5.5,10.3c-4.8,0.2-6.9-4.1-7.8-6.5
		C72.9,212.3,72,208.8,72.9,205.3z"/>
	<path fill="#2D3134" d="M92.2,208.3c1.7,0.8,3.5,3.8,5.3,4.2c1.8,0.4,4.1,1.6,4.5,2.9c0.3,1,0.2,3.2-2.1,3.7
		c-2.3,0.5-9.4,2.1-12.2,1.1s-9.8-6.6-9.8-7.1S86.8,205.8,92.2,208.3z"/>
	<path opacity="0.5" d="M79.1,212.3c0.7,0.6,1.4,1.1,2,1.5c2,1.4,5.7,4.6,8.8,4.8c2.8,0.2,10.3-1.5,12.3-2.3c0,1.1-0.5,2.4-2.3,2.8
		c-2.3,0.5-9.4,2.1-12.2,1.1s-9.8-6.6-9.8-7.1C77.9,213.1,78.4,212.7,79.1,212.3z"/>
	<path fill="#06547A" d="M60.1,135.7c9.3,0.8,26.8,4.9,30.1,9.9s1.4,10.5,0.3,15.4S86.8,189.4,87,195c0.1,5.6,2.6,13.3-0.8,14.2
		c-3.4,0.8-9.8,3.5-11.7,1.1c-1.9-2.5-4.8-10.6-4.5-12c0.3-1.4,1.9-0.5,3.5-14.4c1.7-14.8,1.9-21.8,1.9-21.8s-14.7-3.3-23.3-6.5
		C34.4,148.9,50.9,134.9,60.1,135.7z"/>
	<path opacity="0.2" d="M60.1,135.7c9.3,0.8,26.8,4.9,30.1,9.9s1.4,10.5,0.3,15.4S86.8,189.4,87,195c0.1,5.6,2.6,13.3-0.8,14.2
		c-3.4,0.8-9.8,3.5-11.7,1.1c-1.9-2.5-4.8-10.6-4.5-12c0.3-1.4,1.9-0.5,3.5-14.4c1.7-14.8,1.9-21.8,1.9-21.8s-14.7-3.3-23.3-6.5
		C34.4,148.9,50.9,134.9,60.1,135.7z"/>
	<path fill="#06547A" d="M43.3,141.9c6.6,2.3,18.9,6.7,23.3,8.2s10.6,2.6,12.5,7.2s1.2,18.5,5.4,29.6c4.2,11.2,9.5,21.4,9.8,22.6
		c0.3,0.9-2.6-0.2-4.7,1.8c-2.2,1.9-4.8,2.6-8.4,2.3c-3.5-0.3-3.5-1-3.5-1s-0.5-3.6-1.9-8.1c-1.5-4.6-6.1-15.2-8.6-24.1
		s-1.8-13.1-2.7-13.5c-1-0.4-11.8-1.5-21.5-3.3c-9.8-1.8-13.5-9.1-13.5-17.7c0-8.6,3.3-11.1,3.3-11.1L43.3,141.9z"/>
	<path fill="#FBD7C7" d="M73.6,128.2c0,0,4.3,3.9,5.4,5.4c1.4,2,0.9,5.9-0.4,7.5s-4,1.7-4.2,1.3s1.9-2.4,2.1-3.3
		c0.1-0.5,0-1.3,0-1.3s-0.8,0.2-1.3,0c-1.9-0.8-4.1-4.6-4.2-5.4c-0.1-0.8-1.3-2.1-1.3-2.1L73.6,128.2z"/>
	<path fill="#762C07" d="M39.6,69.5c-0.5,0.3-6.4,4.1-6.5,9.7c-0.1,5.7-2.6,13.9-5.7,17.8c5.3-1.9,13.4-4.9,14.6-13.8
		S39.6,69.5,39.6,69.5z"/>
	<path fill="#3399CC" d="M73.8,128l-4,3.1c0,0-4.3-4.5-7.5-8.1s-9.3-12.4-9.3-12.4l6.7-4.6c0,0,6.6,9.4,8.9,13.2
		C71,123,73.8,128,73.8,128z"/>
	<path fill="#3399CC" d="M56.4,81.8c-3.1-0.9-20.8,0.7-24,5.6c-4.9,7.6,2.8,25.8,2.6,31.2s-0.6,9.9-1.1,12.5s13.5,6,20.9,5.8
		s8.7-4.9,8.8-7.1c0.1-2.2-0.4-7.6-0.6-10.4s-0.6-6.6,0-8.8c0.6-2.2-1.8-18.1-2.9-21.8S58.2,82.3,56.4,81.8z"/>
	<path fill="#99CC33" d="M49.7,81.8c1.4-0.2,7.8-1.9,10,3.8c1.6,4.2,5.2,11.4,6,14.3c0.7,2.7,0.6,6.7,0.1,9.8
		c-0.9,5.9-0.4,9.8-0.1,16.9c0.3,7.1,3.9,9.1,3.1,10.8s-6.7,6.3-8.5,6c-1.8-0.3-2.1-7.8-1.9-15.1c0.1-3.4,0.3-12.8,0.1-19.3
		c-0.1-3.6-3.8-17.3-5-20.5S49.7,81.8,49.7,81.8z"/>
	<path fill="#FBD7C7" d="M49.3,55.6c5.2,0.1,12,6.1,11.3,13.8c-0.6,7.7-3.4,15.9-5.3,16.6c-1.9,0.7-4.1-0.4-4.1-0.4s2.5,3.5,1.2,4.5
		c-1.3,0.9-7.6-0.4-10.9-2.4S38.4,84,38.4,84s3-4.7,2.8-7.3c-0.2-2.6-4.4-7.9-1.6-14.6C42.2,55.8,45.4,55.5,49.3,55.6z"/>
	<path fill="#762C07" d="M60.8,65.7c-0.4,1.3-3.4,1.9-6.2,2c-2.7,0.1-5.3,0.4-6.5,2c-1.2,1.6-2.2,3.3-3.2,2.8
		c-1-0.5-2.5-2.7-4.1-2.4c-1.5,0.3-0.6,3.7-0.6,3.7s-4.7-10.6,1-16c4.1-3.9,10.7-3.7,15.2,0.1C60.8,61.6,61,65.1,60.8,65.7z"/>
	<path fill="#99CC33" d="M37.7,83.7c-2,0.1-8.8,5.5-9.8,8c-3.8,8.9,4,26.2,4,30.3c0,4.1-2.8,20.2-3,23c-0.2,2.8,7.8,4.6,12.6,5.4
		s14.6-2.7,15.6-4.4c0.9-1.8,1.8-10.5,1.6-18.8s0.2-14.2-2.4-20.4C51,94.3,38.2,83.7,37.7,83.7z"/>
	<path fill="#FBD7C7" d="M47.6,143.2c0,0,0.6,1.3,1.3,1.3c0.6,0,3.5-0.1,4.2,1.3c0.7,1.4,0.6,2.2,2.5,3.3s5.5,1.4,5.4,2.5
		c-0.1,1.3-2,2.5-3.3,2.9c-1.4,0.4-6.6,1.5-8.4,0c-1.8-1.5-3.9-4.8-4.2-5.4s-2.1-2.3-2.1-2.9S47.6,143.2,47.6,143.2z"/>
	<path fill="#3399CC" d="M48.5,143.8l-5,3.8c0,0-6.1-7-9.1-10.2c-2.2-2.4-5.9-7.5-6.3-9.8c-0.4-2.3-0.7-19.3-0.7-24.2
		c0-3-1.6-13.2,4.9-12.9s7.2,6,6.7,12.4s-2.3,20.7-1.7,21.8c0.5,0.9,5.1,8.5,6.8,11.2C45.6,138.3,48.5,143.8,48.5,143.8z"/>
	<g>
		<path fill="#FFCC00" d="M64.2,66.5c0,0,2.7,1.2,2.7,2c0,0.8-7.9,4.3-13.4,3.7c-5.5-0.6-15.4-3.4-15.9-4.8C37,66.1,38.3,52,49.7,52
			C63.1,52,64.2,66.5,64.2,66.5z"/>
		<path opacity="0.2" d="M66.9,68.5c0,0.8-7.9,4.3-13.4,3.7C49.2,71.8,42,69.9,39,68.5c3,1,7,2.1,9.9,2c5.2-0.2,13.6-2.7,15.3-3.9
			C64.2,66.5,66.9,67.7,66.9,68.5z"/>
		<path opacity="0.2" d="M62.8,64.9l-1.2,0.4c-0.6-3.5-3.1-12.7-13.1-12.7c-0.6,0-1.2,0-1.7,0.1c0.9-0.2,1.8-0.4,2.9-0.4
			C59.6,52.3,62.2,61.3,62.8,64.9z"/>
		<path opacity="0.2" d="M58.6,66.3c-0.3-2.5-1.9-13.2-10.7-13.2c-0.5,0-0.9,0-1.4,0.1c0.7-0.2,1.5-0.4,2.3-0.4
			c8.7,0,10.7,10.4,11,13L58.6,66.3z"/>
	</g>
</g>
</svg>
