<?xml version="1.0" encoding="utf-8"?>
<!-- Generator: Adobe Illustrator 18.1.0, SVG Export Plug-In . SVG Version: 6.00 Build 0)  -->
<svg version="1.0" id="Layer_1" xmlns="http://www.w3.org/2000/svg" xmlns:xlink="http://www.w3.org/1999/xlink" x="0px" y="0px"
	 viewBox="0 0 80 240" enable-background="new 0 0 80 240" xml:space="preserve">
<g>
	<path fill="#3399CC" d="M56.2,70.1c0.5-0.3,7.6-0.2,7.6-0.2L58,66c0,0-1.5-5.9-2.8-11.1c-0.6-2.3,0.4-3.5,0.4-3.5s9.1,6,12.7,9.7
		c3.6,3.6,9.2,11.9,9,14.8c-0.2,3-1.3,4.4-3,4.3c-1.6-0.1-11.1-1.1-12.5-1.1s-5.3-0.5-5.5-0.9S54.8,71,56.2,70.1z"/>
	<path opacity="0.2" d="M12.5,224.6c-12.3-8.2,0.2-17,17.1-21.3c7.4-1.9,20.2-11.6,39.8-1.1c15.8,8.5-7.5,12.3-16.4,16.8
		C42.3,224.4,34,238.8,12.5,224.6z"/>
	<path fill="#2D3134" d="M46.9,193.1l10.4,1.2c0,0,0.2,1.8,2.1,3.8c1.9,2,10.1,6.4,11.7,7.6c2.8,2.1,0.9,5-1.5,5.3
		c-2.6,0.4-6.1-0.4-10.5-2c-3.4-1.2-7.4-2.3-11.3-3.6c-3.3-1.1-2.5-5.9-2-8C46.4,195.4,46.9,193.1,46.9,193.1z"/>
	<path opacity="0.4" d="M69.6,209.5c-2.7,0.4-6.5-0.5-11.2-2.2c-3.7-1.3-7.9-2.5-12-3.9c-0.3-0.1-0.5-0.2-0.7-0.3
		c0.3,1,1,1.9,2.2,2.3c3.8,1.3,7.8,2.4,11.3,3.6c4.4,1.6,7.9,2.4,10.5,2c1.8-0.3,3.2-1.9,2.8-3.5C71.9,208.6,70.8,209.3,69.6,209.5z
		"/>
	<path fill="#06547A" d="M57.1,94.2c0,0,6.1,23.2,5.7,34.4s-2.4,23.6-2.9,33c-0.5,9.4-0.4,30.7,0.1,34.9c0.6,4.8-1.8,5.1-4.8,5.2
		c-3.1,0.1-9.1-0.9-10.1-1.9c-1-1-0.9-8.7-0.9-14.3s-0.5-14-0.1-21.9c0.3-6.8-2.2-16.2-3.6-21.4s-7.4-22.6-7.8-27.4
		c-0.4-4.8-0.1-15.2-0.1-15.2L57.1,94.2z"/>
	<path opacity="0.2" d="M57.1,94.2c0,0,6.1,23.2,5.7,34.4s-2.4,23.6-2.9,33c-0.5,9.4-0.4,30.7,0.1,34.9c0.6,4.8-1.8,5.1-4.8,5.2
		c-3.1,0.1-9.1-0.9-10.1-1.9c-1-1-0.9-8.7-0.9-14.3s-0.5-14-0.1-21.9c0.3-6.8-2.2-16.2-3.6-21.4s-7.4-22.6-7.8-27.4
		c-0.4-4.8-0.1-15.2-0.1-15.2L57.1,94.2z"/>
	<path fill="#2D3134" d="M10.7,208.9c0.2,0.1,10.6,2.2,10.6,2.2s2.7,6,5.3,8.1c2.1,1.8,8,5.7,7.7,7.9s-6.3,4-11.9,1.1
		C19.9,227,9.5,221.7,9,218.2C8.4,214.2,10.7,208.9,10.7,208.9z"/>
	<path opacity="0.4" d="M22.5,226.5c-2.6-1.3-12.9-6.6-13.4-10.1c0-0.2,0-0.3-0.1-0.5c-0.1,0.8-0.1,1.6,0.1,2.3
		c0.5,3.5,10.8,8.8,13.4,10.1c5.6,2.9,11.6,1.1,11.9-1.1c0-0.3-0.1-0.7-0.3-1.2C32.8,227.9,27.5,229.1,22.5,226.5z"/>
	<path fill="#06547A" d="M49.8,99.5c-0.3,6.5-5.2,33.2-8.9,45.3c-3.7,12.1-6.5,19.8-8.3,26.8c-1.8,7-5.9,23.7-7,32
		c-0.4,3.2-1,12-1.7,12.9c-3.3,4.1-11.3,2-12.9,0.6c-1.7-1.6-2.6-2.4-2.2-5.5c0.4-3.1,1.7-21.3,2.7-27.8c1.7-10.7,5-15,6.1-20.1
		s-1.1-24.1,2.3-42s7.5-21.7,7.5-21.7L49.8,99.5z"/>
	<polygon fill="#3399CC" points="30.1,47.1 40.5,44.2 47.5,45.9 50.7,107.8 	"/>
	<path fill="#99CC33" d="M30.1,47.1c0,0-9.9,3.1-13.7,6.6c-6.1,5.7-0.4,20.2,3.4,31.8s-1.7,33.4-1.3,34.3c0.8,1.6,24.1,5.1,29.2,1.7
		c2.4-1.6,2.7-21.1,1.7-29.8s-4.6-17.1-6.7-22.2C40.8,65,30.1,47.1,30.1,47.1z"/>
	<path fill="#99CC33" d="M46.1,46.9c0.6,0.4,9,2.2,10.8,4.8c3.7,5.3,3,18.2,3,22.7c0,4.5,0.4,24.9,1.6,34.6c0.5,3.9,1.9,9.2,1.2,9.9
		c-1,1.1-8.5,3.6-10,0.5c-1.2-2.5-5-27.2-5.2-33C47.4,80.7,46.1,46.9,46.1,46.9z"/>
	<path fill="#FBD7C7" d="M30.8,47c0,0,2.6-1.1,2.7-2.9c0.2-1.9-5.6-9.2-0.8-16s16.9-5.5,19,1.2s2.3,19.6,0.7,21c-2,1.7-5.6,1-5.6,1
		s-1.2,3.1-0.9,4.9c0.4,2.5-1.9,2.7-3.2,2.7C40.9,58.7,33.2,53.9,30.8,47z"/>
	<path fill="#762C07" d="M32.8,42.3l1.5,0.9c0,0-3.9-5.4-1.3-6.5c2.6-1.1,3.9,2.2,3.9,2.2s1.9-3.4,5-3.7s11.4-2.2,11.1-4.8
		c-0.1-1-3.4-10-13.2-8.3s-10.2,9.9-9.6,13.2C30.7,38.7,32.8,42.3,32.8,42.3z"/>
	<g>
		<path fill="#FFCC00" d="M56.5,33.2c0,0,2.8,1.2,2.8,2.1c0,0.9-8.3,4.5-14,3.9s-16.1-3.5-16.7-5c-0.6-1.5,0.7-16.2,12.7-16.2
			C55.3,17.9,56.5,33.2,56.5,33.2z"/>
		<path opacity="0.2" d="M59.3,35.2c0,0.9-8.3,4.5-14,3.9c-4.6-0.5-12.1-2.4-15.2-4c3.1,1.1,7.3,2.2,10.4,2.1
			c5.4-0.2,14.2-2.8,16.1-4.1C56.5,33.2,59.3,34.4,59.3,35.2z"/>
		<path opacity="0.2" d="M55,31.5l-1.2,0.4c-0.6-3.6-3.3-13.3-13.8-13.3c-0.6,0-1.2,0.1-1.8,0.1c0.9-0.3,1.9-0.4,3-0.4
			C51.6,18.3,54.3,27.7,55,31.5z"/>
		<path opacity="0.2" d="M50.6,33c-0.3-2.6-2-13.8-11.2-13.8c-0.5,0-1,0.1-1.4,0.1c0.7-0.3,1.5-0.4,2.4-0.4
			c9.1,0,11.2,10.9,11.5,13.6L50.6,33z"/>
	</g>
	<path fill="#FBD7C7" d="M50.1,72.6c0,0-5.6-0.4-7.4-0.6c-3-0.3-9.7,1.9-12,5.4c-1,1.6,0.9,5.6,2.3,6c1.4,0.4,8.2-1.3,10-1.7
		c1.9-0.4,6.5-2.1,6.5-2.1l1.1,0.1l0.4-7L50.1,72.6z"/>
	<path fill="#FBD7C7" d="M56.7,76c0,0,0.3-4.9,1.1-8.1c0.3-1.4,1-4.3,1.9-6s2.6-2.4,3.5-2.1c0.9,0.3,3.9,1,4.5,2.1
		c0.6,1.1,0.4,3.6,0,5.1c-0.3,1.5-1.5,7.5-2.5,9.6s-1.6,3.5-2.7,4c-1.2,0.5-1.8,0.6-1.8,0.6L56.7,76z"/>
	<path fill="#3399CC" d="M56.8,74.1c1.8-0.8,5.3,0.5,6.6,1.4c1.3,1,2.2,3.8,1.8,4.4c-0.4,0.6-14.3,8.7-16.1,9.9
		c-1.8,1.1-11.1,5.9-13.7,5.5S28,88.2,24.1,81.5c-3.9-6.6-5.8-10.1-9.1-17.6c-2.6-5.9,5.2-13.8,11.4-6c6.6,8.3,12.9,24,12.9,24
		s7-3,9.1-3.9C51.2,76.7,55.4,74.7,56.8,74.1z"/>
	<path fill="#3399CC" d="M48.4,72.1c0.3-0.2,7.9-0.2,12.9-0.5c4.2-0.2,5.9-0.7,5.9-0.7s10.3,2,10.1,4.9c-0.2,3,0.4,4.4-2.8,5.1
		c-4.4,0.9-8.7,1.4-15.8,1.2c-8-0.2-14.1-2.1-14.3-2.5C44.1,79.3,47,73,48.4,72.1z"/>
</g>
</svg>
