<?xml version="1.0" encoding="utf-8"?>
<!-- Generator: Adobe Illustrator 18.1.0, SVG Export Plug-In . SVG Version: 6.00 Build 0)  -->
<svg version="1.0" id="Layer_1" xmlns="http://www.w3.org/2000/svg" xmlns:xlink="http://www.w3.org/1999/xlink" x="0px" y="0px"
	 viewBox="0 0 160 240" enable-background="new 0 0 160 240" xml:space="preserve">
<g>
	<path fill="#FBD7C7" d="M72.9,41.3c0,0-1.4-2.9-3.4-4.3c-2.1-1.4-6.5-2.8-9.1-2.6c-2.6,0.2-4.3,1.3-5.1,3.7c-0.6,1.7-0.1,2.8,2,2.8
		c2.1,0,6.8,2.8,7.9,3.2c1.6,0.7,3.5,1.3,3.5,1.3L72.9,41.3z"/>
	<path fill="#3399CC" d="M105.5,50.5c-2.4-1.1-10.6-1.7-14.2-2.2c-3.5-0.6-9.4-2.6-12.3-4c-2.5-1.3-5.3-3.1-6.2-3.1
		c-1,0-5.1,2.7-5.2,4.1c0,1.4,5.3,5.8,8.5,7.9c3.2,2.1,17.8,10,19.6,10.9C99.2,65.9,105.5,50.5,105.5,50.5z"/>
	<path opacity="0.2" d="M146.1,224.8c15.9-10.7-0.4-14.4-14.7-20.3c-13.8-5.6-23.9-15-39.8-2.5c-12.8,10.1,10.5,17.6,17.4,21
		C119.4,228.2,131.3,234.8,146.1,224.8z"/>
	<path fill="#2D3134" d="M90.4,205.6c0,0-2,4.2,0.5,5c2.5,0.8,5.3,0,9.6-2.2s12.1-4.2,13.9-7.4c1.7-3.1-2.8-6.1-9.6-4.2
		c-6.8,1.8-5.5,1.5-5.5,1.5L90.4,205.6z"/>
	<path opacity="0.4" d="M114.4,198.4c0,0.4-0.1,0.8-0.4,1.2c-1.8,3.2-9.6,5.2-13.9,7.4c-4.3,2.2-7.2,3-9.6,2.2
		c-0.4-0.1-0.7-0.4-0.9-0.6c0,0.9,0.3,1.7,1.2,2.1c2.5,0.8,5.3,0,9.6-2.2c4.3-2.2,12.1-4.2,13.9-7.4
		C115,200.1,114.9,199.2,114.4,198.4z"/>
	<path fill="#2D3134" d="M127.8,220.4c0,0-3.2,7.1,1.4,8.1c4.6,1,8.6-3.3,10.9-4.7c2.4-1.5,8-5,9.5-6.9c1.1-1.3,0.8-6.6-5.8-5.8
		s-10.4,4.4-10.4,4.4L127.8,220.4z"/>
	<path opacity="0.4" d="M149.1,212.3c0.5,1.2,0.3,2.6-0.2,3.2c-1.5,1.9-7.1,5.4-9.5,6.9c-2.4,1.5-6.3,5.7-10.9,4.7
		c-0.6-0.1-1.1-0.4-1.4-0.7c0.3,1,1,1.7,2.3,2c4.6,1,8.6-3.3,10.9-4.7c2.4-1.5,8-5,9.5-6.9C150.4,216,150.5,213.8,149.1,212.3z"/>
	<path fill="#06547A" d="M106.1,96.9c0.5,0.3,21.2,3.8,21.2,3.8s-7.4,36.6-11.5,47c-4.2,10.4-9.1,27.7-10.3,33.8
		c-1.3,6.5-2.3,17.1-2.2,17.9c0.3,2-3.1,7.6-8.2,8.8c-5.1,1.2-6.5-0.4-6.4-1.4c0.3-5.7,1-23.7,3.3-34.3c1.6-7.4,5.1-15.7,5.4-19.8
		c0.3-4.1-0.7-27.5,2.7-39.9C103.4,100.4,106.1,96.9,106.1,96.9z"/>
	<path opacity="0.2" d="M106.1,96.9c0.5,0.3,21.2,3.8,21.2,3.8s-7.4,36.6-11.5,47c-4.2,10.4-9.1,27.7-10.3,33.8
		c-1.3,6.5-2.3,17.1-2.2,17.9c0.3,2-3.1,7.6-8.2,8.8c-5.1,1.2-6.5-0.4-6.4-1.4c0.3-5.7,1-23.7,3.3-34.3c1.6-7.4,5.1-15.7,5.4-19.8
		c0.3-4.1-0.7-27.5,2.7-39.9C103.4,100.4,106.1,96.9,106.1,96.9z"/>
	<path fill="#06547A" d="M112.9,99.5c0,0-2.7,11.2-1.8,17.5s2.5,13.4,5.2,23.5c2.8,10.4,7.2,20.7,6.4,30.3s-0.1,24.5,0.3,34.2
		c0.4,11.4,0.9,20.6,3.6,21.3c4.3,1.2,10.5-3.3,11.7-6.2c1.2-3,1.8-4.4,1.2-7.5c-0.3-1.6-1.5-18.1-1.1-27.1s1.8-22.3,3-32.8
		c1.2-10.5,0.8-20.8-1.2-31.8s-2.3-20-2.3-20L112.9,99.5z"/>
	<path fill="#FBD7C7" d="M107.1,49.9c0,0,4.3,4.8,7.7,5.8c3.9,1.1,11.1,0.1,11.1,0.1s2.3-8.3,2.9-9.5c0.6-1.2,2.8-1.1,3.2-3.8
		s1.8-15.7,0-17.9s-11.4-7.7-16.9-1.2s-2,17.5-2.4,20.1C112.3,46.1,107.1,49.9,107.1,49.9z"/>
	<path fill="#762C07" d="M112.3,45.1c0,0,6.3,2.3,10.1,1.6c3.7-0.7,6-4.4,6-4.4s0.1-5,1.2-6.8c1.1-1.8,1.6-0.8,1.6-0.8
		s2.3-4,2.2-6.9c-0.2-3.8-3.9-9.7-13.8-7.2c-7.8,2-8.9,10.2-8.8,13.7S112.3,45.1,112.3,45.1z"/>
	<path fill="#99CC33" d="M108.7,48.5c0,0-11.3-2.2-13.8,3.2c-2.6,5.4,2.3,23.7,3.2,30.5c0.9,6.8,2.5,12.4,1.2,23.1
		c-0.9,7.2-2.1,12-0.8,12.5c2.6,1.1,17.7,4.6,28.4,4.3c6.8-0.2,13.1-1.5,13.6-2.1c0.5-0.5-2.5-33.1-2.1-39.2s1.7-15.3-2.2-19
		s-10.2-6-10.2-6s-6.3,0.5-12.1-1.7S108.7,48.5,108.7,48.5z"/>
	<g>
		<path fill="#FFCC00" d="M132.4,33.1c2.9-1,6.7-5.5,5.7-8.6s-5.5-4.6-8.6-4.6C126.5,20.1,132.4,33.1,132.4,33.1z"/>
		<path opacity="0.2" d="M132.4,33.1c2.9-1,6.7-5.5,5.7-8.6s-5.5-4.6-8.6-4.6C126.5,20.1,132.4,33.1,132.4,33.1z"/>
		<path fill="#FFCC00" d="M108.7,35.7c2.1,2.4,11.7,4.6,18.9,0.8s9.4-9.1,7.4-13.8c-2.7-6.4-15.2-9.6-22-3.7S107.3,34.1,108.7,35.7z
			"/>
		<path fill="#FFCC00" d="M109.9,36.2c-1.5-1.7-2.5-10.7,4.3-16.6c4-3.4,9.9-3.8,14.7-2.2c-4.9-2.1-11.6-2-15.9,1.8
			c-6.8,5.9-5.8,15-4.3,16.6c0.6,0.7,1.8,1.3,3.3,1.8C111.1,37.1,110.4,36.7,109.9,36.2z"/>
		<path opacity="0.2" d="M129.7,18.1c-4.9-2.1-11.4-2.3-15.7,1.4c-3,2.6-4.6,6-5.2,8.9c0.4,0.2,0.8,0.3,1.2,0.4
			c0.6-2.9,2.3-6.4,5.2-8.9C119.2,16.6,124.9,16.5,129.7,18.1z"/>
		<path opacity="0.2" d="M116.1,20.5c-2.7,2.6-4,5.9-4.5,8.9c0.4,0.1,0.7,0.1,1.1,0.2c0.5-2.9,1.8-6.1,4.5-8.6
			c3.5-3.4,8.8-3.8,13.1-2.2C125.8,16.7,119.9,16.7,116.1,20.5z"/>
	</g>
	<path fill="#FBD7C7" d="M140.7,122.4c0,0-0.4,3,0.3,5.2s2.1,5.8,1.3,8.1c-0.8,2.3-0.9,5.5-0.2,6.7c0.7,1.1,4.9-4.1,5.1-5.9
		c0.2-1.8,1.1-7.7,0.5-9.9s-2.4-7.7-2.4-7.7L140.7,122.4z"/>
	<path fill="#3399CC" d="M139.8,123.8c0.8,0.5,5.7-2.1,6.3-3.4c0.6-1.3-3.6-9.6-5.5-13.2c-1.5-2.9-3.4-10.1-3.4-10.1
		s0.1-14.2,0.2-18.8c0.1-4.5,2.4-16.6-6.4-16.7c-8.6-0.1-7.9,8.2-7.2,15.1c0.8,6.9,1.7,19.6,4.1,25.7
		C130.3,108.4,138.3,122.8,139.8,123.8z"/>
</g>
</svg>
