<?xml version="1.0" encoding="utf-8"?>
<!-- Generator: Adobe Illustrator 18.1.0, SVG Export Plug-In . SVG Version: 6.00 Build 0)  -->
<svg version="1.0" id="Layer_1" xmlns="http://www.w3.org/2000/svg" xmlns:xlink="http://www.w3.org/1999/xlink" x="0px" y="0px"
	 viewBox="0 0 160 240" enable-background="new 0 0 160 240" xml:space="preserve">
<g>
	<path opacity="0.2" d="M84.1,212.5c9.1-4.4,20.3-1.4,31,3.4c10.7,4.8,25.4,13.4,22.7,16.6c-2.7,3.2-30.5-1.7-40-5.5
		S76.3,216.4,84.1,212.5z"/>
	<polygon fill="#FBD7C7" points="108.5,75.2 111.8,75.4 112,82.6 105.8,82.4 	"/>
	<path fill="#2D3134" d="M94.1,210.9c0,0-1,1.7-1.4,1.6c-1.3-0.2-5-0.9-8.2,0.9c-2.4,1.3-0.6,4.9,1.6,6.7c2.2,1.7,9.6,2.7,9.6,2.7
		s-0.2,0.6,0.8,1.1c1,0.5,7.7,2.1,8.8,1.1c1.1-1,1.1-3.3,1.4-6.1c0.5-3.5-0.6-6.9-0.6-6.9s-2.3-0.3-7-0.3
		C94.5,211.7,94.1,210.9,94.1,210.9z"/>
	<path fill="#2D3134" d="M134,195.8c1.1,2.8,1.6,3.5,0.5,8.4c-0.8,3.4-0.9,9.1,1.3,9.9c2.2,0.8,8-4.9,9.3-7.1
		c1.2-2.2,1.3-4.5,1.3-4.5l2.3-0.8c0,0,2.5-3.2,2.3-4.5s-4.2-4.7-5.6-6c-1.5-1.3-3.3-5.5-3.3-5.5s-2.4,3.5-4.4,5.1
		C135.8,192.3,134,195.8,134,195.8z"/>
	<path opacity="0.5" d="M151,197.2c-0.1-0.4-0.4-1-1-1.7c-0.9,0.1-1.9,0.4-2.9,1.1c-1.5,1-6.7,7.1-9.2,10.3c-1.8,2.3-2.6,5.1-2.5,7
		c0.1,0.1,0.3,0.2,0.4,0.2c2.2,0.8,8-4.9,9.3-7.1c1.2-2.2,1.3-4.5,1.3-4.5l2.3-0.8C148.7,201.7,151.2,198.5,151,197.2z"/>
	<path opacity="0.5" d="M105.4,225.1c0.3-0.3,0.6-0.8,0.8-1.4c-0.1,0-0.3,0-0.4,0c-6.3-0.4-8.2-1.4-9.8-1.9
		c-1.6-0.5-3.6-0.5-7.2-1.6c-2.8-0.8-4.4-2.9-5.3-5.1c-0.2,1.6,1.2,3.8,2.7,5.1c2.2,1.7,9.6,2.7,9.6,2.7s-0.2,0.6,0.8,1.1
		C97.6,224.5,104.3,226.1,105.4,225.1z"/>
	<g>
		<path fill="#06547A" d="M137.5,177.1c-4.1-5.9-11.4-14.4-14.6-18c-3.2-3.6-5.9-7.2-6.6-10.5c-0.7-3.3,2.6-20.7,1.6-28
			c-1.2-8.2-3.3-15.4-5.5-19.8c-1.9-3.9-2.8-7-2.8-7s-5.8,2.1-10.4,3.8c-1.9,4.8-2.1,10.2-2.2,16.4c-0.3,11.8,1.9,37,3.5,40.6
			c2.9,6.7,8.6,11.6,11.5,15.5c2.9,3.9,14.4,18.2,17.2,22.5c2.6,4,5,8.6,5.9,8.8s9.7-8.2,10.7-9.5S141.8,183.2,137.5,177.1z"/>
		<path opacity="0.2" d="M137.5,177.1c-4.1-5.9-11.4-14.4-14.6-18c-3.2-3.6-5.9-7.2-6.6-10.5c-0.7-3.3,2.6-20.7,1.6-28
			c-1.2-8.2-3.3-15.4-5.5-19.8c-1.9-3.9-2.8-7-2.8-7s-5.8,2.1-10.4,3.8c-1.9,4.8-2.1,10.2-2.2,16.4c-0.3,11.8,1.9,37,3.5,40.6
			c2.9,6.7,8.6,11.6,11.5,15.5c2.9,3.9,14.4,18.2,17.2,22.5c2.6,4,5,8.6,5.9,8.8s9.7-8.2,10.7-9.5S141.8,183.2,137.5,177.1z"/>
		<path fill="#06547A" d="M99.2,97.6c-2.3,0.8-4.3,1.5-5.2,1.7c-2.7,0.6-14.8,1.3-14.8,1.3s-0.3-0.1-0.7,2.3c0,0-2,9.8-2.4,15.2
			c-0.4,5.4-1.3,18.7,0.9,27.2c2.2,8.5,5.7,25.3,6.6,29.6c1,4.3,6.2,21.8,7.1,27c1.3,7.8,0.3,12.7,1.6,13.8
			c0.9,0.7,13.2,1.8,14.9,0.9s-0.4-12.7-1-17.1c-0.6-4.4-3.8-20.6-5.5-28.1c-1.2-5-3.4-17.2-2.7-22c1.6-12.6,3.6-20.5,3.9-32.3
			C102,110.9,100.6,103.4,99.2,97.6z"/>
	</g>
	<path fill="#3399CC" d="M111.5,60.3c-0.6,4.3-0.4,8.2-0.2,10.5l2.9,4.7l-2.8,0.4l-0.1,7.8c0,0,6.6,0.3,9.4,0.1
		c2.7-0.2,5.9-1.8,5.9-4c0.1-2.3-4.3-9.1-5.1-12.2s-2-10.7-4.8-13.6c-1-1.1-2.9-1.7-3.5-1.8C111.5,53.5,112,56.4,111.5,60.3z"/>
	<g>
		<polygon fill="#FFCC00" points="35,48.5 35,78.5 65,93.5 95,78.5 95,48.5 65,33.5 		"/>
		<polygon opacity="0.11" points="65,93.5 35,78.5 35,48.5 65,63.5 		"/>
		<polygon opacity="0.3" points="53.6,39.2 46.4,42.9 76.4,57.9 76.4,72.5 83.6,68.8 83.6,54.2 		"/>
		<polygon opacity="0.29" points="65,93.5 95,78.5 95,48.5 65,63.5 		"/>
	</g>
	<path fill="#99CC33" d="M115,52.3c-2.5-2-7.3-1.8-9.4-1.5c-1.9,0.2-9.5,1.9-13.1,3.7c-3.6,1.8-11.8,5.1-14,7.3
		c-1.7,1.7-3.7,7.6-3.9,9.3c-0.2,1.6-0.2,5,0.9,8.2c1.1,3.2,1.6,7.4,1.9,10.8c0.3,3.4-4,23.4-2.4,25.4s19.9,0.6,25.1,0
		c10.6-1.3,15.4-3.1,16.3-5.1s-4.6-16.1-5-26.1C111.2,78.2,118.1,54.8,115,52.3z"/>
	<path fill="#FBD7C7" d="M55.2,79.5c1.2,1.5,3.6,3.3,4.3,3.9c0.7,0.6,1.5,1.6,1.8,2.9s0.2,2.5,2.1,3c2.8,0.6,9,1.1,9,1.1l0.4,6.9
		c0,0-9.4-1.7-12-4s-6.4-6.4-7.2-7.9c-0.8-1.5-1.4-3.7-1.7-4.9c-0.5-2-0.9-5.4,0.4-5.4C53.3,75,54.3,78.4,55.2,79.5z"/>
	<path fill="#FBD7C7" d="M79.4,32.2c-0.5,2.6,1.1,8.8,3.1,12.2c2,3.3,2.7,3.8,3.4,4c0.7,0.2,1.9-0.3,2.3,0.7c0.4,1,1.7,4.5,1.8,5.7
		c0.1,1.2,0.1,1.2,0.1,1.2s3.8-1.9,6-1.8c2.2,0.1,5.9-2.8,5.8-3.3s-2.9-6.3-2.2-8.5s2.4-11.3-0.3-15.3C96.6,23,81.2,22.1,79.4,32.2z
		"/>
	<path fill="#762C07" d="M79.1,34.4c0.5,1.8,2.3,3.2,3.1,3.4c0.7,0.3,1.2-0.5,2.1,0.6c0.9,1.1,3,6.4,5.6,7.3s8-0.1,9.8-3.6
		c1.9-3.6,3-12.5-1.6-17.2c-4.2-4.3-10.9-4.6-15.2-1C78.4,27.6,78.6,32.7,79.1,34.4z"/>
	<path fill="#2D3134" d="M97.2,37.3c-2.9,0.7-4,3.2-3.6,4.1c0.4,0.9,6.3-0.2,6.7-2.4C100.8,36.9,99.5,36.8,97.2,37.3z"/>
	<path fill="#762C07" d="M97.4,38.3c-2,0.7-5.3,4.3-4.6,9.1s5.9,7.1,6.5,10.5c0.6,3.4-2.8,6.7-2.8,6.7s14.6-5.3,11.7-16.5
		C105.4,36.9,99.8,37.5,97.4,38.3z"/>
	<path fill="#3399CC" d="M81.9,63.1c3.1-0.5,7,2.5,6.1,8.7c-0.8,6.1-2.3,14.2-3,18.5s-0.3,8.5-4,8.7c-3.7,0.1-8.5-1.4-10-1.7
		s-8.3-2.1-8.9-2.5c-0.4-0.3,0.6-5.6,1.2-5.7s5.7,0.2,8.5,0.3s4.7,0.1,4.7,0.1s0.4-5,0.2-8.4C76.7,77.7,73.6,64.5,81.9,63.1z"/>
	<g>
		<path fill="#FFCC00" d="M79.2,34c-2.9-1-6.7-5.5-5.7-8.5c1-3,5.5-4.6,8.5-4.5S79.2,34,79.2,34z"/>
		<path opacity="0.2" d="M79.2,34c-2.9-1-6.7-5.5-5.7-8.5c1-3,5.5-4.6,8.5-4.5S79.2,34,79.2,34z"/>
		<path fill="#FFCC00" d="M102.7,36.6c-2.1,2.4-11.7,4.6-18.8,0.8s-9.3-9.1-7.4-13.7c2.7-6.3,15.1-9.5,21.9-3.6S104.2,35,102.7,36.6
			z"/>
		<path fill="#FFCC00" d="M101.5,37.1c1.5-1.6,2.5-10.7-4.3-16.5c-4-3.4-9.9-3.8-14.6-2.2c4.9-2.1,11.6-2,15.8,1.8
			c6.8,5.9,5.7,14.9,4.3,16.5c-0.6,0.7-1.7,1.3-3.2,1.8C100.4,38,101.1,37.6,101.5,37.1z"/>
		<path opacity="0.2" d="M81.8,19.1c4.9-2.1,11.4-2.3,15.7,1.4c2.9,2.6,4.6,6,5.2,8.9c-0.4,0.2-0.8,0.3-1.2,0.4
			c-0.6-2.9-2.3-6.3-5.2-8.9C92.3,17.6,86.6,17.5,81.8,19.1z"/>
		<path opacity="0.2" d="M95.4,21.5c2.7,2.6,4,5.9,4.5,8.8c-0.4,0.1-0.7,0.1-1.1,0.2c-0.5-2.9-1.8-6-4.5-8.6
			c-3.5-3.4-8.8-3.8-13-2.2C85.7,17.7,91.6,17.7,95.4,21.5z"/>
	</g>
</g>
</svg>
