<?xml version="1.0" encoding="utf-8"?>
<!-- Generator: Adobe Illustrator 18.1.0, SVG Export Plug-In . SVG Version: 6.00 Build 0)  -->
<svg version="1.0" id="Layer_1" xmlns="http://www.w3.org/2000/svg" xmlns:xlink="http://www.w3.org/1999/xlink" x="0px" y="0px"
	 viewBox="0 0 160 240" enable-background="new 0 0 160 240" xml:space="preserve">
<g>
	<path opacity="0.2" d="M66.3,224.8c15.9-10.7-0.4-14.4-14.7-20.3c-13.8-5.6-23.9-15-39.8-2.5c-12.8,10.1,10.5,17.6,17.4,21
		C39.6,228.2,51.5,234.8,66.3,224.8z"/>
	<path fill="#3399CC" d="M16.4,52.1c-3.5,1.9-3.8,8-4.8,15.6s-2.2,15.8-2,19.2c0.2,3.4,5.1,8.8,7.7,12.2s6.9,7.2,6.9,7.2l3.9-6.8
		c0,0-8.8-12.9-9-13.7c-0.2-0.8,3.9-17.9,4-19.4C23.1,65,16.4,52.1,16.4,52.1z"/>
	<path fill="#2D3134" d="M10.5,205.6c0,0-2,4.2,0.5,5c2.5,0.8,5.3,0,9.6-2.2s12.1-4.2,13.9-7.4c1.7-3.1-2.8-6.1-9.6-4.2
		c-6.8,1.8-5.5,1.5-5.5,1.5L10.5,205.6z"/>
	<path opacity="0.4" d="M34.6,198.4c0,0.4-0.1,0.8-0.4,1.2c-1.8,3.2-9.6,5.2-13.9,7.4c-4.3,2.2-7.2,3-9.6,2.2
		c-0.4-0.1-0.7-0.4-0.9-0.6c0,0.9,0.3,1.7,1.2,2.1c2.5,0.8,5.3,0,9.6-2.2c4.3-2.2,12.1-4.2,13.9-7.4
		C35.1,200.1,35.1,199.2,34.6,198.4z"/>
	<path fill="#2D3134" d="M48,220.4c0,0-3.2,7.1,1.4,8.1c4.6,1,8.6-3.3,10.9-4.7c2.4-1.5,8-5,9.5-6.9c1.1-1.3,0.8-6.6-5.8-5.8
		s-10.4,4.4-10.4,4.4L48,220.4z"/>
	<path opacity="0.4" d="M69.2,212.3c0.5,1.2,0.3,2.6-0.2,3.2c-1.5,1.9-7.1,5.4-9.5,6.9c-2.4,1.5-6.3,5.7-10.9,4.7
		c-0.6-0.1-1.1-0.4-1.4-0.7c0.3,1,1,1.7,2.3,2c4.6,1,8.6-3.3,10.9-4.7c2.4-1.5,8-5,9.5-6.9C70.5,216,70.7,213.8,69.2,212.3z"/>
	<path fill="#06547A" d="M26.3,96.9c0.5,0.3,21.2,3.8,21.2,3.8s-7.4,36.6-11.5,47c-4.2,10.4-9.1,27.7-10.3,33.8
		c-1.3,6.5-2.3,17.1-2.2,17.9c0.3,2-3.1,7.6-8.2,8.8s-6.5-0.4-6.4-1.4c0.3-5.7,1-23.7,3.3-34.3c1.6-7.4,5.1-15.7,5.4-19.8
		c0.3-4.1-0.7-27.5,2.7-39.9S26.3,96.9,26.3,96.9z"/>
	<path opacity="0.2" d="M26.3,96.9c0.5,0.3,21.2,3.8,21.2,3.8s-7.4,36.6-11.5,47c-4.2,10.4-9.1,27.7-10.3,33.8
		c-1.3,6.5-2.3,17.1-2.2,17.9c0.3,2-3.1,7.6-8.2,8.8s-6.5-0.4-6.4-1.4c0.3-5.7,1-23.7,3.3-34.3c1.6-7.4,5.1-15.7,5.4-19.8
		c0.3-4.1-0.7-27.5,2.7-39.9S26.3,96.9,26.3,96.9z"/>
	<path fill="#06547A" d="M33,99.5c0,0-2.7,11.2-1.8,17.5s2.5,13.4,5.2,23.5c2.8,10.4,7.2,20.7,6.4,30.3c-0.8,9.6-0.1,24.5,0.3,34.2
		c0.4,11.4,0.9,20.6,3.6,21.3c4.3,1.2,10.5-3.3,11.7-6.2c1.2-3,1.8-4.4,1.2-7.5c-0.3-1.6-1.5-18.1-1.1-27.1c0.4-9,1.8-22.3,3-32.8
		c1.2-10.5,0.8-20.8-1.2-31.8s-2.3-20-2.3-20L33,99.5z"/>
	<path fill="#FBD7C7" d="M27.2,49.9c0,0,4.3,4.8,7.7,5.8c3.9,1.1,11.1,0.1,11.1,0.1s2.3-8.3,2.9-9.5c0.6-1.2,2.8-1.1,3.2-3.8
		c0.4-2.7,1.8-15.7,0-17.9c-1.8-2.2-11.4-7.7-16.9-1.2s-2,17.5-2.4,20.1C32.4,46.1,27.2,49.9,27.2,49.9z"/>
	<path fill="#762C07" d="M32.4,45.1c0,0,6.3,2.3,10.1,1.6c3.7-0.7,6-4.4,6-4.4s0.1-5,1.2-6.8c1.1-1.8,1.6-0.8,1.6-0.8s2.3-4,2.2-6.9
		c-0.2-3.8-3.9-9.7-13.8-7.2c-7.8,2-8.9,10.2-8.8,13.7S32.4,45.1,32.4,45.1z"/>
	<path fill="#99CC33" d="M28.9,48.5c0,0-11.3-2.2-13.8,3.2s2.3,23.7,3.2,30.5c0.9,6.8,2.5,12.4,1.2,23.1c-0.9,7.2-2.1,12-0.8,12.5
		c2.6,1.1,17.7,4.6,28.4,4.3c6.8-0.2,13.1-1.5,13.6-2.1s-1.2-33-0.8-39.2c0.4-6.2,1.4-14.8-2.5-18.6s-11.1-6.6-11.1-6.6
		s-6.3,0.5-12.1-1.7S28.9,48.5,28.9,48.5z"/>
	<g>
		<path fill="#FFCC00" d="M52.5,33.1c2.9-1,6.7-5.5,5.7-8.6c-1-3-5.5-4.6-8.6-4.6S52.5,33.1,52.5,33.1z"/>
		<path opacity="0.2" d="M52.5,33.1c2.9-1,6.7-5.5,5.7-8.6c-1-3-5.5-4.6-8.6-4.6S52.5,33.1,52.5,33.1z"/>
		<path fill="#FFCC00" d="M28.9,35.7c2.1,2.4,11.7,4.6,18.9,0.8s9.4-9.1,7.4-13.8c-2.7-6.4-15.2-9.6-22-3.7S27.4,34.1,28.9,35.7z"/>
		<path fill="#FFCC00" d="M30.1,36.2c-1.5-1.7-2.5-10.7,4.3-16.6c4-3.4,9.9-3.8,14.7-2.2c-4.9-2.1-11.6-2-15.9,1.8
			c-6.8,5.9-5.8,15-4.3,16.6c0.6,0.7,1.8,1.3,3.3,1.8C31.2,37.1,30.5,36.7,30.1,36.2z"/>
		<path opacity="0.2" d="M49.9,18.1c-4.9-2.1-11.4-2.3-15.7,1.4c-3,2.6-4.6,6-5.2,8.9c0.4,0.2,0.8,0.3,1.2,0.4
			c0.6-2.9,2.3-6.4,5.2-8.9C39.3,16.6,45.1,16.5,49.9,18.1z"/>
		<path opacity="0.2" d="M36.2,20.5c-2.7,2.6-4,5.9-4.5,8.9c0.4,0.1,0.7,0.1,1.1,0.2c0.5-2.9,1.8-6.1,4.5-8.6
			c3.5-3.4,8.8-3.8,13.1-2.2C46,16.7,40.1,16.7,36.2,20.5z"/>
	</g>
	<path fill="#3399CC" d="M52.5,62.1c-4.1,0.5-8.1,4.6-5.8,13.6s6.1,10.7,8.9,10.4c4.4-0.5,5.9-11.1,4.2-17.2S54.6,61.8,52.5,62.1z"
		/>
	<path fill="#FBD7C7" d="M103.3,92.8l-1.2,5.7c0,0,1.7,0.5,3.2,1.6s5.4,2.2,6.9,3.1c1.5,0.8,4.1,3.4,6.1,3.8s7-0.9,6.6-3.4
		c-0.4-2.5-6.3-7.9-8.1-8.8c-1.8-0.9-7.7-1.5-8.9-1.6S103.3,92.8,103.3,92.8z"/>
	<path fill="#3399CC" d="M104.6,92.5c0.4,0.7-1.3,6.5-2.2,6.6s-12.9-3.9-21-6.8c-8.5-3-24.3-10.2-29-12.7c-5.8-3.1-7.3-9-4.5-14.1
		c2.9-5.4,8.6-3.3,11.5-1.5c2.9,1.8,15.4,13.2,21,15.8C87.2,83,103.7,91.1,104.6,92.5z"/>
</g>
</svg>
