<?xml version="1.0" encoding="utf-8"?>
<!-- Generator: Adobe Illustrator 18.1.0, SVG Export Plug-In . SVG Version: 6.00 Build 0)  -->
<svg version="1.0" id="Layer_1" xmlns="http://www.w3.org/2000/svg" xmlns:xlink="http://www.w3.org/1999/xlink" x="0px" y="0px"
	 viewBox="0 0 80 240" enable-background="new 0 0 80 240" xml:space="preserve">
<g>
	<path opacity="0.2" d="M68.1,226.6c15.9-10.7-0.4-14.4-14.7-20.3c-13.8-5.6-23.9-15-39.8-2.5C0.7,213.9,24,221.4,31,224.8
		C41.3,230,53.3,236.5,68.1,226.6z"/>
	<path fill="#3399CC" d="M18.2,53.9c-3.5,1.9-3.8,8-4.8,15.6s-2.2,15.8-2,19.2c0.2,3.4,5.1,8.8,7.7,12.2c2.6,3.4,6.9,7.2,6.9,7.2
		l3.9-6.8c0,0-8.8-12.9-9-13.7c-0.2-0.8,3.9-17.9,4-19.4C24.9,66.8,18.2,53.9,18.2,53.9z"/>
	<path fill="#2D3134" d="M12.3,207.4c0,0-2,4.2,0.5,5c2.5,0.8,5.3,0,9.6-2.2s12.1-4.2,13.9-7.4c1.7-3.1-2.8-6.1-9.6-4.2
		c-6.8,1.8-5.5,1.5-5.5,1.5L12.3,207.4z"/>
	<path opacity="0.4" d="M36.4,200.2c0,0.4-0.1,0.8-0.4,1.2c-1.8,3.2-9.6,5.2-13.9,7.4c-4.3,2.2-7.2,3-9.6,2.2
		c-0.4-0.1-0.7-0.4-0.9-0.6c0,0.9,0.3,1.7,1.2,2.1c2.5,0.8,5.3,0,9.6-2.2c4.3-2.2,12.1-4.2,13.9-7.4C36.9,201.9,36.8,201,36.4,200.2
		z"/>
	<path fill="#2D3134" d="M49.7,222.2c0,0-3.2,7.1,1.4,8.1c4.6,1,8.6-3.3,10.9-4.7c2.4-1.5,8-5,9.5-6.9c1.1-1.3,0.8-6.6-5.8-5.8
		s-10.4,4.4-10.4,4.4L49.7,222.2z"/>
	<path opacity="0.4" d="M71,214.1c0.5,1.2,0.3,2.6-0.2,3.2c-1.5,1.9-7.1,5.4-9.5,6.9c-2.4,1.5-6.3,5.7-10.9,4.7
		c-0.6-0.1-1.1-0.4-1.4-0.7c0.3,1,1,1.7,2.3,2c4.6,1,8.6-3.3,10.9-4.7c2.4-1.5,8-5,9.5-6.9C72.3,217.8,72.4,215.6,71,214.1z"/>
	<path fill="#06547A" d="M28,98.6c0.5,0.3,21.2,3.8,21.2,3.8s-7.4,36.6-11.5,47c-4.2,10.4-9.1,27.7-10.3,33.8
		c-1.3,6.5-2.3,17.1-2.2,17.9c0.3,2-3.1,7.6-8.2,8.8s-6.5-0.4-6.4-1.4c0.3-5.7,1-23.7,3.3-34.3c1.6-7.4,5.1-15.7,5.4-19.8
		c0.3-4.1-0.7-27.5,2.7-39.9S28,98.6,28,98.6z"/>
	<path opacity="0.2" d="M28,98.6c0.5,0.3,21.2,3.8,21.2,3.8s-7.4,36.6-11.5,47c-4.2,10.4-9.1,27.7-10.3,33.8
		c-1.3,6.5-2.3,17.1-2.2,17.9c0.3,2-3.1,7.6-8.2,8.8s-6.5-0.4-6.4-1.4c0.3-5.7,1-23.7,3.3-34.3c1.6-7.4,5.1-15.7,5.4-19.8
		c0.3-4.1-0.7-27.5,2.7-39.9S28,98.6,28,98.6z"/>
	<path fill="#06547A" d="M34.8,101.3c0,0-2.7,11.2-1.8,17.5c0.9,6.2,2.5,13.4,5.2,23.5c2.8,10.4,7.2,20.7,6.4,30.3
		c-0.8,9.6-0.1,24.5,0.3,34.2c0.4,11.4,0.9,20.6,3.6,21.3c4.3,1.2,10.5-3.3,11.7-6.2c1.2-3,1.8-4.4,1.2-7.5
		c-0.3-1.6-1.5-18.1-1.1-27.1s1.8-22.3,3-32.8s0.8-20.8-1.2-31.8c-2-11.1-2.3-20-2.3-20L34.8,101.3z"/>
	<path fill="#FBD7C7" d="M29,51.7c0,0,4.3,4.8,7.7,5.8c3.9,1.1,11.1,0.1,11.1,0.1s2.3-8.3,2.9-9.5c0.6-1.2,2.8-1.1,3.2-3.8
		c0.4-2.7,1.8-15.7,0-17.9c-1.8-2.2-11.4-7.7-16.9-1.2s-2,17.5-2.4,20.1C34.2,47.9,29,51.7,29,51.7z"/>
	<path fill="#762C07" d="M34.2,46.9c0,0,6.3,2.3,10.1,1.6c3.7-0.7,6-4.4,6-4.4s0.1-5,1.2-6.8c1.1-1.8,1.6-0.8,1.6-0.8s2.3-4,2.2-6.9
		c-0.2-3.8-3.9-9.7-13.8-7.2c-7.8,2-8.9,10.2-8.8,13.7S34.2,46.9,34.2,46.9z"/>
	<path fill="#99CC33" d="M30.6,50.2c0,0-11.3-2.2-13.8,3.2S19.1,77.1,20,84s2.5,12.4,1.2,23.1c-0.9,7.2-2.1,12-0.8,12.5
		c2.6,1.1,17.7,4.6,28.4,4.3c6.8-0.2,13.1-1.5,13.6-2.1c0.5-0.5-2.5-33.1-2.1-39.2c0.4-6.2,1.7-15.3-2.2-19c-3.9-3.7-10.2-6-10.2-6
		s-6.3,0.5-12.1-1.7S30.6,50.2,30.6,50.2z"/>
	<g>
		<path fill="#FFCC00" d="M54.3,34.9c2.9-1,6.7-5.5,5.7-8.6s-5.5-4.6-8.6-4.6C48.4,21.9,54.3,34.9,54.3,34.9z"/>
		<path opacity="0.2" d="M54.3,34.9c2.9-1,6.7-5.5,5.7-8.6s-5.5-4.6-8.6-4.6C48.4,21.9,54.3,34.9,54.3,34.9z"/>
		<path fill="#FFCC00" d="M30.6,37.5c2.1,2.4,11.7,4.6,18.9,0.8c7.1-3.8,9.4-9.1,7.4-13.8c-2.7-6.4-15.2-9.6-22-3.7
			S29.2,35.9,30.6,37.5z"/>
		<path fill="#FFCC00" d="M31.9,38c-1.5-1.7-2.5-10.7,4.3-16.6c4-3.4,9.9-3.8,14.7-2.2c-4.9-2.1-11.6-2-15.9,1.8
			c-6.8,5.9-5.8,15-4.3,16.6c0.6,0.7,1.8,1.3,3.3,1.8C33,38.9,32.3,38.5,31.9,38z"/>
		<path opacity="0.2" d="M51.6,19.9c-4.9-2.1-11.4-2.3-15.7,1.4c-3,2.6-4.6,6-5.2,8.9c0.4,0.2,0.8,0.3,1.2,0.4
			c0.6-2.9,2.3-6.4,5.2-8.9C41.1,18.4,46.8,18.3,51.6,19.9z"/>
		<path opacity="0.2" d="M38,22.3c-2.7,2.6-4,5.9-4.5,8.9c0.4,0.1,0.7,0.1,1.1,0.2c0.5-2.9,1.8-6.1,4.5-8.6
			c3.5-3.4,8.8-3.8,13.1-2.2C47.8,18.4,41.8,18.5,38,22.3z"/>
	</g>
	<path fill="#FBD7C7" d="M62.6,124.2c0,0-0.4,3,0.3,5.2c0.7,2.2,2.1,5.8,1.3,8.1c-0.8,2.3-0.9,5.5-0.2,6.7c0.7,1.1,4.9-4.1,5.1-5.9
		c0.2-1.8,1.1-7.7,0.5-9.9c-0.6-2.3-2.4-7.7-2.4-7.7L62.6,124.2z"/>
	<path fill="#3399CC" d="M61.7,125.6c0.8,0.5,5.7-2.1,6.3-3.4c0.6-1.3-3.6-9.6-5.5-13.2c-1.5-2.9-3.4-10.1-3.4-10.1
		s0.1-14.2,0.2-18.8c0.1-4.5,2.4-16.6-6.4-16.7c-8.6-0.1-7.9,8.2-7.2,15.1c0.8,6.9,1.7,19.6,4.1,25.7
		C52.2,110.2,60.3,124.6,61.7,125.6z"/>
</g>
</svg>
