<?xml version="1.0" encoding="utf-8"?>
<!-- Generator: Adobe Illustrator 18.1.0, SVG Export Plug-In . SVG Version: 6.00 Build 0)  -->
<svg version="1.0" id="Layer_1" xmlns="http://www.w3.org/2000/svg" xmlns:xlink="http://www.w3.org/1999/xlink" x="0px" y="0px"
	 viewBox="0 0 160 240" enable-background="new 0 0 160 240" xml:space="preserve">
<g>
	<path opacity="0.2" d="M91.9,225c-15.9-10.7,0.4-14.4,14.7-20.3c13.8-5.6,23.9-15,39.8-2.5c12.8,10.1-10.5,17.6-17.4,21
		C118.6,228.4,106.7,235,91.9,225z"/>
	<path fill="#3399CC" d="M141.7,52.4c3.5,1.9,3.8,8,4.8,15.6s2.2,15.8,2,19.2c-0.2,3.4-5.1,8.8-7.7,12.2c-2.6,3.4-6.9,7.2-6.9,7.2
		l-3.9-6.8c0,0,8.8-12.9,9-13.7c0.2-0.8-3.9-17.9-4-19.4C135.1,65.2,141.7,52.4,141.7,52.4z"/>
	<path fill="#2D3134" d="M147.6,205.8c0,0,2,4.2-0.5,5c-2.5,0.8-5.3,0-9.6-2.2c-4.3-2.2-12.1-4.2-13.9-7.4c-1.7-3.1,2.8-6.1,9.6-4.2
		c6.8,1.8,5.5,1.5,5.5,1.5L147.6,205.8z"/>
	<path opacity="0.4" d="M123.6,198.7c0,0.4,0.1,0.8,0.4,1.2c1.8,3.2,9.6,5.2,13.9,7.4c4.3,2.2,7.2,3,9.6,2.2
		c0.4-0.1,0.7-0.4,0.9-0.6c0,0.9-0.3,1.7-1.2,2.1c-2.5,0.8-5.3,0-9.6-2.2c-4.3-2.2-12.1-4.2-13.9-7.4
		C123.1,200.4,123.1,199.5,123.6,198.7z"/>
	<path fill="#2D3134" d="M110.2,220.7c0,0,3.2,7.1-1.4,8.1c-4.6,1-8.6-3.3-10.9-4.7s-8-5-9.5-6.9c-1.1-1.3-0.8-6.6,5.8-5.8
		c6.5,0.8,10.4,4.4,10.4,4.4L110.2,220.7z"/>
	<path opacity="0.4" d="M89,212.6c-0.5,1.2-0.3,2.6,0.2,3.2c1.5,1.9,7.1,5.4,9.5,6.9c2.4,1.5,6.3,5.7,10.9,4.7
		c0.6-0.1,1.1-0.4,1.4-0.7c-0.3,1-1,1.7-2.3,2c-4.6,1-8.6-3.3-10.9-4.7c-2.4-1.5-8-5-9.5-6.9C87.7,216.3,87.5,214,89,212.6z"/>
	<path fill="#06547A" d="M131.9,97.1c-0.5,0.3-21.2,3.8-21.2,3.8s7.4,36.6,11.5,47c4.2,10.4,9.1,27.7,10.3,33.8
		c1.3,6.5,2.3,17.1,2.2,17.9c-0.3,2,3.1,7.6,8.2,8.8c5.1,1.2,6.5-0.4,6.4-1.4c-0.3-5.7-1-23.7-3.3-34.3c-1.6-7.4-5.1-15.7-5.4-19.8
		c-0.3-4.1,0.7-27.5-2.7-39.9S131.9,97.1,131.9,97.1z"/>
	<path opacity="0.2" d="M131.9,97.1c-0.5,0.3-21.2,3.8-21.2,3.8s7.4,36.6,11.5,47c4.2,10.4,9.1,27.7,10.3,33.8
		c1.3,6.5,2.3,17.1,2.2,17.9c-0.3,2,3.1,7.6,8.2,8.8c5.1,1.2,6.5-0.4,6.4-1.4c-0.3-5.7-1-23.7-3.3-34.3c-1.6-7.4-5.1-15.7-5.4-19.8
		c-0.3-4.1,0.7-27.5-2.7-39.9S131.9,97.1,131.9,97.1z"/>
	<path fill="#06547A" d="M125.1,99.8c0,0,2.7,11.2,1.8,17.5c-0.9,6.2-2.5,13.4-5.2,23.5c-2.8,10.4-7.2,20.7-6.4,30.3
		s0.1,24.5-0.3,34.2c-0.4,11.4-0.9,20.6-3.6,21.3c-4.3,1.2-10.5-3.3-11.7-6.2c-1.2-3-1.8-4.4-1.2-7.5c0.3-1.6,1.5-18.1,1.1-27.1
		s-1.8-22.3-3-32.8c-1.2-10.5-0.8-20.8,1.2-31.8s2.3-20,2.3-20L125.1,99.8z"/>
	<path fill="#FBD7C7" d="M131,50.2c0,0-4.3,4.8-7.7,5.8c-3.9,1.1-11.1,0.1-11.1,0.1s-2.3-8.3-2.9-9.5c-0.6-1.2-2.8-1.1-3.2-3.8
		c-0.4-2.7-1.8-15.7,0-17.9c1.8-2.2,11.4-7.7,16.9-1.2s2,17.5,2.4,20.1C125.8,46.3,131,50.2,131,50.2z"/>
	<path fill="#762C07" d="M125.8,45.3c0,0-6.3,2.3-10.1,1.6c-3.7-0.7-6-4.4-6-4.4s-0.1-5-1.2-6.8c-1.1-1.8-1.6-0.8-1.6-0.8
		s-2.3-4-2.2-6.9c0.2-3.8,3.9-9.7,13.8-7.2c7.8,2,8.9,10.2,8.8,13.7S125.8,45.3,125.8,45.3z"/>
	<path fill="#99CC33" d="M129.3,48.7c0,0,11.3-2.2,13.8,3.2c2.6,5.4-2.3,23.7-3.2,30.5c-0.9,6.8-2.5,12.4-1.2,23.1
		c0.9,7.2,2.1,12,0.8,12.5c-2.6,1.1-17.7,4.6-28.4,4.3c-6.8-0.2-13.1-1.5-13.6-2.1S100,87.2,99.6,81c-0.4-6.2-1.7-15.3,2.2-19
		s10.2-6,10.2-6s6.3,0.5,12.1-1.7C129.9,52.1,129.3,48.7,129.3,48.7z"/>
	<g>
		<path fill="#FFCC00" d="M105.6,33.4c-2.9-1-6.7-5.5-5.7-8.6s5.5-4.6,8.6-4.6C111.5,20.4,105.6,33.4,105.6,33.4z"/>
		<path opacity="0.2" d="M105.6,33.4c-2.9-1-6.7-5.5-5.7-8.6s5.5-4.6,8.6-4.6C111.5,20.4,105.6,33.4,105.6,33.4z"/>
		<path fill="#FFCC00" d="M129.3,36c-2.1,2.4-11.7,4.6-18.9,0.8c-7.1-3.8-9.4-9.1-7.4-13.8c2.7-6.4,15.2-9.6,22-3.7
			S130.8,34.3,129.3,36z"/>
		<path fill="#FFCC00" d="M128.1,36.4c1.5-1.7,2.5-10.7-4.3-16.6c-4-3.4-9.9-3.8-14.7-2.2c4.9-2.1,11.6-2,15.9,1.8
			c6.8,5.9,5.8,15,4.3,16.6c-0.6,0.7-1.8,1.3-3.3,1.8C127,37.4,127.7,36.9,128.1,36.4z"/>
		<path opacity="0.2" d="M108.3,18.4c4.9-2.1,11.4-2.3,15.7,1.4c3,2.6,4.6,6,5.2,8.9c-0.4,0.2-0.8,0.3-1.2,0.4
			c-0.6-2.9-2.3-6.4-5.2-8.9C118.9,16.8,113.1,16.8,108.3,18.4z"/>
		<path opacity="0.2" d="M122,20.7c2.7,2.6,4,5.9,4.5,8.9c-0.4,0.1-0.7,0.1-1.1,0.2c-0.5-2.9-1.8-6.1-4.5-8.6
			c-3.5-3.4-8.8-3.8-13.1-2.2C112.2,16.9,118.1,17,122,20.7z"/>
	</g>
	<path fill="#FBD7C7" d="M53,49.2l-4,6.5c0,0-1.1,0-2.7-0.3c-1.5-0.3-5.6-1.8-7.6-3.2c-2.4-1.7-4.5-5.2-5.1-6.9
		c-0.3-0.8-0.5-3.7,1-5.1s5.5,3.7,8,4.6c2.2,0.8,2.8,0.8,2.9,0.3c0.1-0.6-4.4-1.1-4.2-2.4c0.5-2.3,5.5-0.6,7.5,0.7
		c1.9,1.2,2.5,2.8,2.9,3.9C52,48.2,53,49.2,53,49.2z"/>
	<path fill="#3399CC" d="M53.1,48.5c1-0.4,16.6,8.4,22.3,11.2c2.3,1.1,7.3,1.2,11.7,1.2s10.4,0.4,13.9,0.2c3.9-0.2,7.5-1.3,11.1,2.1
		c4.8,4.6,3.1,14.2-5.5,15.2c-5.5,0.7-8.2-1.1-18.8-3.6c-10.3-2.5-14.2-3.9-18.8-5.8S49,56.9,48.7,56.1
		C48.4,55.4,52.4,48.8,53.1,48.5z"/>
	<path fill="#3399CC" d="M107.6,61c4.1,0.5,9,4.1,6.7,13.1s-6.1,11.1-9.8,10.9c-4.4-0.3-5.9-11.1-4.2-17.2S105.5,60.8,107.6,61z"/>
</g>
</svg>
