<?xml version="1.0" encoding="utf-8"?>
<!-- Generator: Adobe Illustrator 18.1.0, SVG Export Plug-In . SVG Version: 6.00 Build 0)  -->
<svg version="1.0" id="Layer_1" xmlns="http://www.w3.org/2000/svg" xmlns:xlink="http://www.w3.org/1999/xlink" x="0px" y="0px"
	 viewBox="0 0 160 240" enable-background="new 0 0 160 240" xml:space="preserve">
<g>
	<path opacity="0.2" d="M13.9,224.1c-12.3-8.2,0.2-17,17.1-21.3c7.4-1.9,20.2-11.6,39.8-1.1c15.8,8.5-7.5,12.3-16.4,16.8
		C43.7,223.9,35.4,238.4,13.9,224.1z"/>
	<path fill="#2D3134" d="M48.3,192.7l10.4,1.2c0,0,0.2,1.8,2.1,3.8c1.9,2,10.1,6.4,11.7,7.6c2.8,2.1,0.9,5-1.5,5.3
		c-2.6,0.4-6.1-0.4-10.5-2c-3.4-1.2-7.4-2.3-11.3-3.6c-3.3-1.1-2.5-5.9-2-8C47.8,194.9,48.3,192.7,48.3,192.7z"/>
	<path opacity="0.4" d="M70.9,209.1c-2.7,0.4-6.5-0.5-11.2-2.2c-3.7-1.3-7.9-2.5-12-3.9c-0.3-0.1-0.5-0.2-0.7-0.3
		c0.3,1,1,1.9,2.2,2.3c3.8,1.3,7.8,2.4,11.3,3.6c4.4,1.6,7.9,2.4,10.5,2c1.8-0.3,3.2-1.9,2.8-3.5C73.3,208.1,72.2,208.9,70.9,209.1z
		"/>
	<path fill="#06547A" d="M58.5,93.7c0,0,6.1,23.2,5.7,34.4s-2.4,23.6-2.9,33c-0.5,9.4-0.4,30.7,0.1,34.9c0.6,4.8-1.8,5.1-4.8,5.2
		c-3.1,0.1-9.1-0.9-10.1-1.9s-0.9-8.7-0.9-14.3s-0.5-14-0.1-21.9c0.3-6.8-2.2-16.2-3.6-21.4s-7.4-22.6-7.8-27.4
		c-0.4-4.8-0.1-15.2-0.1-15.2L58.5,93.7z"/>
	<path opacity="0.2" d="M58.5,93.7c0,0,6.1,23.2,5.7,34.4s-2.4,23.6-2.9,33c-0.5,9.4-0.4,30.7,0.1,34.9c0.6,4.8-1.8,5.1-4.8,5.2
		c-3.1,0.1-9.1-0.9-10.1-1.9s-0.9-8.7-0.9-14.3s-0.5-14-0.1-21.9c0.3-6.8-2.2-16.2-3.6-21.4s-7.4-22.6-7.8-27.4
		c-0.4-4.8-0.1-15.2-0.1-15.2L58.5,93.7z"/>
	<path fill="#FBD7C7" d="M62.8,113.9l3.6-3.5c0,0,1.9,4.8,2.2,7.2c0.3,2.3-0.3,14.4-2.1,14.4s-1-3-1-4c0-1,0.7-4.1,0.7-4.1
		s-0.5,1.9-1.4,1.7s-1.5-1.9-0.9-3.5c0.6-1.6-0.9-4.3-0.9-4.3L62.8,113.9z"/>
	<path fill="#3399CC" d="M61.7,114.3c0,0,4.9-2.5,5-3.6c0.1-1.1-7-18.9-7-18.9L61.7,114.3z"/>
	<path fill="#2D3134" d="M12.1,208.5c0.2,0.1,10.6,2.2,10.6,2.2s2.7,6,5.3,8.1c2.1,1.8,8,5.7,7.7,7.9c-0.3,2.2-6.3,4-11.9,1.1
		c-2.6-1.3-12.9-6.6-13.4-10.1C9.8,213.7,12.1,208.5,12.1,208.5z"/>
	<path opacity="0.4" d="M23.8,226c-2.6-1.3-12.9-6.6-13.4-10.1c0-0.2,0-0.3-0.1-0.5c-0.1,0.8-0.1,1.6,0.1,2.3
		c0.5,3.5,10.8,8.8,13.4,10.1c5.6,2.9,11.6,1.1,11.9-1.1c0-0.3-0.1-0.7-0.3-1.2C34.2,227.4,28.8,228.6,23.8,226z"/>
	<path fill="#06547A" d="M51.2,99.1c-0.3,6.5-5.2,33.2-8.9,45.3c-3.7,12.1-6.5,19.8-8.3,26.8c-1.8,7-5.9,23.7-7,32
		c-0.4,3.2-1,12-1.7,12.9c-3.3,4.1-11.3,2-12.9,0.6c-1.7-1.6-2.6-2.4-2.2-5.5c0.4-3.1,1.7-21.3,2.7-27.8c1.7-10.7,5-15,6.1-20.1
		c1.1-5.1-1.1-24.1,2.3-42s7.5-21.7,7.5-21.7L51.2,99.1z"/>
	<polygon fill="#3399CC" points="31.5,46.6 41.9,43.7 48.9,45.4 52.1,107.3 	"/>
	<path fill="#99CC33" d="M31.5,46.6c0,0-9.9,3.1-13.7,6.6c-6.1,5.7-0.4,20.2,3.4,31.8s-1.7,33.4-1.3,34.3c0.8,1.6,24.1,5.1,29.2,1.7
		c2.4-1.6,2.7-21.1,1.7-29.8s-4.6-17.1-6.7-22.2C42.2,64.6,31.5,46.6,31.5,46.6z"/>
	<path fill="#99CC33" d="M47.5,46.4c0.6,0.4,9,2.2,10.8,4.8c3.7,5.3,3,18.2,3,22.7c0,4.5,0.4,24.9,1.6,34.6c0.5,3.9,1.9,9.2,1.2,9.9
		c-1,1.1-8.5,3.6-10,0.5c-1.2-2.5-5-27.2-5.2-33C48.8,80.2,47.5,46.4,47.5,46.4z"/>
	<path fill="#FBD7C7" d="M32.2,46.5c0,0,2.6-1.1,2.7-2.9c0.2-1.9-5.6-9.2-0.8-16s16.9-5.5,19,1.2c2.1,6.8,2.3,19.6,0.7,21
		c-2,1.7-5.6,1-5.6,1s-1.2,3.1-0.9,4.9c0.4,2.5-1.9,2.7-3.2,2.7C42.3,58.2,34.6,53.4,32.2,46.5z"/>
	<path fill="#762C07" d="M34.2,41.9l1.5,0.9c0,0-3.9-5.4-1.3-6.5c2.6-1.1,3.9,2.2,3.9,2.2s1.9-3.4,5-3.7c3.1-0.3,11.4-2.2,11.1-4.8
		c-0.1-1-3.4-10-13.2-8.3S31,31.6,31.5,34.9S34.2,41.9,34.2,41.9z"/>
	<g>
		<path fill="#FFCC00" d="M57.9,32.7c0,0,2.8,1.2,2.8,2.1c0,0.9-8.3,4.5-14,3.9s-16.1-3.5-16.7-5c-0.6-1.5,0.7-16.2,12.7-16.2
			C56.7,17.5,57.9,32.7,57.9,32.7z"/>
		<path opacity="0.2" d="M60.7,34.8c0,0.9-8.3,4.5-14,3.9c-4.6-0.5-12.1-2.4-15.2-4c3.1,1.1,7.3,2.2,10.4,2.1
			c5.4-0.2,14.2-2.8,16.1-4.1C57.9,32.7,60.7,33.9,60.7,34.8z"/>
		<path opacity="0.2" d="M56.4,31l-1.2,0.4c-0.6-3.6-3.3-13.3-13.8-13.3c-0.6,0-1.2,0.1-1.8,0.1c0.9-0.3,1.9-0.4,3-0.4
			C53,17.8,55.7,27.3,56.4,31z"/>
		<path opacity="0.2" d="M51.9,32.5c-0.3-2.6-2-13.8-11.2-13.8c-0.5,0-1,0.1-1.4,0.1c0.7-0.3,1.5-0.4,2.4-0.4
			c9.1,0,11.2,10.9,11.5,13.6L51.9,32.5z"/>
	</g>
	<path fill="#FBD7C7" d="M78,77.9l-0.7,8c0,0,0.9,0.2,2.4,1s5.8,1.9,8.4,2c3.1,0.1,6.6-1,8-1.9c1.4-0.9,2.7-2.6,2.4-4.7
		c-0.3-2.1-5.5-1-8.7-1.3c-1.5-0.1-3.3-0.5-3-1c0.2-0.6,4.7,1.1,5.3-0.2c1-2.2-3.7-2.9-6.1-3s-3.8,0.5-5.3,1
		C79.4,78.1,78,77.9,78,77.9z"/>
	<path fill="#3399CC" d="M78.1,77.5c-0.5-0.9-18.3-3.2-24.6-4.5c-2.6-0.5-6.6-3.4-10.1-6.1s-8.5-6-11.2-8.2c-3-2.5-6.6-5.2-11.5-4.6
		C14.1,55,13.8,64.9,20,70.8c4,3.9,4.5,2.5,14.5,6.8c9.7,4.2,13.7,5.4,18.5,6.6c4.8,1.2,23.3,2.5,24,2S78.4,78.1,78.1,77.5z"/>
	<path fill="#3399CC" d="M18.8,54.8c3.7-1.8,7.8,0.4,9.7,10.2c1.5,8-0.6,15-4,15.8c-3.7,0.9-7.8-10.8-8.7-17.3
		C15,57.2,17,55.7,18.8,54.8z"/>
</g>
</svg>
