<?xml version="1.0" encoding="utf-8"?>
<!-- Generator: Adobe Illustrator 18.1.0, SVG Export Plug-In . SVG Version: 6.00 Build 0)  -->
<svg version="1.1" id="Layer_1" xmlns="http://www.w3.org/2000/svg" xmlns:xlink="http://www.w3.org/1999/xlink" x="0px" y="0px"
	 viewBox="0 0 80 240" enable-background="new 0 0 80 240" xml:space="preserve">
<g>
	<path opacity="0.2" d="M21.1,224.2c6.4,6.4,9.8,7,26.8,2.3c18.1-5,19.3-8.7,11.3-14.5s-14.4-5.1-25.3-1.8
		C23,213.5,12.9,215.9,21.1,224.2z"/>
	<path fill="#FBD7C7" d="M60.5,104.4c0,0,4.3,3.9,5.4,5.4c1.4,2,0.9,5.9-0.4,7.5c-1.4,1.7-4,1.7-4.2,1.3s1.9-2.4,2.1-3.3
		c0.1-0.5,0-1.3,0-1.3s-0.8,0.2-1.3,0c-1.9-0.8-4.1-4.6-4.2-5.4s-1.3-2.1-1.3-2.1L60.5,104.4z"/>
	<path fill="#762C07" d="M26.6,45.7c-0.5,0.3-6.4,4.1-6.5,9.7c-0.1,5.7-2.6,13.9-5.7,17.8c5.3-1.9,13.4-4.9,14.6-13.8
		S26.6,45.7,26.6,45.7z"/>
	<path fill="#2D3134" d="M49.9,206.5c1.4,1.3,2.6,2.3,6.2,4.6c3.4,2.1,5,3.9,4.7,6c-0.4,2.6-4.8,3.6-9.4,1.7
		c-4.6-1.9-7.7-4.3-10.2-5.1s-4.9-1.2-5.1-2.1c-0.2-1,0.4-5.1,0.4-5.1L49.9,206.5z"/>
	<path opacity="0.5" d="M41,211.9c2.6,0.9,5.6,3.2,10.2,5.1c4.5,1.9,8.9,0.9,9.4-1.6c0.2,0.5,0.2,1,0.2,1.6
		c-0.4,2.6-4.8,3.6-9.4,1.7c-4.6-1.9-7.7-4.3-10.2-5.1s-4.9-1.2-5.1-2.1c-0.1-0.3,0-0.8,0-1.4C36.6,210.8,38.7,211.1,41,211.9z"/>
	<path fill="#2D3134" d="M32.2,213c0.6,1.6,0.8,3.5,2.4,6c1.2,2,3.1,6.7,1.8,8.5c-1.9,2.6-9.5,2-11.9-2.8c-2.1-4.2-4.1-8.7-4.1-9.8
		c-0.1-2.7,0.6-5.2,0.6-5.2L32.2,213z"/>
	<path opacity="0.5" d="M20.7,211.7c0,0.4,0,0.9,0,1.3c0,1.1,2,5.6,4.1,9.8c2.4,4.8,10,5.4,11.9,2.8c0.1-0.1,0.2-0.3,0.2-0.4
		c0.1,0.9,0,1.7-0.4,2.3c-1.9,2.6-9.5,2-11.9-2.8c-2.1-4.2-4.1-8.7-4.1-9.8C20.4,213.7,20.5,212.6,20.7,211.7z"/>
	<path fill="#06547A" d="M50,117.7c2.5,7.1,5.8,16.5,7.6,25.6s3.4,17.9,2.9,22.6c-0.5,4.4-6.2,16-8,26c-1.9,9.9-1.2,15.2-1.7,15.7
		c-0.9,0.9-5.5,1.3-7.5,1.3c-2,0-6.3-0.3-6.9-1.3c-0.6-1-0.1-15.9,1.8-24.3c1.9-8.4,6-18.2,5.7-20.1s-9.8-20.1-11.9-25.5
		c-2.1-5.4-3.8-21.8-3.8-21.8L50,117.7z"/>
	<path opacity="0.2" d="M50,117.7c2.5,7.1,5.8,16.5,7.6,25.6s3.4,17.9,2.9,22.6c-0.5,4.4-6.2,16-8,26c-1.9,9.9-1.2,15.2-1.7,15.7
		c-0.9,0.9-5.5,1.3-7.5,1.3c-2,0-6.3-0.3-6.9-1.3c-0.6-1-0.1-15.9,1.8-24.3c1.9-8.4,6-18.2,5.7-20.1s-9.8-20.1-11.9-25.5
		c-2.1-5.4-3.8-21.8-3.8-21.8L50,117.7z"/>
	<path fill="#06547A" d="M38.3,117.5c0,0,0.8,19.2,0.6,29.4s-0.9,20.6-2.8,25.9c-1.3,3.8-2.4,22.9-2.7,29.9
		c-0.2,4.4,0.5,10.2,0,11.4c-0.8,1.9-10,1-11.7,0.3c-1.7-0.8-1.8-1.5-2-3.5c-0.2-2-1.6-20.4-0.8-29.1c0.8-8.7,3.4-17.3,2.7-22.1
		c-0.7-4.9-7.5-24.6-6-35.1s6.3-14.8,6.3-14.8L38.3,117.5z"/>
	<path fill="#3399CC" d="M60.7,104.2l-4,3.1c0,0-4.3-4.5-7.5-8.1S40,86.8,40,86.8l6.7-4.6c0,0,6.6,9.4,8.9,13.2
		C57.9,99.2,60.7,104.2,60.7,104.2z"/>
	<path fill="#3399CC" d="M43.3,58c-3.1-0.9-20.8,0.7-24,5.6c-4.9,7.6,2.8,25.8,2.6,31.2c-0.1,5.3-1.2,17.5-1.7,20.1
		c-0.5,2.6,13.9,11.5,21.3,11.3s8.7-4.9,8.8-7.1S50.3,98.4,50,95.6s-0.6-6.6,0-8.8c0.6-2.2,5.1-6.5,3.3-10.5s-5.1-7.6-6.3-11.3
		C46,61.4,45.1,58.5,43.3,58z"/>
	<path fill="#99CC33" d="M36.7,58c1.4-0.2,7.8-1.9,10,3.8c1.6,4.2,6.4,11.8,7.1,14.6c0.7,2.7,0,6.4-1,9.4c-1,3-1.4,18.2-1.1,25.3
		c0.3,7.1,2.9,15.1,2.1,16.7c-0.8,1.7-6.1,2.3-7.8,2s-0.9-18-0.7-25.3c0.1-3.4,0.3-12.8,0.1-19.3c-0.1-3.6-3.8-17.3-5-20.5
		C39.2,61.4,36.7,58,36.7,58z"/>
	<path fill="#FBD7C7" d="M36.3,31.8c5.2,0.1,12,6.1,11.3,13.8c-0.6,7.7-3.4,15.9-5.3,16.6c-1.9,0.7-4.1-0.4-4.1-0.4s2.5,3.5,1.2,4.5
		c-1.3,0.9-7.6-0.4-10.9-2.4c-3.3-2-3.2-3.6-3.2-3.6s3-4.7,2.8-7.3s-4.4-7.9-1.6-14.6C29.2,32,32.3,31.7,36.3,31.8z"/>
	<path fill="#762C07" d="M47.7,41.9c-0.4,1.3-3.4,1.9-6.2,2c-2.7,0.1-5.3,0.4-6.5,2c-1.2,1.6-2.2,3.3-3.2,2.8
		c-1-0.5-2.5-2.7-4.1-2.4c-1.5,0.3-0.6,3.7-0.6,3.7s-4.7-10.6,1-16c4.1-3.9,10.7-3.7,15.2,0.1C47.7,37.8,47.9,41.3,47.7,41.9z"/>
	<path fill="#99CC33" d="M24.7,59.9c-2,0.1-8.8,5.5-9.8,8c-3.8,8.9,4,26.2,4,30.3c0,4.1-3.8,24-4,26.8c-0.2,2.8,7.8,4.6,12.6,5.4
		s14.3,1.1,15.2-0.7c0.9-1.8,3.2-18,3-26.4s0.2-14.2-2.4-20.4C37.9,70.5,25.1,59.9,24.7,59.9z"/>
	<path fill="#FBD7C7" d="M34.6,119.4c0,0,0.6,1.3,1.3,1.3c0.6,0,3.5-0.1,4.2,1.3c0.7,1.4,0.6,2.2,2.5,3.3c1.9,1.2,5.5,1.4,5.4,2.5
		c-0.1,1.3-2,2.5-3.3,2.9s-6.6,1.5-8.4,0s-3.9-4.8-4.2-5.4c-0.3-0.6-2.1-2.3-2.1-2.9C30,121.7,34.6,119.4,34.6,119.4z"/>
	<path fill="#3399CC" d="M35.4,120l-5,3.8c0,0-6.1-7-9.1-10.2c-2.2-2.4-5.9-7.5-6.3-9.8c-0.4-2.3-0.7-19.3-0.7-24.2
		c0-3-1.6-13.2,4.9-12.9s7.2,6,6.7,12.4c-0.5,6.4-2.3,20.7-1.7,21.8c0.5,0.9,5.1,8.5,6.8,11.2S35.4,120,35.4,120z"/>
	<g>
		<path fill="#FFCC00" d="M51.2,42.7c0,0,2.7,1.2,2.7,2s-7.9,4.3-13.4,3.7S25.1,45,24.5,43.7c-0.6-1.4,0.7-15.5,12.1-15.5
			C50.1,28.2,51.2,42.7,51.2,42.7z"/>
		<path opacity="0.2" d="M53.8,44.7c0,0.8-7.9,4.3-13.4,3.7c-4.4-0.5-11.5-2.3-14.5-3.8c3,1,7,2.1,9.9,2c5.2-0.2,13.6-2.7,15.3-3.9
			C51.2,42.7,53.8,43.9,53.8,44.7z"/>
		<path opacity="0.2" d="M49.7,41.1l-1.2,0.4C48,38,45.4,28.8,35.5,28.8c-0.6,0-1.2,0-1.7,0.1c0.9-0.2,1.8-0.4,2.9-0.4
			C46.5,28.5,49.1,37.5,49.7,41.1z"/>
		<path opacity="0.2" d="M45.5,42.5c-0.3-2.5-1.9-13.2-10.7-13.2c-0.5,0-0.9,0-1.4,0.1c0.7-0.2,1.5-0.4,2.3-0.4
			c8.7,0,10.7,10.4,11,13L45.5,42.5z"/>
	</g>
</g>
</svg>
