<?xml version="1.0" encoding="utf-8"?>
<!-- Generator: Adobe Illustrator 18.1.0, SVG Export Plug-In . SVG Version: 6.00 Build 0)  -->
<svg version="1.0" id="Layer_1" xmlns="http://www.w3.org/2000/svg" xmlns:xlink="http://www.w3.org/1999/xlink" x="0px" y="0px"
	 viewBox="0 0 160 240" enable-background="new 0 0 160 240" xml:space="preserve">
<g>
	<path fill="#FBD7C7" d="M102.4,76c0,0,9.9,2.3,13.1,4.2c3.2,2,8.4,9.4,7.9,11c-0.6,1.6-3.5,0.3-4.5-0.5c-1.1-0.8-4.1-3.4-5.7-4.3
		c-1.3-0.7-3.5-1.5-3.5-1.5s4.5,3.4,3.5,4.5c-1.3,1.3-6.3-3-6.7-3.4c-0.9-0.9-2.9-2.1-3.5-2.5c-0.6-0.3-2.5-1.1-2.5-1.1L102.4,76z"
		/>
	<path fill="#3399CC" d="M51.4,49.9c3.4,0.1,9.9,4.9,13.7,7.2c4.7,2.9,15.1,8.4,18.7,9.9c7.8,3.3,19.7,8,20.4,9.3s-0.6,5.7-2.3,6.9
		c-1.4,1-6.4-1.3-13.7-3.6c-4.6-1.5-10.4-4-14.1-5.3c-3.7-1.2-15-5.7-19.4-7.2C41.6,62.7,43,49.6,51.4,49.9z"/>
	<path opacity="0.2" d="M11.7,224.1c-12.3-8.2,0.2-17,17.1-21.3c7.4-1.9,20.2-11.6,39.8-1.1c15.8,8.5-7.5,12.3-16.4,16.8
		C41.5,223.9,33.2,238.4,11.7,224.1z"/>
	<path fill="#2D3134" d="M46.1,192.7l10.4,1.2c0,0,0.2,1.8,2.1,3.8c1.9,2,10.1,6.4,11.7,7.6c2.8,2.1,0.9,5-1.5,5.3
		c-2.6,0.4-6.1-0.4-10.5-2c-3.4-1.2-7.4-2.3-11.3-3.6c-3.3-1.1-2.5-5.9-2-8C45.6,194.9,46.1,192.7,46.1,192.7z"/>
	<path opacity="0.4" d="M68.8,209.1c-2.7,0.4-6.5-0.5-11.2-2.2c-3.7-1.3-7.9-2.5-12-3.9c-0.3-0.1-0.5-0.2-0.7-0.3
		c0.3,1,1,1.9,2.2,2.3c3.8,1.3,7.8,2.4,11.3,3.6c4.4,1.6,7.9,2.4,10.5,2c1.8-0.3,3.2-1.9,2.8-3.5C71.1,208.1,70,208.9,68.8,209.1z"
		/>
	<path fill="#06547A" d="M56.3,93.7c0,0,6.1,23.2,5.7,34.4s-2.4,23.6-2.9,33c-0.5,9.4-0.4,30.7,0.1,34.9c0.6,4.8-1.8,5.1-4.8,5.2
		c-3.1,0.1-9.1-0.9-10.1-1.9c-1-1-0.9-8.7-0.9-14.3s-0.5-14-0.1-21.9c0.3-6.8-2.2-16.2-3.6-21.4s-7.4-22.6-7.8-27.4
		c-0.4-4.8-0.1-15.2-0.1-15.2L56.3,93.7z"/>
	<path opacity="0.2" d="M56.3,93.7c0,0,6.1,23.2,5.7,34.4s-2.4,23.6-2.9,33c-0.5,9.4-0.4,30.7,0.1,34.9c0.6,4.8-1.8,5.1-4.8,5.2
		c-3.1,0.1-9.1-0.9-10.1-1.9c-1-1-0.9-8.7-0.9-14.3s-0.5-14-0.1-21.9c0.3-6.8-2.2-16.2-3.6-21.4s-7.4-22.6-7.8-27.4
		c-0.4-4.8-0.1-15.2-0.1-15.2L56.3,93.7z"/>
	<path fill="#2D3134" d="M9.9,208.5c0.2,0.1,10.6,2.2,10.6,2.2s2.7,6,5.3,8.1c2.1,1.8,8,5.7,7.7,7.9c-0.3,2.2-6.3,4-11.9,1.1
		c-2.6-1.3-12.9-6.6-13.4-10.1C7.6,213.7,9.9,208.5,9.9,208.5z"/>
	<path opacity="0.4" d="M21.7,226c-2.6-1.3-12.9-6.6-13.4-10.1c0-0.2,0-0.3-0.1-0.5c-0.1,0.8-0.1,1.6,0.1,2.3
		c0.5,3.5,10.8,8.8,13.4,10.1c5.6,2.9,11.6,1.1,11.9-1.1c0-0.3-0.1-0.7-0.3-1.2C32,227.4,26.7,228.6,21.7,226z"/>
	<path fill="#06547A" d="M49,99.1c-0.3,6.5-5.2,33.2-8.9,45.3c-3.7,12.1-6.5,19.8-8.3,26.8c-1.8,7-5.9,23.7-7,32
		c-0.4,3.2-1,12-1.7,12.9c-3.3,4.1-11.3,2-12.9,0.6c-1.7-1.6-2.6-2.4-2.2-5.5c0.4-3.1,1.7-21.3,2.7-27.8c1.7-10.7,5-15,6.1-20.1
		s-1.1-24.1,2.3-42s7.5-21.7,7.5-21.7L49,99.1z"/>
	<polygon fill="#3399CC" points="29.3,46.6 39.7,43.7 46.7,45.4 49.9,107.3 	"/>
	<path fill="#99CC33" d="M29.3,46.6c0,0-9.9,3.1-13.7,6.6c-6.1,5.7-0.4,20.2,3.4,31.8s-1.7,33.4-1.3,34.3c0.8,1.6,24.1,5.1,29.2,1.7
		c2.4-1.6,2.7-21.1,1.7-29.8S44,74.2,41.9,69.1C40,64.6,29.3,46.6,29.3,46.6z"/>
	<path fill="#99CC33" d="M45.3,46.4c0.6,0.4,9,2.2,10.8,4.8c3.7,5.3,3,18.2,3,22.7c0,4.5,0.4,24.9,1.6,34.6c0.5,3.9,1.9,9.2,1.2,9.9
		c-1,1.1-8.5,3.6-10,0.5c-1.2-2.5-5-27.2-5.2-33C46.6,80.2,45.3,46.4,45.3,46.4z"/>
	<path fill="#FBD7C7" d="M30,46.5c0,0,2.6-1.1,2.7-2.9c0.2-1.9-5.6-9.2-0.8-16s16.9-5.5,19,1.2s2.3,19.6,0.7,21c-2,1.7-5.6,1-5.6,1
		s-1.2,3.1-0.9,4.9c0.4,2.5-1.9,2.7-3.2,2.7C40.1,58.2,32.4,53.4,30,46.5z"/>
	<path fill="#762C07" d="M32,41.9l1.5,0.9c0,0-3.9-5.4-1.3-6.5c2.6-1.1,3.9,2.2,3.9,2.2s1.9-3.4,5-3.7s11.4-2.2,11.1-4.8
		c-0.1-1-3.4-10-13.2-8.3s-10.2,9.9-9.6,13.2S32,41.9,32,41.9z"/>
	<g>
		<path fill="#FFCC00" d="M55.7,32.7c0,0,2.8,1.2,2.8,2.1c0,0.9-8.3,4.5-14,3.9s-16.1-3.5-16.7-5c-0.6-1.5,0.7-16.2,12.7-16.2
			C54.5,17.5,55.7,32.7,55.7,32.7z"/>
		<path opacity="0.2" d="M58.5,34.8c0,0.9-8.3,4.5-14,3.9c-4.6-0.5-12.1-2.4-15.2-4c3.1,1.1,7.3,2.2,10.4,2.1
			c5.4-0.2,14.2-2.8,16.1-4.1C55.7,32.7,58.5,33.9,58.5,34.8z"/>
		<path opacity="0.2" d="M54.2,31L53,31.4c-0.6-3.6-3.3-13.3-13.8-13.3c-0.6,0-1.2,0.1-1.8,0.1c0.9-0.3,1.9-0.4,3-0.4
			C50.8,17.8,53.5,27.3,54.2,31z"/>
		<path opacity="0.2" d="M49.8,32.5c-0.3-2.6-2-13.8-11.2-13.8c-0.5,0-1,0.1-1.4,0.1c0.7-0.3,1.5-0.4,2.4-0.4
			c9.1,0,11.2,10.9,11.5,13.6L49.8,32.5z"/>
	</g>
	<path fill="#FBD7C7" d="M19.6,123.6c0,0-0.2,7.9,0,10.5c0.2,2.7,1.2,6.3,2.1,7.1c1.6,1.6,4.7,2.9,6.8,2.4s2.2-2.5,2.2-3.3
		s-0.3-7.9-0.3-7.9s1.1,0.1,1.3,1.1s-0.7,2.3,0.3,3c1,0.7,1.8-1.6,2-2.9c0.2-1.2-0.4-3.4-1-4.1s-1.2-1.7-2.4-2.8s-3.8-4.1-3.8-4.1
		L19.6,123.6z"/>
	<path fill="#3399CC" d="M20.8,54.3c4.7,1.1,7.7,7,6.1,13.9c-1.6,6.9-3.7,13.1-4.8,15.9c-1.1,2.8-2.2,8-2.2,8s1.6,4.7,3.4,11.3
		c1.8,6.7,5.5,19.2,5,20.3c-0.6,1.1-8.2,2.6-9.3,2.5c-1.1-0.1-3.8-10.1-5.5-15.7c-1.7-5.5-5.2-14.8-4.9-18.4
		c0.3-3.6,2.8-22.2,3.1-25.9C12.2,59.7,15.4,53,20.8,54.3z"/>
</g>
</svg>
