<?xml version="1.0" encoding="utf-8"?>
<!-- Generator: Adobe Illustrator 18.1.0, SVG Export Plug-In . SVG Version: 6.00 Build 0)  -->
<svg version="1.0" id="Layer_1" xmlns="http://www.w3.org/2000/svg" xmlns:xlink="http://www.w3.org/1999/xlink" x="0px" y="0px"
	 viewBox="0 0 160 240" enable-background="new 0 0 160 240" xml:space="preserve">
<g>
	<path fill="#2D3134" d="M130.8,164c1.7,0.9,8.2,1.8,8.4,3.5c0.2,1.6-1.6,7.5-2.2,8.4c-0.6,1-2,0.1-2.1,2.2c-0.1,2.2-0.3,5.1-1,6.6
		c-0.6,1.5-4.8,7.1-5.7,7.1c-1,0-0.8-9.6-1.1-11.4s-0.9-3.2-1.9-5.6C128.9,170.8,130.8,164,130.8,164z"/>
	<path opacity="0.2" d="M97.7,227c9.3,4.6,20.8,1.4,31.7-3.5c11-4.9,26-13.7,23.2-17c-2.7-3.3-31.2,1.7-41,5.6
		C101.9,216,89.8,223.1,97.7,227z"/>
	<path fill="#2D3134" d="M115.6,210.6c-1.2,5.3-9.1,8.4-10.2,9.2c-1.1,0.8-3.9,2.7-3.1,5.3c0.8,2.6,8,3,11,2.2
		c2.2-0.6,6.5-4.1,7.6-4.5c1.1-0.4,1.3,0.2,1.3,0.2s6-1.9,6.5-2.9c0.5-0.9,0.6-9.7,0.6-9.7l-6.6,0.5L115.6,210.6z"/>
	<path opacity="0.5" d="M123.5,220.1c-2.9,0.8-8,4.5-11.3,5.3c-2.7,0.7-8.2-0.1-9.8-2.4c-0.2,0.6-0.2,1.2,0,1.8c0.8,2.6,8,3,11,2.2
		c2.2-0.6,6.5-4.1,7.6-4.5s1.3,0.2,1.3,0.2s6-1.9,6.5-2.9c0.1-0.2,0.3-1,0.4-1.9C127,218.8,124.7,219.7,123.5,220.1z"/>
	<path fill="#06547A" d="M106.4,98.5l1.4,28.9l-4.2,23.1c0,0,14,5.5,18.8,7.8s10.9,5.6,11.5,6.5c0.6,1-3.3,9.3-4.8,11.3
		c-1.5,1.9-2.4,1-3.5,0.6c-2.5-0.9-11.1-3.5-16.6-5.7c-5.5-2.3-11.8-4.2-16-5.2c-3.9-0.9-6.7-3-6.9-10.2c-0.2-7.1,0.6-26.6,2.4-34.6
		c1-4.3,2.8-20.3,2.8-20.3L106.4,98.5z"/>
	<path opacity="0.2" d="M106.4,98.5l1.4,28.9l-4.2,23.1c0,0,14,5.5,18.8,7.8s10.9,5.6,11.5,6.5c0.6,1-3.3,9.3-4.8,11.3
		c-1.5,1.9-2.4,1-3.5,0.6c-2.5-0.9-11.1-3.5-16.6-5.7c-5.5-2.3-11.8-4.2-16-5.2c-3.9-0.9-6.7-3-6.9-10.2c-0.2-7.1,0.6-26.6,2.4-34.6
		c1-4.3,2.8-20.3,2.8-20.3L106.4,98.5z"/>
	<path fill="#762C07" d="M120.1,39.6c0,0,3.9,0.3,5.9,5.2c2,4.9-2.6,15.6-2.6,15.6s-9.2-11-8.1-14.1C116.5,43,120.1,39.6,120.1,39.6
		z"/>
	<path opacity="0.5" d="M139.3,167.4c-0.1-0.5-0.9-1-1.9-1.4c-0.5,4-1.1,7.6-2.2,9.5c-1.2,2.1-1.4,6.1-1.7,7.6
		c-0.3,1.5-3.7,5.8-5.1,6.9c-0.2,0.1-0.4,0.4-0.5,0.8c0.1,0.6,0.3,1,0.5,1c1,0,5.1-5.6,5.7-7.1s0.9-4.4,1-6.6
		c0.1-2.2,1.4-1.3,2.1-2.2S139.5,169.1,139.3,167.4z"/>
	<path fill="#3399CC" d="M99.9,47.1c-2.1,0.6-5.6,3.5-5.7,6.2c-0.1,2.7,0.8,5.9-0.4,8.7c-1.2,2.7-1.2,23-1.5,26.5
		c-0.3,3.5-0.4,13.8-0.1,15.4c0.4,1.6,12.8,3.5,17.1,2.3s11.1-4.8,11.1-4.8s0.1-9.2,1.4-13.1s2.1-6,2.1-6s6.6-18.9,3.8-21.6
		c-2.7-2.7-3.5-3.7-5.3-5.6c-1.7-1.9-3.6-4.7-8.1-6.4S99.9,47.1,99.9,47.1z"/>
	<path fill="#06547A" d="M120.6,99.5c0,0,4.8,8.5,6.8,15.5c2.1,6.9,1.2,22.5-0.4,29.7s-2,14.7-1.6,18.3c0.3,3.6,5.1,24.2,5.6,32.6
		c0.5,8.3-0.2,17.3-1.2,18.2c-1,0.9-9.3,1.2-12.1,1.1c-1.6,0-4.4,0-4.5-1c-0.1-1,1.2-11.4,0.9-17.3c-0.3-6-3.2-16.3-4.7-21.1
		s-4-18-4.9-25.8c-1.2-9.6-2.1-18-3.2-28.7c-0.6-5.8-1.8-16.6-2.2-18.7C98.8,100.3,120.6,99.5,120.6,99.5z"/>
	<path fill="#2D3134" d="M119.5,38.2c1.4,0.3,1.7,2,0.8,3.7c-0.9,1.7-1.2,2.6-2.2,2.2s-0.1-1.4,0.3-3.2S118.8,38,119.5,38.2z"/>
	<path fill="#99CC33" d="M105.3,47.3c-3-0.2-6.2-0.4-6.2-0.4c-2.1,0.6-5.1,2-6.1,5.8c-0.7,2.7-2.4,19.4-2.9,22.1
		c-0.2,1.3,0.3,11.3-0.4,21.3c-0.7,10.4-3,20.8-2.9,21.6c0.3,1.8,12.3,2.7,13,1.6s2.2-23,2.7-29.4c0.7-12.3-0.2-20.1,0.2-27.9
		C103.1,55.5,104.9,52.7,105.3,47.3z"/>
	<path fill="#FBD7C7" d="M96.9,33c-1.2,3.4-1.1,10.8,0.4,14.9c1.5,4.2,3.5,6.3,4.7,6.4c1.2,0.1,2.5-0.5,2.5-0.5s0.6,1.1,0.5,2.6
		c-0.2,3.1-1,7.8-0.5,8.2c0.6,0.6,8.2-4.3,10.6-6.9c1.9-2,3.2-5.4,3-5.8c-0.2-0.4-2.3-3.5-2.2-4.8c0.1-1.3,2.4-4.1,2.4-5.3
		s0.9-12.1-7.2-13.6C102.8,26.6,98.4,28.8,96.9,33z"/>
	<path fill="#762C07" d="M95.8,35.3c0.2,1.3,1.6,1.4,4.3,2.2c2.7,0.9,5.7,5,7.8,5.3c2.2,0.3,4.8-0.7,6.7-1.4c1.9-0.7,3,0.2,3.3,0.9
		c0.3,0.8,3.5-6.9,0.8-12.1c-3-5.6-10.7-8.2-17.1-4.3C95.7,29.6,95.6,34.2,95.8,35.3z"/>
	<path fill="#99CC33" d="M130.4,62.6c-1.8-3.5-4.3-4.8-6.3-6.6c-1.5-1.4-4.3-4.4-7.1-6c0.2,0.9,0.3,3.2-1.2,8
		c-1.9,6-10.7,16.3-11.4,22.1c-0.4,3.5-3.9,38-2.9,39.2s7.4,0.4,14.9-0.3c4.5-0.5,11.4-2.1,12.1-3.3c0.7-1.3-3.4-20.2-2.8-26.3
		C126.3,85.1,133.1,67.8,130.4,62.6z"/>
	<g>
		<polygon fill="#FFCC00" points="54.4,77.2 54.4,107.2 84.4,122.2 114.4,107.2 114.4,77.2 84.4,62.2 		"/>
		<polygon opacity="0.11" points="84.4,122.2 54.4,107.2 54.4,77.2 84.4,92.2 		"/>
		<polygon opacity="0.3" points="73.1,67.8 65.8,71.5 95.8,86.5 95.8,101.1 103.1,97.4 103.1,82.8 		"/>
		<polygon opacity="0.29" points="84.4,122.2 114.4,107.2 114.4,77.2 84.4,92.2 		"/>
	</g>
	<path fill="#FBD7C7" d="M122.7,98.2c0,0-4.7,4.7-6.1,6c-1.4,1.3-2.6,3.3-4.3,3.7c-1.7,0.4-3.1-2.3-4.9-1.9
		c-1.9,0.3-5.5,0.2-6.9,0.3c-1.2,0.1-3.1,0.5-2.9,1.4c0.5,1.5,4.1,1.2,5.1,1.2s2.1,0.3,2.1,0.3s-2.8,1.4-5,2.5s-6.6,1-7.7,1.3
		c-0.8,0.3-1,3.8,1.8,4.8c2.8,1,9,0.1,10.8-0.4c2.5-0.7,7.4-2.4,8.8-3.3c1.4-0.9,5.4-3.6,7.4-4.8c2-1.2,9.1-6.1,9.1-6.1L122.7,98.2z
		"/>
	<path fill="#3399CC" d="M120.4,70.9c0.1,4.6,3.6,8.7,4.9,10.7c1.3,2,5.4,8.4,5.4,8.4s-4.3,2.8-5.8,4.4
		c-1.5,1.6-11.7,12.8-11.7,12.8s0.5,1.6,1.5,3.1s2.5,2.2,2.5,2.2s17.6-12.2,20.4-15.3s4.6-4.4,4.2-7.2c-0.4-2.8-4.7-9.4-5.9-12.3
		c-1.2-3-2.2-9.9-4.7-13.5c-1.9-2.7-3.6-4.3-6.1-4.5C121.8,59.3,120.3,65.9,120.4,70.9z"/>
	<g>
		<path fill="#FFCC00" d="M93.9,36.5c0,0-2.7,1.2-2.7,2c0,0.8,7.9,4.3,13.4,3.7s15.4-3.4,15.9-4.8c0.6-1.4-0.7-15.5-12.1-15.5
			C95,22,93.9,36.5,93.9,36.5z"/>
		<path opacity="0.2" d="M91.2,38.5c0,0.8,7.9,4.3,13.4,3.7c4.4-0.5,11.5-2.3,14.5-3.8c-3,1-7,2.1-9.9,2c-5.2-0.2-13.6-2.7-15.3-3.9
			C93.9,36.5,91.2,37.7,91.2,38.5z"/>
		<path opacity="0.2" d="M95.3,34.9l1.2,0.4c0.6-3.5,3.1-12.7,13.1-12.7c0.6,0,1.2,0,1.7,0.1c-0.9-0.2-1.8-0.4-2.9-0.4
			C98.5,22.3,95.9,31.3,95.3,34.9z"/>
		<path opacity="0.2" d="M99.5,36.3c0.3-2.5,1.9-13.2,10.7-13.2c0.5,0,0.9,0,1.4,0.1c-0.7-0.2-1.5-0.4-2.3-0.4
			c-8.7,0-10.7,10.4-11,13L99.5,36.3z"/>
	</g>
</g>
</svg>
