<?xml version="1.0" encoding="utf-8"?>
<!-- Generator: Adobe Illustrator 18.1.0, SVG Export Plug-In . SVG Version: 6.00 Build 0)  -->
<svg version="1.0" id="Layer_1" xmlns="http://www.w3.org/2000/svg" xmlns:xlink="http://www.w3.org/1999/xlink" x="0px" y="0px"
	 viewBox="0 0 80 240" enable-background="new 0 0 80 240" xml:space="preserve">
<g>
	<polygon fill="#3399CC" points="36.4,48.8 46.7,45.9 53.8,47.6 60.3,97.9 48.2,106 	"/>
	<path fill="#3399CC" d="M57.1,44.3l7.5-14.1l-15.8,2.6l-2-7.6c0,0,21.6-7,25.6-7.1s6.9,1.8,5.6,6.5c-1.3,4.7-8.5,24-9.1,26.2
		c-1.4,4.5-3.3,11-3.3,11L57.1,44.3z"/>
	<path opacity="0.2" d="M18.3,225c-12.3-8.2,0.2-17,17.1-21.3c7.4-1.9,19.2-12.1,38.7-1.5c15.8,8.5-6.4,12.7-15.4,17.3
		C48.2,224.8,39.9,239.3,18.3,225z"/>
	<path fill="#2D3134" d="M52.7,193.5l10.4,1.2c0,0,0.2,1.8,2.1,3.8c1.9,2,10.1,6.4,11.7,7.6c2.8,2.1,0.9,5-1.5,5.3
		c-2.6,0.4-6.1-0.4-10.5-2c-3.4-1.2-7.4-2.3-11.3-3.6c-3.3-1.1-2.5-5.9-2-8C52.2,195.8,52.7,193.5,52.7,193.5z"/>
	<path opacity="0.4" d="M75.4,210c-2.7,0.4-6.5-0.5-11.2-2.2c-3.7-1.3-7.9-2.5-12-3.9c-0.3-0.1-0.5-0.2-0.7-0.3c0.3,1,1,1.9,2.2,2.3
		c3.8,1.3,7.8,2.4,11.3,3.6c4.4,1.6,7.9,2.4,10.5,2c1.8-0.3,3.2-1.9,2.8-3.5C77.7,209,76.7,209.8,75.4,210z"/>
	<path fill="#06547A" d="M63,94.6c0,0,6.1,23.2,5.7,34.4c-0.4,11.2-2.4,23.6-2.9,33s-0.4,30.7,0.1,34.9c0.6,4.8-1.8,5.1-4.8,5.2
		c-3.1,0.1-9.1-0.9-10.1-1.9s-0.9-8.7-0.9-14.3s-0.5-14-0.1-21.9c0.3-6.8-2.2-16.2-3.6-21.4s-7.4-22.6-7.8-27.4
		c-0.4-4.8-0.1-15.2-0.1-15.2L63,94.6z"/>
	<path opacity="0.2" d="M63,94.6c0,0,6.1,23.2,5.7,34.4c-0.4,11.2-2.4,23.6-2.9,33s-0.4,30.7,0.1,34.9c0.6,4.8-1.8,5.1-4.8,5.2
		c-3.1,0.1-9.1-0.9-10.1-1.9s-0.9-8.7-0.9-14.3s-0.5-14-0.1-21.9c0.3-6.8-2.2-16.2-3.6-21.4s-7.4-22.6-7.8-27.4
		c-0.4-4.8-0.1-15.2-0.1-15.2L63,94.6z"/>
	<path fill="#2D3134" d="M16.6,209.3c0.2,0.1,10.6,2.2,10.6,2.2s2.7,6,5.3,8.1c2.1,1.8,8,5.7,7.7,7.9s-6.3,4-11.9,1.1
		c-2.6-1.3-12.9-6.6-13.4-10.1C14.3,214.6,16.6,209.3,16.6,209.3z"/>
	<path opacity="0.4" d="M28.3,226.9c-2.6-1.3-12.9-6.6-13.4-10.1c0-0.2,0-0.3-0.1-0.5c-0.1,0.8-0.1,1.6,0.1,2.3
		c0.5,3.5,10.8,8.8,13.4,10.1c5.6,2.9,11.6,1.1,11.9-1.1c0-0.3-0.1-0.7-0.3-1.2C38.7,228.3,33.3,229.5,28.3,226.9z"/>
	<path fill="#06547A" d="M55.7,100c-0.3,6.5-5.2,33.2-8.9,45.3c-3.7,12.1-6.5,19.8-8.3,26.8c-1.8,7-5.9,23.7-7,32
		c-0.4,3.2-1,12-1.7,12.9c-3.3,4.1-11.3,2-12.9,0.6c-1.7-1.6-2.6-2.4-2.2-5.5c0.4-3.1,1.7-21.3,2.7-27.8c1.7-10.7,5-15,6.1-20.1
		s-1.1-24.1,2.3-42s7.5-21.7,7.5-21.7L55.7,100z"/>
	<path fill="#99CC33" d="M36.4,48.8c0,0-11.1,1.9-15.1,4c-7.4,3.9-0.3,19.8,3.5,31.4s-0.8,35.1-0.3,36c0.8,1.6,24.1,5.1,29.2,1.7
		c2.4-1.6,1.3-22.3,0.2-30.9s-4.1-17.2-6.2-22.3C45.8,64.2,36.4,48.8,36.4,48.8z"/>
	<path fill="#99CC33" d="M51.2,45.6c0.9-1.1,6.3-3.7,7.2-2.1c1.5,2.7,3.8,8.1,6.5,14.4c1,2.2,0.9,5.1,1,7.6
		c0.2,8.1-0.6,16.3-0.6,18.1c0,4.5,0.9,16.2,2.1,25.9c0.5,3.9,1.9,9.2,1.2,9.9c-1,1.1-8.5,3.6-10,0.5c-1.2-2.5-5.5-26.5-5.7-32.3
		C52.8,81.8,51.2,45.6,51.2,45.6z"/>
	<g>
		<path fill="#FBD7C7" d="M36.7,48.9c0,0,1-0.8,0.8-2.7c-0.2-1.9-7.3-7.9-3.8-15.5s15.5-8.7,18.9-2.5s6,18.8,4.7,20.4
			c-1.7,2.1-5.3,2.1-5.3,2.1s-1.3,3.6-0.7,5.3c0.9,2.4-0.7,3.9-3.4,3.3C43.8,58.7,40.4,55.3,36.7,48.9z"/>
		<path fill="#762C07" d="M36.4,44.7l1.6,0.6c0,0-4.9-4.5-2.5-6.1c2.4-1.6,4.2,1.4,4.2,1.4s1.3-3.7,4.2-4.6s10.7-4.3,10-6.9
			c-0.3-1-5.2-9.1-14.6-5.6s-8.1,11.6-6.9,14.8C33.7,41.5,36.4,44.7,36.4,44.7z"/>
	</g>
	<path fill="#FBD7C7" d="M29.6,35.6c0,0,0.9-4.3,1.8-6.2c1.7-3.7,4-3.6,4-3.6s-1.9,1.7-2.2,5.4c-0.2,2.1,1.1,4.9,1.3,6.9
		c0.3,2,0.8,4.1-0.6,4.7c-1.3,0.6-2.2,0.7-2.2,0.7L29.6,35.6z"/>
	<path fill="#3399CC" d="M19.1,66.1c-1.8-3.9-7.6-7.7-11.3-10.1c-3.6-2.5-8.7-6.4-7.6-11.5s5.5-4.7,13-6s13.5-2.9,15.9-2.8
		s4.4,3.1,4.6,5.3s-0.3,2.5-1.6,2.9S17,47.5,17,47.5s6,3.3,7.1,4.3c1.1,1.1,10.5,14.1,5.5,21.7C25.7,79.6,19.1,66.1,19.1,66.1z"/>
</g>
</svg>
