<?xml version="1.0" standalone="no"?>
<!DOCTYPE svg PUBLIC "-//W3C//DTD SVG 20010904//EN"
 "http://www.w3.org/TR/2001/REC-SVG-20010904/DTD/svg10.dtd">
<svg version="1.0" xmlns="http://www.w3.org/2000/svg"
 width="125.000000pt" height="80.000000pt" viewBox="0 0 125.000000 80.000000"
 preserveAspectRatio="xMidYMid meet">
<metadata>
Created by potrace 1.15, written by Peter Selinger 2001-2017
</metadata>
<g transform="translate(0.000000,80.000000) scale(0.100000,-0.100000)"
fill="#000000" stroke="none">
<path d="M373 743 c-10 -3 -13 -58 -13 -223 0 -189 2 -219 16 -224 9 -3 63 -6
120 -6 l105 0 -3 -32 c-3 -32 -4 -33 -55 -36 -38 -2 -53 -7 -53 -18 0 -12 32
-14 196 -14 152 0 195 3 192 13 -3 6 -22 13 -44 15 -47 4 -64 17 -64 48 0 24
0 24 118 24 78 0 122 4 130 12 9 9 12 71 12 220 0 195 -1 208 -19 218 -20 10
-613 14 -638 3z m627 -228 l0 -195 -307 2 -308 3 -3 193 -2 192 310 0 310 0 0
-195z"/>
<path d="M57 733 c-9 -8 -7 -518 2 -558 l6 -30 116 -3 c99 -2 118 0 130 14 19
23 27 547 9 570 -10 11 -40 14 -135 14 -67 0 -125 -3 -128 -7z m243 -143 l0
-50 -110 0 -110 0 0 50 0 50 110 0 110 0 0 -50z"/>
<path d="M335 148 c-7 -18 -15 -42 -17 -53 -3 -20 3 -20 365 -23 271 -2 367 1
367 9 0 27 -24 88 -36 93 -18 7 -17 3 1 -41 8 -19 15 -37 15 -39 0 -2 -155 -4
-345 -4 -191 0 -345 4 -345 9 0 5 7 25 15 45 10 23 11 36 5 36 -6 0 -17 -15
-25 -32z"/>
</g>
</svg>
